<svg viewBox="0 0 224 224" xmlns="http://www.w3.org/2000/svg"><path d="m212.64 14.34a9.19 9.19 0 1 1 -9.18 9.19 9.18 9.18 0 0 1 9.18-9.19z"/><path d="m190.74 48.2c3.54 1.23 6.07 3.23 5.64 4.45l-.11.21c-.72 1-3.76.92-7.08-.23s-5.84-3-5.68-4.28l.24-.5c.88-.85 3.8-.75 6.99.35z"/><path d="m179.85 84.28-2.35 4.51-.14-.07a37.14 37.14 0 0 1 -5.64-1.72 20 20 0 0 1 -5.4-4.37l2.26-4.49c2 1.25 3.36 3.18 5.54 4.1a21.92 21.92 0 0 0 4.12.94c.55.15.76.32 1.61 1.1z"/><path d="m175.3 93-1.81 3.49-.23-.12c-2.58-1-8-4.64-11.3-5l1.75-3.49a25.23 25.23 0 0 0 5.75 3.47c1.6.71 4.71.73 5.56 1.47z"/><path d="m138.81 107.33c2.75 3.56 7.35 12.64-.53 27.93-.34.65-.7 1.32-1.09 2 0 0-17.39 41.86-40.46 5.86 0 0-13.29-23.42-31.66-13.49 0 0-46.52 18.21-34.6-28.14 0 0 6.09-19.79 19.5-25.64a18.75 18.75 0 0 1 7.47-1.61 19.41 19.41 0 0 1 3.51.27l76.23 31.08a11.93 11.93 0 0 1 1.63 1.74zm-16.28 21.41c8.65-15.24 0-22.24 0-22.24l-53.53-21.84c-14.83-2.47-21.42 19-21.42 19-8.38 32.57 24.3 19.77 24.3 19.77 12.92-7 22.25 9.48 22.25 9.48 16.18 25.23 28.4-4.17 28.4-4.17z"/><path d="m88.42 163.62c1 6.24 2.59 12.76 4.85 17.73-3.3 1.7-8.18 4-11.8 3.55a140.06 140.06 0 0 1 -5-19.07c3.84 1.26 8.39-.97 11.95-2.21z"/><path d="m23 155.29c3.74-.41 8.5-5.54 11.48-8.12 1.56-1.34 8.22-5.95 7.44-3.52-1.44 3.06-2.88 5.61-4.62 8.59-1.5 2.58-3.4 5.46-4.34 8.29 1.93 1.23 3.33 2.76 5.23 4.1 1.32.92 5.39 2.46 5.71 4.26.53 3-10.88-.59-13-1.11-.47 1.54 0 4.14-.05 5.92a41.8 41.8 0 0 0 .28 6.36c.23 2 .64 5.06-1.81 4.22-3.72-1.27-2.51-1.91-2.85-3.82-.6-3.32-1.69-2.6-2.4-5.83-.37-1.68-.14-4.65-.84-6-1.18-2.31-3.68-.74-6.05-.44a63.55 63.55 0 0 1 -7.52.55c-2.26 0-11.5-.89-6.12-3.92 3.18-1.79 7-2.52 10.25-4.32 8-4.46-10.88-13.07-7-17.81 4.09-.08 7.83 4.08 10.25 6.89 1 1.11 1.91 2.42 2.93 3.46.77.78 2.27 1.42 3 2.26z"/><path d="m115.68 158.32c-6.58 0-13.11-5-19.44-14.88-.15-.26-13.24-22.84-30.89-13.29h-.07a61.33 61.33 0 0 1 -12 3.08c-8.78 1.29-15.68 0-19.94-3.8-5.75-5.1-6.9-14.56-3.42-28.12.26-.84 6.33-20.14 19.83-26a19.5 19.5 0 0 1 7.71-1.66v1.17a18.29 18.29 0 0 0 -7.25 1.57c-13 5.67-19.11 25.07-19.17 25.27-3.36 13.07-2.33 22.14 3.07 26.92 5 4.47 13.1 4.38 19 3.52a60.76 60.76 0 0 0 11.75-3c18.65-10 32.29 13.49 32.42 13.73 6.43 10 13 14.84 19.48 14.27 6.17-.54 11.25-5.94 14.42-10.36a55.31 55.31 0 0 0 5.51-9.71v-.06c.37-.64.72-1.29 1.08-2 2.61-5.07 7.9-17.87.58-27.3a11.28 11.28 0 0 0 -1.46-1.59l-76.08-31a18.51 18.51 0 0 0 -3.34-.26v-1.17a20.79 20.79 0 0 1 3.62.28h.12l76.32 31.11.06.06a11.4 11.4 0 0 1 1.71 1.83c7.73 10 2.24 23.29-.47 28.56-.36.69-.71 1.35-1.08 2-.5 1.19-8.44 19.65-20.9 20.75-.41.06-.79.08-1.17.08z"/><path d="m107.42 143.71c-4.68 0-9.32-3.54-13.8-10.53-.39-.68-9.22-15.9-21.48-9.28h-.06c-.63.24-15.36 5.91-22.63-.54-4.1-3.62-4.93-10.33-2.46-19.93.07-.24 6.92-21.91 22.09-19.37h.12l53.64 21.94.06.05a12 12 0 0 1 3.44 5.7c1 3.44 1.27 9.22-3.28 17.26-.39.93-6 13.89-14.82 14.67a7.5 7.5 0 0 1 -.82.03zm-29.18-22.63c9.73 0 16.3 11.35 16.38 11.49 4.47 7 9 10.32 13.52 9.93 8.25-.72 13.8-13.85 13.85-14v-.07c8-14.08 1-20.75.21-21.45l-53.38-21.75c-5.88-1-11.14 1.84-15.63 8.31a42 42 0 0 0 -5.07 10.24c-2.34 9.11-1.64 15.42 2.11 18.74 6.59 5.83 20.63.62 21.39.33a13.89 13.89 0 0 1 6.62-1.77z"/><path d="m79.49 146.05c-3.2 0-6.86-.8-7.34-2.55l1.14-.31c.18.69 2.5 1.69 6.2 1.69 4 0 6.21-1.16 6.21-1.76s-2.2-1.76-6.21-1.76-6.21 1.16-6.21 1.76h-1.18c0-1.92 3.72-2.93 7.39-2.93s7.38 1 7.38 2.93-3.71 2.93-7.38 2.93z"/><path d="m194 54.15a16.05 16.05 0 0 1 -5-1c-3.08-1.07-6.3-3.06-6.07-4.9a.79.79 0 0 1 .07-.25 1.26 1.26 0 0 1 .35-.55c1.23-1.25 4.7-.8 7.59.2s5.23 2.55 5.89 3.9a1.7 1.7 0 0 1 .12 1.29 1.43 1.43 0 0 1 -.18.35l-.67-.45.65.47a3.31 3.31 0 0 1 -2.75.94zm-8-6.29a2.65 2.65 0 0 0 -1.76.42s-.07.08-.07.1c-.1.78 1.87 2.52 5.29 3.7s6 1 6.4.45a.12.12 0 0 0 0-.06.59.59 0 0 0 -.06-.41c-.42-.86-2.23-2.26-5.22-3.3a14.62 14.62 0 0 0 -4.65-.9z"/><path d="m102.57 190.44h-.33c-3.72-.16-6.92-3.13-9.5-8.84-2-4.38-3.64-10.39-4.9-17.88a176.82 176.82 0 0 1 -2.14-20.57h1.17a175.64 175.64 0 0 0 2.13 20.37c1.24 7.38 2.86 13.3 4.81 17.59 2.38 5.27 5.24 8 8.48 8.15h.27c5.59 0 12.53-7.34 20.64-21.81l60-119.86 1.05.52-.25.5-59.77 119.39c-8.45 15.1-15.54 22.44-21.66 22.44z"/><path d="m138.28 107.59v-.11a76.4 76.4 0 0 0 -10.55-19.21c-1-1.25-2-2.46-3-3.6a48.74 48.74 0 0 0 -16.27-11.89 45.71 45.71 0 0 0 -4.71-1.78 56.12 56.12 0 0 0 -21.33-2.39c-2 .15-4.06.38-6.1.71a73.4 73.4 0 0 0 -18.62 5.45h-.12-.13v-.59l-.25-.52a74.83 74.83 0 0 1 18.94-5.55c2.07-.33 4.15-.57 6.2-.72a57.43 57.43 0 0 1 21.77 2.44 48.12 48.12 0 0 1 4.78 1.83 50.05 50.05 0 0 1 16.66 12.17c1.06 1.16 2.1 2.4 3.07 3.67a77.26 77.26 0 0 1 10.7 19.5v.06z"/><path d="m152.59 111.32-.54-.08h-.62v-.1a43.1 43.1 0 0 0 .33-10.58 35.46 35.46 0 0 0 -9.25-20.56 46.87 46.87 0 0 0 -5.08-4.83 73.83 73.83 0 0 0 -20.76-11.49c-1.55-.58-3.15-1.15-4.77-1.68a143.23 143.23 0 0 0 -30.53-6.23l-.75-.06c-2 0-4.11 0-6.11.15-16.26.87-28.31 5.14-35.82 12.59-13.32 13.31-7.69 32.68-7.69 32.87l-1.12.34c-.06-.2-5.86-20.24 8-34 7.72-7.72 20-12 36.59-12.9 2-.1 4.11-.15 6.21-.15l.8.06a144.22 144.22 0 0 1 30.8 6.29c1.64.53 3.26 1.11 4.83 1.69a75 75 0 0 1 21.08 11.69 46.44 46.44 0 0 1 5.21 5 36.53 36.53 0 0 1 9.54 21.2 43.41 43.41 0 0 1 -.35 10.78z"/><path d="m102.63 204.91h-.42c-4.9-.13-9.77-2.74-14.06-7.54a36.25 36.25 0 0 1 -5-7.25 37.92 37.92 0 0 1 -2.19-5 137.41 137.41 0 0 1 -5-19.15c-2.15-10.57-3.5-20.62-3.75-22.53v-.21l1.16-.18v.24c.25 1.9 1.6 11.92 3.74 22.45a136.64 136.64 0 0 0 5 19 35.31 35.31 0 0 0 2.13 4.88c.08.16 7 13.86 18.09 14.16 8.85.25 17.91-7.81 27-23.93l66.53-127.47 1 .54-.16.29-66.42 127.15c-9.2 16.3-18.5 24.55-27.65 24.55z"/><path d="m73.72 112.15-.3-1.13c3-.83 6.42-1.52 9.71-2.19 5.87-1.19 11.94-2.43 16.59-4.52l.48 1.07c-4.77 2.15-10.91 3.39-16.84 4.6-3.42.7-6.65 1.35-9.64 2.17z"/><path d="m85.61 116.28v-1.18a36 36 0 0 0 12.09-2.87l.49 1.06a37.58 37.58 0 0 1 -12.58 2.99z"/><path d="m61.78 111.83-.47-1.08a112.18 112.18 0 0 1 15.38-5l.85-.24c.86-.23 1.83-.47 2.86-.73 3.87-1 8.7-2.16 11.31-3.94l.66 1c-2.79 1.9-7.72 3.12-11.69 4.11-1 .26-2 .49-2.83.72l-.85.24a110.81 110.81 0 0 0 -15.22 4.92z"/><path d="m63.21 101.88-.39-1.11c1.28-.46 2.56-1 3.79-1.55a36 36 0 0 1 7.44-2.58l.22 1.15a34.72 34.72 0 0 0 -7.19 2.51c-1.25.54-2.55 1.1-3.87 1.58z"/><path d="m98.37 125.93-.37-1.12a55.83 55.83 0 0 0 6.26-2.54l2.17-1c.67-.29 1.53-.71 2.43-1.16 2.82-1.4 6.33-3.13 8.42-3l-.08 1.17c-1.77-.12-5.27 1.61-7.82 2.87-.92.45-1.79.88-2.48 1.18l-2.15 1a57.88 57.88 0 0 1 -6.38 2.6z"/><path d="m79 166.79a8.3 8.3 0 0 1 -2.66-.41l.37-1.11c3 1 6.6-.36 9.77-1.56l1.76-.65.19-.06.21-.07.36 1.07-.24.08-.17.06-1.74.64c-2.48.97-5.22 2.01-7.85 2.01z"/><path d="m82.37 185.53c-.33 0-.65 0-1-.05l.07-.56v-.61h.07c3.48.39 8.21-1.8 11.47-3.48l.53-.28.54 1-.53.28c-3.09 1.65-7.52 3.7-11.15 3.7z"/><path d="m179.47 84.72-.11-.1c-.79-.69-.88-.76-1.24-.84l-1.22-.22a13.13 13.13 0 0 1 -3-.75 12.89 12.89 0 0 1 -3.43-2.41 19.22 19.22 0 0 0 -2.05-1.65h-.08l-.17-.17.41-.41v-.6h.18l.14.09a19 19 0 0 1 2.35 1.85 11.63 11.63 0 0 0 3.11 2.21 12 12 0 0 0 2.74.68c.42.07.85.14 1.27.23.68.14.95.38 1.77 1.1l.11.1z"/><path d="m177.23 89.29a37.68 37.68 0 0 1 -5.77-1.74 20.43 20.43 0 0 1 -5.57-4.48v-.06l.8-.86.1.11a19.43 19.43 0 0 0 5.21 4.24 36.9 36.9 0 0 0 5.51 1.64z"/><path d="m174.63 93.26a7.59 7.59 0 0 0 -2.48-.65 13.56 13.56 0 0 1 -2.92-.72 25.53 25.53 0 0 1 -5.89-3.55l.74-.91a24.54 24.54 0 0 0 5.62 3.39 13.08 13.08 0 0 0 2.65.63 6.82 6.82 0 0 1 3.05.93z"/><path d="m173.05 96.89a37.13 37.13 0 0 1 -3.57-1.77c-2.47-1.32-5.54-3-7.58-3.17h-.15l.14-1.17h.11c2.25.22 5.3 1.86 8 3.3a37.86 37.86 0 0 0 3.43 1.7z"/><path d="m49.5 76c-1.26-.81-2.57-1.62-3.83-2.39-2.59-1.59-5.27-3.24-7.75-5.11l-.19-.15.73-.92.18.14c2.42 1.83 5.08 3.46 7.64 5 1.27.78 2.58 1.58 3.86 2.41z"/><path d="m139.2 107.72-.5-1.06c1.25-.6 2.57-1.19 3.85-1.75a59.18 59.18 0 0 0 9.45-4.91l.1-.07.66 1-.1.07a61.13 61.13 0 0 1 -9.64 5c-1.26.54-2.58 1.13-3.82 1.72z"/><path d="m76.74 69-1.06-.49c.69-1.66-.54-11.69-1.54-12.71l-.09-.08.37-.38.29-.57.14.09c1.68 1.38 2.65 12.32 1.92 14.1z"/><path d="m81.78 67.87v-1a56.55 56.55 0 0 0 -.93-11.5l1.15-.27a57.87 57.87 0 0 1 1 11.74v1z"/><path d="m109.19 72.39-.88-.77c1-1.08 2.12-2.17 3.24-3.23a24.53 24.53 0 0 0 4.75-5.33l1 .56a25.29 25.29 0 0 1 -5 5.63c-1.05 1.03-2.19 2.1-3.11 3.14z"/><path d="m104.47 70.52-.88-.77c1-1.09 2.11-2.18 3.24-3.24a25.67 25.67 0 0 0 4.66-5.18v-.08l.17-.18.42.4h.59v.16l-.07.13a25.57 25.57 0 0 1 -5 5.61c-1.07 1.03-2.22 2.11-3.13 3.15z"/><path d="m125.73 84.5-.68-1c.9-.63 1.89-1.43 3-2.27 1.29-1 2.62-2.1 4-3 1.1-.75 2.68-1.91 3.95-2.84l1.55-1.14.68 1-1.54 1.12c-1.27.94-2.86 2.11-4 2.87-1.3.89-2.62 1.94-3.89 3-1.14.81-2.15 1.62-3.07 2.26z"/><path d="m128.14 88.61-.66-1c.12-.09.25-.17.38-.25a48.18 48.18 0 0 1 4.54-2.36c1.17-.58 2.27-1.12 3.32-1.73.69-.39 1.4-.76 2.08-1.11s1.19-.62 1.76-.94l.67-.36a16.54 16.54 0 0 0 1.9-1.12.53.53 0 0 0 0 .63.54.54 0 0 0 .33.19v-1.23a.71.71 0 0 1 .61.27l.16.21-.05.31c-.08.41-.45.67-2.41 1.72l-.64.35c-.59.33-1.19.64-1.8 1s-1.37.71-2 1.09c-1.08.62-2.25 1.2-3.39 1.76a46.28 46.28 0 0 0 -4.45 2.4z"/><path d="m29 126.9c-1.9 0-3.86-.07-5.78 0-4.69.26-9.48.18-14.1.11-1.56-.01-3.12-.01-4.68-.01a6.57 6.57 0 0 1 -.07 1.17l4.72.06c4.65.07 9.45.15 14.18-.11 1.88-.1 3.82-.07 5.7 0h2.87v-1.17c-.95-.02-1.9-.04-2.84-.05z"/><path d="m216.12 136.79a50.14 50.14 0 0 1 -5.23.3c-2.43 0-4.89.08-7.27.16a110 110 0 0 1 -14.18-.15 58.18 58.18 0 0 1 -9.65-2.09 52.26 52.26 0 0 0 -11.21-2.21c-4.43-.22-12.49.55-16.55 3.55a7.72 7.72 0 0 0 -1.42 1.36l.93.72a6.21 6.21 0 0 1 1.19-1.14c3.81-2.82 11.54-3.53 15.8-3.32a50.83 50.83 0 0 1 10.95 2.17 58.36 58.36 0 0 0 9.84 2.12 71.79 71.79 0 0 0 7.19.32c2.4 0 4.8-.08 7.15-.16s4.81-.15 7.23-.15c1.77 0 3.51-.13 5.22-.3a5.18 5.18 0 0 1 .01-1.18z"/><path d="m191.73 41.71a7.24 7.24 0 1 1 7.27-7.24 7.24 7.24 0 0 1 -7.27 7.24zm0-13.29a6.06 6.06 0 1 0 6.06 6 6.06 6.06 0 0 0 -6.06-6z"/><path d="m212.64 33.3a9.77 9.77 0 1 1 9.77-9.77 9.78 9.78 0 0 1 -9.77 9.77zm0-18.37a8.6 8.6 0 1 0 8.6 8.6 8.61 8.61 0 0 0 -8.6-8.6z"/><path d="m211.22 31.26c-4.22-2.26-6.22-5.54-5.66-9.55.49-3.4 5.09-6.06 6.83-6.23l.1 1.17c-1.43.14-5.39 2.59-5.77 5.23-.5 3.52 1.2 6.32 5.05 8.34z" fill="#f9f9f9"/><path d="m190.19 39.15c-2.6-.94-3.5-3.9-3-6.21s1.95-3.5 3.83-3.41l-.06 1.17a2.7 2.7 0 0 0 -2.62 2.47c-.37 1.83.31 4.16 2.29 4.88z"/><path d="m22.81 156a1.35 1.35 0 0 0 -.22-.35l.89-.77a2.64 2.64 0 0 1 .43.71z"/><path d="m30.1 185a2.77 2.77 0 0 1 -.93-.18c-2.92-1-3.21-1.74-3.18-3.19a5.8 5.8 0 0 0 -.06-1.07 5.93 5.93 0 0 0 -1.1-2.78 7.56 7.56 0 0 1 -1.29-3 18.91 18.91 0 0 1 -.27-2.52 10.37 10.37 0 0 0 -.52-3.35c-.63-1.23-1.7-1-3.54-.54a15.22 15.22 0 0 1 -1.92.41 63.14 63.14 0 0 1 -7.59.56c-.1 0-7.69-.11-8.32-2.48-.34-1.27 1.35-2.23 1.91-2.54a34.14 34.14 0 0 1 5.22-2.2 34.46 34.46 0 0 0 5-2.12 2.85 2.85 0 0 0 1.7-2c.26-1.88-2.23-4.4-4.65-6.84-3.08-3.11-6.26-6.33-4.14-8.89l.17-.21h.41c4.44 0 8.43 4.61 10.58 7.09.37.43.74.89 1.11 1.35.58.72 1.18 1.46 1.79 2.08a7.2 7.2 0 0 0 1.29.95 10.13 10.13 0 0 1 1.49 1.11c2.78-.49 6.32-3.76 8.94-6.17.7-.65 1.36-1.26 2-1.77a38.54 38.54 0 0 1 3.93-2.79c2.85-1.76 3.67-1.72 4.14-1.41a1 1 0 0 1 .31 1.3v.08c-1.39 2.94-2.76 5.39-4.64 8.63l-.94 1.49a38.06 38.06 0 0 0 -3.25 6.25 31 31 0 0 1 2.53 2c.73.62 1.49 1.27 2.33 1.86a15.29 15.29 0 0 0 1.49.84c1.86 1 4.17 2.2 4.46 3.8a1.39 1.39 0 0 1 -.42 1.31c-1.35 1.23-5.79.33-12-1.41l-.68-.19a16.9 16.9 0 0 0 0 3c.05.8.1 1.54.08 2.21a39.28 39.28 0 0 0 .28 6.27v.11c.19 1.65.43 3.7-.63 4.56a1.63 1.63 0 0 1 -1.09.39zm-8.82-18.2a2.59 2.59 0 0 1 2.51 1.56 10.67 10.67 0 0 1 .66 3.81 16 16 0 0 0 .24 2.34 6.34 6.34 0 0 0 1.11 2.62 7 7 0 0 1 1.28 3.23 5.65 5.65 0 0 1 .08 1.3c0 .88 0 1.24 2.39 2.07.28.09.66.18.86 0 .55-.44.32-2.43.2-3.5v-.11a41.54 41.54 0 0 1 -.28-6.45c0-.61 0-1.33-.08-2.09a12.28 12.28 0 0 1 .15-4l.16-.53.54.13 1.29.35c6.5 1.8 10.18 2.37 10.94 1.67 0 0 .08-.07 0-.23-.18-1-2.39-2.2-3.85-3a16.3 16.3 0 0 1 -1.61-.92c-.89-.62-1.67-1.29-2.42-1.93a26.92 26.92 0 0 0 -2.76-2.12l-.39-.24.15-.43a36.51 36.51 0 0 1 3.5-6.91l.89-1.5c1.83-3.14 3.16-5.53 4.51-8.36-1.24.32-4.85 2.67-6.44 4-.58.5-1.24 1.1-1.93 1.74-3 2.75-6.68 6.17-9.88 6.52h-.34l-.18-.21a7.24 7.24 0 0 0 -1.46-1.12 9.62 9.62 0 0 1 -1.49-1.11c-.65-.67-1.27-1.43-1.86-2.17-.36-.45-.72-.9-1.09-1.32-2-2.31-5.67-6.55-9.51-6.68-1.07 1.76 1.62 4.48 4.23 7.11s5.31 5.37 5 7.82a4 4 0 0 1 -2.25 2.8 34.57 34.57 0 0 1 -5.22 2.2 33 33 0 0 0 -5 2.12c-1.2.68-1.39 1.11-1.36 1.22.16.61 3.53 1.61 7.09 1.61h.1a64.92 64.92 0 0 0 7.44-.55 14.57 14.57 0 0 0 1.78-.39 9.74 9.74 0 0 1 2.3-.35z"/><path d="m52.17 138.27h5.86v1.17h-5.86z"/><path d="m70.35 134.75h6.45v1.17h-6.45z"/><path d="m26.1 133.59a31.62 31.62 0 0 1 -5.7-.61l.21-1.15a27.93 27.93 0 0 0 6.32.57l.05 1.17c-.3.02-.59.02-.88.02z"/><path d="m56.71 153.73a6.37 6.37 0 0 1 -4.35-1.54l.78-.87a5.94 5.94 0 0 0 5.35 1l.25 1.15a9.72 9.72 0 0 1 -2.03.26z"/><path d="m97.32 159.96h4.1v1.17h-4.1z"/><path d="m159.91 153.49a48.4 48.4 0 0 1 -5.34-1.78l.43-1.09a47.63 47.63 0 0 0 5.22 1.74z"/><path d="m163.79 143.5-.42-1.09a12.45 12.45 0 0 1 6.16-.62l-.17 1.16a11.28 11.28 0 0 0 -5.57.55z"/><path d="m174.33 154.8c-1.26 0-2.59-.23-3.05-1l1-.6c.17.26 1.57.59 3.51.31l.17 1.16a11.38 11.38 0 0 1 -1.63.13z"/><path d="m180.59 142.96h4.69v1.17h-4.69z"/><path d="m152.14 165.17-.57-1a15.57 15.57 0 0 1 6.25-1.49c.91-.09 1.84-.18 2.73-.33l.2 1.15c-.94.17-1.89.26-2.81.34a14.37 14.37 0 0 0 -5.8 1.33z"/><path d="m172.96 165.24h4.69v1.17h-4.69z"/><path d="m187.62 153.51h7.04v1.17h-7.04z"/><path d="m111.39 166.41h3.52v1.17h-3.52z"/><path d="m44.54 165.24h5.28v1.17h-5.28z"/><path d="m65.07 158.79h5.28v1.17h-5.28z"/><path d="m203.46 143.54h5.86v1.17h-5.86z"/><path d="m37.57 124.65a47.27 47.27 0 0 1 -3.35-9.91c-.58-3.08.16-6.63.71-9.23 1.16-5.58 4.25-12.68 8.51-16l.72.93c-4 3.1-7 10.1-8.09 15.29-.52 2.5-1.23 5.92-.7 8.77a47.43 47.43 0 0 0 3.25 9.62z" fill="#fff"/></svg>