<svg viewBox="0 0 224 224" xmlns="http://www.w3.org/2000/svg"><path d="m190.78 140.17 2.58 4.42c-.43.47-1 1-1.71 1.66-1 .88-2.05 1.83-3 2.69-.51.48-1 .93-1.29 1.31-2-2.4-5.54-5.55-7.72-7.78l.66-9.71a19.94 19.94 0 0 1 10.48 7.41z"/><path d="m178.43 132.61-1.28 9.86-12.63-.63v-9.07l3.58 1a7.29 7.29 0 0 0 9.33-.76 2.25 2.25 0 0 1 1-.4z"/><path d="m177.75 194.61a6.11 6.11 0 0 0 2.51-.23 2.26 2.26 0 0 0 0-.26h.16c1.12-1.59 4.19-3.05 5.35-.7.2.42.72 2.3.34 2.68s-1.33.12-1.67.12a20.65 20.65 0 0 0 -2.36 0c-.4.05-.84.13-1.29.2h-2.55a1.53 1.53 0 0 1 -.73-.69c-.14-.27-.28-1.31-.37-1.31l.25-.17a.57.57 0 0 0 .36.36z"/><path d="m176.48 113.53a.89.89 0 1 1 -.89.88.88.88 0 0 1 .89-.88z"/><circle cx="175.14" cy="146.27" r="1.74"/><path d="m166.26 143.88a1.74 1.74 0 1 1 -1.74 1.74 1.73 1.73 0 0 1 1.74-1.74z"/><path d="m166.76 113.14a.89.89 0 0 1 0 1.77.89.89 0 1 1 0-1.77z"/><path d="m153.73 131 .54-1.05 8.34 2.27-.09.34-.64 10.55c-3.78-1.2-8.3-3.7-12-5a6.73 6.73 0 0 1 .41-1.27 17 17 0 0 1 2.37-3.65z"/><path d="m163.34 107.86c-1.43 1.23-1.47 4.07-1.28 5.66h-.06c-.81-2.08-2.06-2.1-2.4 1.22s2.67 3.15 2.67 3.15l1.88 7a11.71 11.71 0 0 0 .52 1.12l-.2.11a9.75 9.75 0 0 0 -2.16 0c-.64.17-.94.78-1.72.65s-1.21-1.16-2-1.4a8.93 8.93 0 0 0 -2.47.11 3.49 3.49 0 0 1 -2.37-.64c-.69-.52-1.08-1.63-1.82-2-1.08-.46-3.65.85-3.34-1.28.15-1.11 1.22-1.61 1.83-2.37s.39-1.87 1.1-2.55c.34-.34.86-.52 1.23-.89a12.35 12.35 0 0 0 1.32-1.48 16 16 0 0 0 1.86-4.33c.9-2.61 3.84-2.88 5.06-5.57a7.5 7.5 0 0 1 6.18-4.51c1 0 .78.07 1.53-.45a11.09 11.09 0 0 1 1.56-1.13 6.52 6.52 0 0 1 3.9-.39c1.87.38 3.59 1.75 5.4 2.28a12.92 12.92 0 0 1 8.1 7.21 46.22 46.22 0 0 0 2.88 5.14c.76 1.17 2.24 2.11 2.61 3.46.44 1.62-.2 3.39 0 5 .16 1.49.77 1.7 1.59 2.72a2.13 2.13 0 0 1 .22 2.42c-.72 1.06-2 .5-3 .35-1.22-.2-2.39-.81-3.71-.52s-1.53 1.49-2.82 1.37c-.93-.08-1.52-.64-2.48-.43-1.15.26-1.37.64-2.49-.07-.53-.33-.83-.8-1.49-.79a16.79 16.79 0 0 0 2.88-7.89c1.7 2.91 2.47-3.19 2.47-3.19.33-3.85-2.31-1.62-2.31-1.62a20.29 20.29 0 0 0 .56-7.79 6.54 6.54 0 0 0 -1.78 1.12c-.49.55-.76 1.5-1.48 1.63-1.05.21-1-.69-1.58-1.1-1.28-.82-.93.61-1.64 1.22-1.81 1.54-3.48-2.53-5.14-1.28-.75.57-.52 1.85-1.64 1.62-.9-.17-1.28-1.59-2.24-1.51-.8 3.6-2.41-.5-3.73.62z"/><path d="m163.92 194.72a1.22 1.22 0 0 1 -.28.9 2.47 2.47 0 0 1 -1.37.4h-.62c-1.57.09-3.17.21-4.76.27l-1.42.06c-.44 0-1 .23-1-.23-.05-.64 1-1.85 1.41-2.29a4.47 4.47 0 0 1 2.85-1.57 2.35 2.35 0 0 1 1.34.38c.24.14 1.06.9 1.14.58h.16v.06c0 .38-.12.44.32.59a5 5 0 0 0 .86.06l.86.05c.4 0 .47 0 .6-.2a3.55 3.55 0 0 1 -.09.94z"/><path d="m136.9 166a1.78 1.78 0 0 0 1.16.56c.79.66.9 1.72-.37 2.79-1.52 1.3-3.09.22-3.91-1.15-.07-.15-.15-.29-.23-.44a8.83 8.83 0 0 0 3.76-7.23 8.72 8.72 0 0 0 -1.91-5.47c1-1.72 3.72-3.35 6.17-2 2.92 1.63-.6 3.58-2.53 4.28 2.07 0 3.53-.06 3.68 2.35a2.8 2.8 0 0 1 -2.56 3 2.67 2.67 0 0 0 -1.33-.21 2.82 2.82 0 0 0 1.33.21c.82.37 1.28 1.23.61 2.64a2.62 2.62 0 0 1 -2.72 1.23 3 3 0 0 0 -1.15-.56z"/><path d="m133.78 168.22c.86 1.75 1.29 3.48-1.32 4.06-3.05.68-3.28-.55-4.28-2.05a7 7 0 0 1 .36-.85 8.78 8.78 0 0 0 5-1.6 3.75 3.75 0 0 0 .24.44z"/><circle cx="131.77" cy="158.13" r="1.09"/><path d="m128.12 184.48h-.12v-.48c1.41-1.54 3.38-7.11 5.88-6.56 2.24.49-1.33 3.4-2.08 4.16-1 1-2.25 2.69-3.61 3.08a.79.79 0 0 1 -.07-.2z"/><path d="m119.68 161.19a8.82 8.82 0 0 0 8.8 8.19h.06a7 7 0 0 0 -.36.85c-.09-.13-.18-.26-.29-.4-.82 1.7-.58 2.58-2.74 3.08-3.22.76-3.24-.75-3.07-2.48-.8 2.25-2.66 1.43-4.46-.46-2.64-2.75.11-3.38 1.62-4.5-1.55.26-3.24 2.12-4.1-.47s2.61-3.9 4.49-3.82z"/><path d="m121.73 179.06c1.55-1.94 4.82 3 5.9 5a5.37 5.37 0 0 1 -3.48-1.16c-.77-.63-3.24-2.82-2.42-3.84z"/><path d="m124.71 157a1.09 1.09 0 1 1 -1.09 1.09 1.09 1.09 0 0 1 1.09-1.09z"/><path d="m127.83 151.75a8.76 8.76 0 0 0 -3.18.84l-.5-.06c.21-1.29-1.7-4.22.66-5.05 2.06-.73 3.31 2.15 3.16 3.92-.05.12-.09.24-.14.35z"/><path d="m123.62 153.18a8.82 8.82 0 0 0 -3.32 4c-1.69-1.47-4.11-4.23-2.33-6.36 2.21-2.58 4.9-.53 5.65 2.36z"/><path d="m119.68 161.18h-.05c-1.85-.13-2-.53-3.88-.63-3.66 0-2.13-3-.3-4 1.33-.8 3.6 0 4.84.74a8.82 8.82 0 0 0 -.64 3.3q0 .27.03.59z"/><path d="m82.47 186.63-5-.3-4.66-.28.06-63.48c.13.23 5.35.29 11.43.28 8.67 0 19.09-.14 19.09-.14l6.13 62.81-4.61.25-6.42.35-5.41.3-3.58-41.15-2.5 41.64z"/><path d="m68.72 24.4c.16 1.9-.07 5.39-1.7 5.38-.9-5.88-1.76-19.45 8.85-22 0 0 22.89-6.11 26.24 9.79a32.85 32.85 0 0 1 -.82 13.75c0-.69-2.09-3.41-2.68-4.16a7.13 7.13 0 0 1 -.83 2.8c-1.39-1.79-1.25-4.4-2.58-6.28s-3.67-2.68-5.48-3.68c.32 1.14 1.16 2.47 1.29 3.65-2.91 0-8.65-2.11-10-4.88.4 1.17 1.21 2.57 1.21 3.9-2.8-2.37-6-3.41-8.68-6.34-.39 3.38-2.45 6.48-3.13 9.93a2.75 2.75 0 0 1 -1.69-1.86zm0 0a6.19 6.19 0 0 0 -.13-.89 3.09 3.09 0 0 0 .13.89z"/><path d="m111.16 199.49c1 1.11-.12 3.75-1.46 4.08s-3.63-.91-5-1.48c-1.61-.7-5.62-1.48-6.19-3.33a2.21 2.21 0 0 1 .63-2.08h.19a1.78 1.78 0 0 0 .11.73c.4.85 2.47 1.4 3.36 1.89l.81.46c1 .58 2 1.2 3 1.76 1.74 1 3.3.83 4-.15a2.55 2.55 0 0 0 .44-1.87z"/><path d="m95.94 90.28a1.05 1.05 0 1 1 -1.13 1 1.06 1.06 0 0 1 1.13-1z"/><path d="m94.9 87.66a1.05 1.05 0 0 1 1 1.13 1.05 1.05 0 1 1 -2.1-.17 1.05 1.05 0 0 1 1.1-.96z"/><path d="m93 85.24a1.05 1.05 0 0 1 -.18 2.1 1.05 1.05 0 0 1 .18-2.1z"/><path d="m93 90.28a1.05 1.05 0 1 1 -1.13 1 1.06 1.06 0 0 1 1.13-1z"/><path d="m91.28 87.66a1.05 1.05 0 0 1 -.17 2.1 1.05 1.05 0 0 1 .17-2.1z"/><path d="m89.68 90.28a1.05 1.05 0 1 1 -1.13 1 1 1 0 0 1 1.13-1z"/><path d="m81.29 92.35a1.47 1.47 0 1 1 -1.56 1.38 1.47 1.47 0 0 1 1.56-1.38z"/><path d="m81.07 111.58a1.47 1.47 0 1 1 -1.56 1.42 1.47 1.47 0 0 1 1.56-1.42z"/><path d="m80.85 75.54a1.47 1.47 0 1 1 -1.56 1.38 1.48 1.48 0 0 1 1.56-1.38z"/><path d="m82.81 199.48a4.32 4.32 0 0 1 -.19 1.1 5.65 5.65 0 0 1 -2.21 2.89c-1.76 1.25-5.46 3.19-7 1.18 1.26.64 2.86-.28 3.9-.77a8.75 8.75 0 0 0 3.22-2.27 6.62 6.62 0 0 0 1.27-3.92c0-.49.06-1 .08-1.46.81.54 1 2.09.93 3.25z"/><path d="m61.49 164.81c3.64.64 5 10.79 3.68 13.34-.94 1.84-2.53 3.22-3.51 5a9.16 9.16 0 0 0 -.46 1l-1.1-.35-1.43 1.43-1.18-.1c.08-1 .12-2.1.19-3.22.17-3 2.33-5.49 3.25-8.31 1-3.1-.14-5.72.56-8.83z"/><path d="m49.27 200.43a1.59 1.59 0 0 1 .42-.14c.1-.6.23-1.15.35-1.69a7.54 7.54 0 0 0 1.19-2.1 15.46 15.46 0 0 0 .39-4.5c0-2.51-1.58-4.4-1.88-6.71a5.19 5.19 0 0 1 0-1.25c.28-2.8 1.36-5.41 1.39-8.31a40.12 40.12 0 0 0 -.13-4.17l.53-.05a17.8 17.8 0 0 1 2.15-2.44h.58a46.21 46.21 0 0 1 -.53 5.42 8.43 8.43 0 0 0 .17 4.15 10 10 0 0 0 .9 1.64 7 7 0 0 1 1 2c1.53 5.79-3.86 12.36-3 17.84-1.24.15-2.38.24-3.53.31z"/><path d="m52.7 200.15c.19-.77 1.31-.54 1.35-1.39.14-3.14 1.33-5.58 2.42-8.49a17.71 17.71 0 0 0 1-5.09l1.18.1 1.43-1.43 1.1.35a10.77 10.77 0 0 0 -.36 5.17c.27 2.68-.74 4-2.5 6.09a17.49 17.49 0 0 0 -2.26 2.6 8.27 8.27 0 0 1 -2.51 1.94v.06z"/><path d="m50.24 166.94a18.09 18.09 0 0 1 -.88-4.18c0-1.72 1-2.88 1-4.58a2.67 2.67 0 0 1 .55.07c2.76.63 3.18 5.15 3.29 7.44.05 1.18.06 2.3 0 3.41h-.58a17.8 17.8 0 0 0 -2.15 2.44l-.53.05a31.34 31.34 0 0 0 -.7-4.65z"/><path d="m43.66 193.38c-2.27-2.25-2.92-4.16-3.77-7.09-1.69-5.84-8.38-8.49-7.65-15.23a4.55 4.55 0 0 1 .66-2c1.34.2 2 1.58 3.1 2.23 1.53.85 2.59.72 3.29 2.55 1.07 2.77.4 5.3 2.46 7.79a14.51 14.51 0 0 1 2.48 3.29c.61 1.41.53 3 1 4.46.92 2.91 3.31 4.84 3.94 7.87a7.25 7.25 0 0 1 .27 2.61h.09a3 3 0 0 1 .47-1.26c-.12.54-.25 1.09-.35 1.69a1.59 1.59 0 0 0 -.42.14h-.77c-.68-2.22-3.41-5.68-4.8-7.05z"/><path d="m83.07 59.92a14.29 14.29 0 0 1 -3.93-.53c-3.84-1.1-6.68-3.9-8.44-8.32l-3.11-11.6a5.11 5.11 0 0 1 -3.46-1.47 5.31 5.31 0 0 1 -1.19-4.4c.28-2.76 1-4.24 2.07-4.39a1.89 1.89 0 0 1 1.61.8v-.16c-.92-5.85-1.83-19.85 9.15-22.48a40.74 40.74 0 0 1 7.41-1.1c3.85-.22 9.32.05 13.47 2.6a12.77 12.77 0 0 1 5.88 8.62 32.28 32.28 0 0 1 -.53 12.92 2.81 2.81 0 0 1 2.54-.34c1 .5 1.32 1.84 1.13 4.12-.14 1.13-1 6.73-2.9 7.13a1.55 1.55 0 0 1 -1.42-.58c-.44 3.22-2.32 12.4-9.68 17l-.87.51a20 20 0 0 1 -7.73 1.67zm-11.56-9.14c1.66 4.14 4.3 6.76 7.87 7.78 5.32 1.54 10.93-1 11-1.05.22-.13.49-.28.79-.47 8.47-5.32 9.39-17.37 9.4-17.49l.1-1.4.7 1.21c.45.77.89 1.18 1.19 1.12 1-.2 1.9-3.93 2.21-6.39.16-1.79-.08-3-.67-3.25-.75-.39-2.12.54-2.55.89l-1.18 1 .5-1.47s0-.05 0-.07a32.77 32.77 0 0 0 .81-13.52 11.93 11.93 0 0 0 -5.48-8.06c-7.61-4.69-20.09-1.44-20.2-1.41-10.29 2.47-9.39 15.87-8.53 21.51.14.93.31 1.81.49 2.61v.17h-.43l-.39.17v-.06c-.73-1.84-1.53-2.61-2-2.55s-1.06 1.05-1.32 3.63a4.5 4.5 0 0 0 .94 3.71 4.44 4.44 0 0 0 3.15 1.17h.35l.09.33z"/><path d="m101.66 31.57-.66-.27h-.17c0-.12-.17-.7-2-3.07a6.91 6.91 0 0 1 -.73 2l-.32.56-.39-.51a9.23 9.23 0 0 1 -1.39-3.37 8.78 8.78 0 0 0 -1.19-3c-.93-1.32-2.66-2.18-4.17-2.94l-.17-.08.18.4a8.87 8.87 0 0 1 .76 2.32v.49h-.41a16.72 16.72 0 0 1 -8.74-3.19 5.52 5.52 0 0 1 .35 1.78v.93l-.7-.6a28.17 28.17 0 0 0 -3.58-2.46 24.51 24.51 0 0 1 -4.53-3.29 25.26 25.26 0 0 1 -1.5 4.55 25.26 25.26 0 0 0 -1.5 4.55l-.09.47-.46-.14a3.17 3.17 0 0 1 -1.94-2.2l.82-.24a2.71 2.71 0 0 0 .94 1.4 30.44 30.44 0 0 1 1.43-4.16 20.82 20.82 0 0 0 1.59-5.2l.11-.94.63.7a21.13 21.13 0 0 0 5 3.76c.94.58 1.9 1.17 2.83 1.87a11.52 11.52 0 0 0 -.66-1.69c-.15-.37-.3-.72-.42-1.07l.79-.33c1.2 2.39 6.13 4.38 9.13 4.62a11.71 11.71 0 0 0 -.6-1.57 13.17 13.17 0 0 1 -.59-1.52l-.27-1 .89.48 1.13.57a11.91 11.91 0 0 1 4.5 3.21 10.09 10.09 0 0 1 1.31 3.24 11.92 11.92 0 0 0 .86 2.42 7 7 0 0 0 .46-2l.11-1.06.66.84c2.5 3.17 2.8 4 2.77 4.45a.89.89 0 0 1 -.07.29z"/><path d="m69.5 28.62-1.19-4.1a3.34 3.34 0 0 1 -.15-1v-3.36l.8 3.26a6.47 6.47 0 0 1 .14.95z"/><path d="m69.15 24.4h-.86z"/><path d="m67 30.21a1.15 1.15 0 0 1 -.33 0l.18-.84h.15a.64.64 0 0 0 .5-.25c.69-.74.91-3 .76-4.66l.86-.07c.12 1.44.06 4.19-1 5.32a1.54 1.54 0 0 1 -1.12.5z"/><path d="m83.52 45.7h-.87l.06-.86c1.33.1 2.13 0 2.39-.34s0-1.29-.31-2.46c-.07-.26-.15-.53-.23-.82a20.27 20.27 0 0 1 -.68-7.74l.85.13a18.41 18.41 0 0 0 .66 7.39c.07.28.15.55.23.81.42 1.46.73 2.52.15 3.24-.39.44-1.08.65-2.25.65z"/><path d="m74.42 28.93-.71-.5a4.45 4.45 0 0 1 3.44-1.76 2.51 2.51 0 0 1 2.16 1.16l-.72.47a1.67 1.67 0 0 0 -1.45-.77 3.57 3.57 0 0 0 -2.72 1.4z"/><path d="m94 29.44a3 3 0 0 0 -2.2-1 2.11 2.11 0 0 0 -1.65.72l-.66-.55a3 3 0 0 1 2.3-1 3.77 3.77 0 0 1 2.89 1.3z"/><path d="m73.22 26.08-.58-2.52a10.5 10.5 0 0 0 1.63-.56 6.31 6.31 0 0 1 5.24-.37l-.9 2.37a3.83 3.83 0 0 0 -3.34.33 12.82 12.82 0 0 1 -2.05.75z"/><path d="m88.58 25.79-.2-2.57a9.82 9.82 0 0 0 1.7-.33 6.36 6.36 0 0 1 5.24.43l-1.26 2.26a3.84 3.84 0 0 0 -3.35-.18 12.71 12.71 0 0 1 -2.13.39z"/><path d="m83.16 52.07a3.52 3.52 0 0 1 -.66-.07 2.13 2.13 0 0 1 -1.89-2.14h.86a1.29 1.29 0 0 0 1.19 1.32 3.63 3.63 0 0 0 3.61-1.59l.79.34c-.56 1.33-2.39 2.14-3.9 2.14z"/><path d="m84.51 69.47a11.67 11.67 0 0 1 -1.32-.07 14.79 14.79 0 0 1 -7.19-2.64l-.39-.29.34-.35c1.89-2 2.71-6.35 2.85-7.21v-.16l.85.13v.17c-.2 1.2-1 5.1-2.75 7.29a14.47 14.47 0 0 0 6.34 2.21 14 14 0 0 0 10.49-3.62c-1.08-1-3.89-4-2.78-7.65a3.71 3.71 0 0 1 .24-.66l.81.38a4.25 4.25 0 0 0 -.21.56c-1.16 3.83 2.84 7 2.88 7.07l.41.32-.39.34a15.22 15.22 0 0 1 -10.18 4.18z"/><path d="m171.17 130.4a8.8 8.8 0 0 1 -1.6-.14 7.31 7.31 0 0 1 -5.3-4 11.16 11.16 0 0 1 -.54-1.16l-1.8-6.7a3.16 3.16 0 0 1 -2-.89 3.3 3.3 0 0 1 -.74-2.73c.19-1.91.69-2.93 1.48-3 .39 0 1.12.1 1.74 1.7l-.8.31c-.35-.9-.71-1.18-.83-1.16s-.56.48-.74 2.28a2.49 2.49 0 0 0 .51 2 2.46 2.46 0 0 0 1.71.64h.35l.09.33 1.87 7a10.18 10.18 0 0 0 .49 1.06 6.49 6.49 0 0 0 4.69 3.57 10.64 10.64 0 0 0 5.67-.77l.37-.22a9.66 9.66 0 0 0 2.73-2.54 16.38 16.38 0 0 0 2.8-7.66l.1-1.4.7 1.21c.29.5.48.59.51.58.38-.08.94-1.83 1.17-3.61.11-1.4-.21-1.68-.31-1.74-.31-.16-1 .25-1.3.51l-1 .87.33-1.31a20 20 0 0 0 .55-7.61c0-.21 0-.32 0-.32l.84-.19.06.38a20.05 20.05 0 0 1 -.33 7 1.59 1.59 0 0 1 1.33 0c.63.33.88 1.18.76 2.59-.16 1.24-.65 4.12-1.85 4.36a.93.93 0 0 1 -.74-.18 16.67 16.67 0 0 1 -2.85 7.12 10.41 10.41 0 0 1 -3 2.77l-.43.25a11.84 11.84 0 0 1 -4.69.8z"/><path d="m166.23 112.09-.71-.5a2.79 2.79 0 0 1 2.17-1.11 1.68 1.68 0 0 1 1.42.76l-.72.47a.79.79 0 0 0 -.71-.37 1.89 1.89 0 0 0 -1.45.75z"/><path d="m177.48 112.4a1.51 1.51 0 0 0 -1.16-.53 1.1 1.1 0 0 0 -.85.36l-.66-.55a2 2 0 0 1 1.51-.67 2.42 2.42 0 0 1 1.81.83z"/><path d="m171.24 125.78a2.12 2.12 0 0 1 -.44 0 1.44 1.44 0 0 1 -1.25-1.43h.86a.57.57 0 0 0 .55.6 2 2 0 0 0 1.93-.82l.79.33a2.71 2.71 0 0 1 -2.44 1.32z"/><path d="m172.34 135.51a8 8 0 0 1 -4.5-1.43l-.38-.29.33-.35a8.14 8.14 0 0 0 1.43-3.67l.85.12a10.36 10.36 0 0 1 -1.33 3.76 6.72 6.72 0 0 0 8-.68 4 4 0 0 1 -1.18-4.35l.79.34c-.83 1.92 1.22 3.6 1.31 3.67l.33.33-.34.31a8 8 0 0 1 -5.31 2.24z"/><path d="m83.6 123.28c-10.83 0-10.94-.18-11.12-.49-.29-.51-.63-19.21-.88-35.58l-3.72 7.62-8.88-2.06.09-.41c3.08-14.71 16.79-26.16 16.91-26.27l.55.66c-.12.11-13.35 11.17-16.55 25.37l7.38 1.72 5-10.24v1.8c.2 13.78.57 34.36.8 36.83.64.09 2.94.19 10.47.19h.57c7.56 0 16.56-.11 18.64-.14l-1.51-38.28 5.85 7.84 7.88-6.59c-1.5-2.54-12-19.78-20.67-19.84v-.91c4.16 0 9.07 3.52 14.58 10.37a88.11 88.11 0 0 1 7 10.22l.18.31-9.11 7.6-4.73-6.34 1.49 36.44h-.44c-.11 0-10.53.14-19.1.14z"/><path d="m51.19 128.6a.78.78 0 0 1 -.22 0 1.93 1.93 0 0 1 -1.11-2.18 9.43 9.43 0 0 1 .59-2.23 11.69 11.69 0 0 0 .53-1.85 12.56 12.56 0 0 1 1.12-3.73 13 13 0 0 0 1.08-3.61 15.93 15.93 0 0 1 .9-3.24 41.25 41.25 0 0 0 1.64-5c.32-1.12.65-2.27 1.05-3.43.21-.62.41-1.25.61-1.89.42-1.3.85-2.65 1.39-3.92a20.73 20.73 0 0 0 .95-3.36 6.28 6.28 0 0 1 .28-.66 4.37 4.37 0 0 0 .2-.68l.8.18a5.78 5.78 0 0 1 -.24.8 5.24 5.24 0 0 0 -.2.64 21.44 21.44 0 0 1 -1 3.51c-.52 1.23-1 2.56-1.36 3.84-.2.65-.4 1.28-.62 1.91-.39 1.14-.72 2.28-1 3.38a45.4 45.4 0 0 1 -1.67 5.07 15.57 15.57 0 0 0 -.86 3.08 13.82 13.82 0 0 1 -1.18 3.77 11.83 11.83 0 0 0 -1 3.49 13.35 13.35 0 0 1 -.57 2 9.42 9.42 0 0 0 -.55 2 1.43 1.43 0 0 0 .31 1.15c.09.09.15.11.17.11s0 0 .06-.11a1.3 1.3 0 0 0 .07-.43 10.63 10.63 0 0 1 .38-2 15.62 15.62 0 0 0 .37-1.83l.86.1a15.79 15.79 0 0 1 -.4 1.93 11.2 11.2 0 0 0 -.35 1.85 2.06 2.06 0 0 1 -.13.72 1 1 0 0 1 -.9.62z"/><path d="m52.92 123.48-.85-.13a1.43 1.43 0 0 0 0-.29h.93a1.27 1.27 0 0 1 -.08.42z"/><path d="m52.61 129.26a1.34 1.34 0 0 1 -.7-.21 1.58 1.58 0 0 1 -.69-1.21 9.93 9.93 0 0 1 .58-3.43c.12-.44.23-.82.28-1.09l.85.16c-.06.3-.17.7-.31 1.16a9.45 9.45 0 0 0 -.54 3.09c.05.45.22.55.28.58a.34.34 0 0 0 .3.08 1 1 0 0 0 .43-.52l.78.36a1.72 1.72 0 0 1 -1 1 1.28 1.28 0 0 1 -.26.03z"/><path d="m53.87 128.23-.78-.36a9.11 9.11 0 0 0 .58-2.53l.85.1a9.46 9.46 0 0 1 -.65 2.79z"/><path d="m54.52 125.47-.85-.13c0-.53.09-1 .11-1.31h.85a5.23 5.23 0 0 1 -.11 1.44z"/><path d="m53.91 128.12-.85-.15c.09-.51.22-1 .34-1.51s.2-.79.27-1.16l.85.17c-.08.39-.18.78-.28 1.2s-.24.97-.33 1.45z"/><path d="m53.8 128.34-.64-.58z"/><path d="m53.9 130.45a1.19 1.19 0 0 1 -.85-.43l-.1-.11v-.15a6.72 6.72 0 0 1 .11-1.78l.85.14a6.78 6.78 0 0 0 -.11 1.4.25.25 0 0 0 .12.07c.45-.16 1.06-2.47 1.26-5.65h.86a13.05 13.05 0 0 1 -.62 4.72c1-.56 1.82-3.33 2.2-4.66l.24-.81.1-.28h.3a3.22 3.22 0 0 1 1.65.77 6.08 6.08 0 0 0 .8.5 4 4 0 0 0 -.13-1.09 4.11 4.11 0 0 0 -.85-1.46 5.1 5.1 0 0 1 -.95-1.67 3.88 3.88 0 0 1 .49-2.67 9.09 9.09 0 0 0 .38-.93c.56-1.72 1.06-3.44 1.58-5.26.21-.73.42-1.46.64-2.19a151.52 151.52 0 0 1 4.82-14.61l.8.32c-2.15 5.47-3.32 9.47-4.8 14.53l-.63 2.19c-.53 1.82-1 3.55-1.59 5.29a10.18 10.18 0 0 1 -.42 1 3.23 3.23 0 0 0 -.44 2.11 4.42 4.42 0 0 0 .81 1.36 4.87 4.87 0 0 1 1 1.8c.25 1.18.19 1.77-.21 2s-1.1-.08-1.79-.56a7.22 7.22 0 0 0 -.86-.54c0 .12-.07.26-.11.4-.48 1.66-1.27 4.44-2.62 5.17a1.43 1.43 0 0 1 -.87.19 1.54 1.54 0 0 1 -.76.82.85.85 0 0 1 -.3.07z"/><path d="m83.33 68.97h.86v53.89h-.86z" transform="matrix(.99980895 -.01954644 .01954644 .99980895 -1.85 1.65)"/><path d="m87.36 187.37-15-.92.06-63.88h.86l-.06 63.07 13.33.81 2.52-41.2.86-.02 3.52 40.73 15.58-.85-6.09-62.36.86-.08 6.17 63.25-17.31.95-3.08-35.75z"/><path d="m74.36 205.3a2.48 2.48 0 0 1 -1.13-.25l-.1-.05c-1.53-.84-.93-2.33-.49-3.43l.16-.39a30.71 30.71 0 0 1 2.51-4.88l.59-1 .69-1.22c.74-1.38.62-3.11.5-4.94a24.43 24.43 0 0 1 -.09-2.84l.86.06a22.78 22.78 0 0 0 .07 2.73c.13 1.86.25 3.8-.61 5.4-.23.42-.46.83-.7 1.24l-.59 1a30.84 30.84 0 0 0 -2.45 4.75l-.16.4c-.53 1.31-.67 1.93.11 2.36h.09c1 .44 2.22-.19 3.15-.64l.32-.16a8.25 8.25 0 0 0 3.07-2.14 6.19 6.19 0 0 0 1.18-3.68c0-.49.06-1 .08-1.47l.11-1.83c.14-2.55.29-5.18.49-7.77v-.29l.86.08v.28c-.2 2.58-.35 5.2-.49 7.75l-.11 1.83c0 .49 0 1-.08 1.47a7 7 0 0 1 -1.37 4.16 8.9 8.9 0 0 1 -3.37 2.39l-.31.15a6.83 6.83 0 0 1 -2.79.93z"/><path d="m108.9 202.6a5.06 5.06 0 0 1 -2.45-.72c-.6-.33-1.19-.69-1.79-1l-1.22-.72-.19-.11-.61-.34a9.17 9.17 0 0 0 -1-.45c-1-.42-2.19-.89-2.54-1.64a2.06 2.06 0 0 1 -.15-.9c0-.46 0-1 .07-1.48a9 9 0 0 0 0-.92c0-.4 0-.81 0-1.22 0-.64 0-1.28-.06-1.9a23.78 23.78 0 0 0 -.91-4.92s0 0 0-.06l.84-.18a24.61 24.61 0 0 1 .93 5.11c0 .62.06 1.27.07 1.91v1.22c0 .24 0 .6-.05 1a13.66 13.66 0 0 0 -.07 1.4 1.58 1.58 0 0 0 .06.54c.21.45 1.3.89 2.09 1.21a11 11 0 0 1 1.1.49l.62.35.19.12 1.23.72c.59.35 1.18.7 1.77 1 1.45.82 2.85.81 3.48 0a2.17 2.17 0 0 0 .36-1.57 5 5 0 0 0 -.23-1v-.12a5.67 5.67 0 0 0 -2.59-2.8l-.64-.43a5.19 5.19 0 0 1 -1.73-1.88c-1.13-2.36-1.09-6.05-1-7.53v-.18c0-.06 0-.13 0-.19l.86.06v.36c-.07 1.4-.11 4.93.94 7.11a4.25 4.25 0 0 0 1.45 1.55l.62.42a6.43 6.43 0 0 1 2.92 3.23v.14a5.73 5.73 0 0 1 .26 1.2 3.07 3.07 0 0 1 -.52 2.18 2.6 2.6 0 0 1 -2.11.94z"/><path d="m73.25 204.78-.1-.85c.91-.11 2-1.61 2.65-3 .07-.15.12-.29.17-.42a9.32 9.32 0 0 0 -.12-4.86v-.22l.83-.23v.14.1a9.91 9.91 0 0 1 .09 5.38l-.19.46c-.67 1.49-1.95 3.34-3.33 3.5z"/><path d="m80.86 201.84-.71-.48a.32.32 0 0 0 0 .26.31.31 0 0 0 .12.18 11.27 11.27 0 0 0 -2.16-.18 18 18 0 0 1 -1.95-.13 1.45 1.45 0 0 1 -.47-.14l.42-.75h.18a16.65 16.65 0 0 0 1.85.12c1.94.06 2.59.12 2.8.54a.5.5 0 0 1 -.08.58z"/><path d="m75.35 205.94a2.74 2.74 0 0 1 -2.29-1 2.43 2.43 0 0 1 -.24-.35c0-.09-.1-.18-.15-.29l.8-.34a2 2 0 0 0 .1.21 1.56 1.56 0 0 0 .17.25c1.29 1.67 4.65 0 6.42-1.27a5.22 5.22 0 0 0 2.06-2.69 4.05 4.05 0 0 0 .16-1c.07-1.09-.13-2.46-.75-2.87l.48-.71c1 .64 1.22 2.3 1.13 3.64a4.83 4.83 0 0 1 -.21 1.21 6.06 6.06 0 0 1 -2.37 3.1 10.24 10.24 0 0 1 -5.31 2.11z"/><path d="m111.05 202-.53-.22a5.34 5.34 0 0 1 -3-2.8 9.14 9.14 0 0 1 -.47-4.18l.86.06a8.44 8.44 0 0 0 .4 3.78 4.45 4.45 0 0 0 2.58 2.35l.49.2z"/><path d="m104 200.21h-.39l.12-.86a2 2 0 0 0 1.69-.63 2 2 0 0 1 2.72-.26l-.47.72c-.78-.51-1.11-.25-1.72.22a3 3 0 0 1 -1.95.81z"/><path d="m109.13 204.06a9.65 9.65 0 0 1 -3.75-1.21l-.8-.36c-.37-.17-.91-.34-1.48-.53-2-.65-4.45-1.46-5-3.08a2.62 2.62 0 0 1 .72-2.47l.67.54a1.81 1.81 0 0 0 -.56 1.68c.37 1.19 2.7 2 4.4 2.51.61.2 1.14.38 1.55.56.25.1.53.24.83.38 1.18.56 2.8 1.33 3.85 1.07a2.55 2.55 0 0 0 1.4-1.73 1.71 1.71 0 0 0 -.16-1.64l.63-.58a2.45 2.45 0 0 1 .35 2.46 3.3 3.3 0 0 1 -2 2.32 2.46 2.46 0 0 1 -.65.08z"/><path d="m48.81 201a.94.94 0 0 1 -.54-.18l-.14-.08-.08-.18c-.68-2.23-3.43-5.64-4.69-6.88-2.32-2.3-3-4.28-3.88-7.28a16.91 16.91 0 0 0 -3.71-6c-2.17-2.6-4.41-5.29-4-9.42a5 5 0 0 1 .73-2.19 3.5 3.5 0 0 1 2.65-1.69 4.14 4.14 0 0 1 3.39 1.57 39.81 39.81 0 0 1 3.31 4.54c.51.76 1 1.54 1.56 2.28a19.79 19.79 0 0 0 2.28 2.51 21.28 21.28 0 0 1 2.23 2.51c.11.14.21.29.31.44a10 10 0 0 1 1.42 4.32 32.37 32.37 0 0 1 .15 3.75 12.2 12.2 0 0 0 .57 3.4c.16.6.33 1.22.46 1.9a9.71 9.71 0 0 1 -.34 4.21v.17c-.12.52-.24 1-.33 1.62v.3l-.3.05a1.51 1.51 0 0 0 -.32.11h-.06a1.46 1.46 0 0 1 -.67.22zm-13.35-33h-.2a2.63 2.63 0 0 0 -2 1.29 4.18 4.18 0 0 0 -.61 1.82c-.4 3.77 1.62 6.2 3.77 8.78a17.71 17.71 0 0 1 3.88 6.29c.82 2.85 1.44 4.71 3.66 6.91 1.27 1.26 4 4.69 4.85 7.06a.64.64 0 0 0 .22-.08h.06l.21-.09c.09-.5.2-1 .3-1.4v-.18a8.9 8.9 0 0 0 .33-3.86c-.12-.64-.28-1.24-.44-1.82a13.3 13.3 0 0 1 -.6-3.63 32.61 32.61 0 0 0 -.14-3.65 9 9 0 0 0 -1.3-4l-.27-.4a22.8 22.8 0 0 0 -2.15-2.41 20.86 20.86 0 0 1 -2.28-2.63c-.54-.75-1.07-1.54-1.57-2.31a40.07 40.07 0 0 0 -3.25-4.44 3.4 3.4 0 0 0 -2.47-1.25z"/><path d="m52.27 200.22c-.4-2.67.62-5.59 1.6-8.42 1.1-3.16 2.23-6.43 1.46-9.38a7.1 7.1 0 0 0 -.92-1.88l.72-.46a7.61 7.61 0 0 1 1 2.12c.84 3.21-.34 6.6-1.48 9.88-1 2.86-1.92 5.55-1.55 8z"/><path d="m47.94 181.06-.6-.61c1.26-1.25.32-4.69-.24-6.75-.1-.36-.19-.69-.26-1a17.66 17.66 0 0 1 -.4-2.42c-.07-.57-.13-1.15-.25-1.75a6.63 6.63 0 0 0 -.49-1.4 4.62 4.62 0 0 1 -.52-2.73c.29-2.11 2-6.67 5.12-6.67h.1a2.64 2.64 0 0 1 .62.08c3.3.75 3.55 6.09 3.63 7.84.06 1.2.06 2.33 0 3.44a49.6 49.6 0 0 1 -.53 5.48 8 8 0 0 0 .14 3.93 9.51 9.51 0 0 0 .84 1.52l-.72.46a9.9 9.9 0 0 1 -.91-1.67 8.64 8.64 0 0 1 -.19-4.37 47.8 47.8 0 0 0 .52-5.38c.05-1.09 0-2.19 0-3.37-.2-4.27-1.2-6.64-3-7a1.76 1.76 0 0 0 -.46-.06h-.04c-2.4 0-4 3.91-4.27 5.93a3.93 3.93 0 0 0 .46 2.27 6.89 6.89 0 0 1 .54 1.57c.13.64.2 1.24.26 1.82a19.49 19.49 0 0 0 .38 2.31c.08.29.16.61.26 1 .65 2.33 1.63 5.93.01 7.53z"/><path d="m53.55 200.43h-.2l-.29-.33v-.23l.42.1v-.4h-.08a9 9 0 0 0 2.23-1.72 8.66 8.66 0 0 1 1.58-1.85c.29-.29.56-.56.8-.85 1.7-2 2.65-3.26 2.4-5.77a11.45 11.45 0 0 1 .38-5.37 9.43 9.43 0 0 1 .49-1.06 18 18 0 0 1 1.76-2.5 15.59 15.59 0 0 0 1.75-2.45c.86-1.69.45-7.3-1.15-10.51-.45-.91-1.21-2-2.22-2.21a2.73 2.73 0 0 0 -2.24.93c-1.23 1.11-1.27 3.17-1.3 5.16a13.7 13.7 0 0 1 -.26 3 8.47 8.47 0 0 1 -1.29 2.73 5.32 5.32 0 0 0 -1.13 3.26h-.86a6.16 6.16 0 0 1 1.27-3.73 7.68 7.68 0 0 0 1.18-2.47 13.65 13.65 0 0 0 .23-2.8c0-2.07.07-4.41 1.58-5.78a3.57 3.57 0 0 1 3-1.14c1.11.19 2.06 1.09 2.85 2.67 1.76 3.54 2.13 9.36 1.14 11.29a16.2 16.2 0 0 1 -1.88 2.6 16.41 16.41 0 0 0 -1.71 2.39 8.47 8.47 0 0 0 -.44 1 10.55 10.55 0 0 0 -.34 5c.29 2.86-.79 4.3-2.59 6.41a12.17 12.17 0 0 1 -.85.9 8.46 8.46 0 0 0 -1.37 1.65 7.66 7.66 0 0 1 -2.86 2.08z"/><path d="m49.67 200.51-.78-.37a1.18 1.18 0 0 0 .12-.36 6.27 6.27 0 0 0 -.23-2.25v-.2a12.31 12.31 0 0 0 -2-4.14 15.38 15.38 0 0 1 -1.93-3.69 11.42 11.42 0 0 1 -.41-2 7 7 0 0 0 -2.29-4.78c-.23-.26-.47-.52-.69-.79a9 9 0 0 1 -1.88-4.93 14.22 14.22 0 0 0 -.69-3 2.68 2.68 0 0 0 -1.89-1.78 11.26 11.26 0 0 1 -1.19-.57 5.75 5.75 0 0 1 -1.3-1.08 3 3 0 0 0 -1.65-1.09l.06-.41v-.45h.08a3.72 3.72 0 0 1 2.1 1.38 5.33 5.33 0 0 0 1.11.93 9.76 9.76 0 0 0 1.11.52 3.54 3.54 0 0 1 2.37 2.26 14 14 0 0 1 .74 3.18 8.29 8.29 0 0 0 1.65 4.49c.22.26.44.51.67.76a10 10 0 0 1 1.87 2.62 10.24 10.24 0 0 1 .63 2.61 11.41 11.41 0 0 0 .38 1.9 14.24 14.24 0 0 0 1.84 3.49 13 13 0 0 1 2.11 4.42v.2a7.14 7.14 0 0 1 .24 2.58 2.32 2.32 0 0 1 -.15.55z"/><path d="m49.08 200.36a2.46 2.46 0 0 1 0-.54 3.43 3.43 0 0 1 .59-1.45c.09-.15.2-.29.3-.44a5.36 5.36 0 0 0 .84-1.55 13.61 13.61 0 0 0 .37-3.94v-.44a9.32 9.32 0 0 0 -.95-3.65 12 12 0 0 1 -.93-3 5.64 5.64 0 0 1 0-1.36 28.38 28.38 0 0 1 .66-3.61 21.78 21.78 0 0 0 .72-4.65 40.35 40.35 0 0 0 -.13-4.13 29.74 29.74 0 0 0 -.72-4.56c-.09-.39-.2-.78-.32-1.18a11.18 11.18 0 0 1 -.57-3.11 7.28 7.28 0 0 1 .54-2.43 6.42 6.42 0 0 0 .48-2.14h.87a7.28 7.28 0 0 1 -.54 2.43 6.48 6.48 0 0 0 -.49 2.15 10.24 10.24 0 0 0 .54 2.86c.11.4.23.81.33 1.22a32.81 32.81 0 0 1 .74 4.69 41.89 41.89 0 0 1 .13 4.21 22.24 22.24 0 0 1 -.74 4.83 29.7 29.7 0 0 0 -.65 3.51 5 5 0 0 0 0 1.16 11.28 11.28 0 0 0 .85 2.76 10.12 10.12 0 0 1 1 4v.43a14.59 14.59 0 0 1 -.4 4.18 5.88 5.88 0 0 1 -1 1.8l-.28.42a2.56 2.56 0 0 0 -.45 1.08 1.56 1.56 0 0 0 0 .37z"/><path d="m53.12 200.26-.84-.21a1.43 1.43 0 0 1 .92-.94c.35-.16.41-.21.42-.37a21.27 21.27 0 0 1 1.86-7.08c.19-.51.39-1 .59-1.54a17.59 17.59 0 0 0 1-5c0-.61.08-1.24.12-1.87 0-.44 0-.89.07-1.34a13.55 13.55 0 0 1 1.87-5.33 21.29 21.29 0 0 0 1.4-3.09 11.88 11.88 0 0 0 .37-4.6 14.69 14.69 0 0 1 .18-4.2l.84.19a13.93 13.93 0 0 0 -.17 4 12.56 12.56 0 0 1 -.4 4.92 23.17 23.17 0 0 1 -1.46 3.2 12.57 12.57 0 0 0 -1.78 5c0 .45 0 .89-.08 1.33 0 .65-.06 1.28-.11 1.9a18.38 18.38 0 0 1 -1 5.2c-.2.53-.4 1-.6 1.55a20.66 20.66 0 0 0 -1.8 6.81 1.28 1.28 0 0 1 -.91 1.11c-.33.1-.45.2-.49.36z"/><path d="m128.48 169.81a9.29 9.29 0 0 1 -9.23-8.59c0-.22 0-.45 0-.67a9.19 9.19 0 0 1 .64-3.38v-.12a9.17 9.17 0 0 1 3.47-4.2 11.68 11.68 0 0 1 1.08-.63 9.19 9.19 0 0 1 3.34-.88h.68a9.27 9.27 0 0 1 9.26 9.26 9.29 9.29 0 0 1 -3.9 7.55l-.1.11h-.06a9.23 9.23 0 0 1 -5.13 1.6zm-7.76-12.48v.08a8.27 8.27 0 0 0 -.61 3.13q0 .3 0 .6a8.43 8.43 0 0 0 8.37 7.8h.06a8.36 8.36 0 0 0 4.75-1.52l.12-.08a8.43 8.43 0 0 0 3.47-6.8 8.21 8.21 0 0 0 -1.82-5.2 8.33 8.33 0 0 0 -6.58-3.19 5.79 5.79 0 0 0 -.61 0 8.36 8.36 0 0 0 -4 1.36 8.4 8.4 0 0 0 -3.15 3.82z"/><path d="m140.2 163.14-.07-.86a2.36 2.36 0 0 0 2.17-2.53c-.12-1.92-1-2-3.24-1.95h-2.58l2.43-.87c1.58-.57 3.29-1.63 3.35-2.46 0-.35-.27-.7-.88-1a3.68 3.68 0 0 0 -2.85-.3 4.77 4.77 0 0 0 -2.69 2l-.06.1-.75-.42.06-.11.21-.37a8.11 8.11 0 0 0 1.28-3.7c.1-.7 0-1-.19-1.1s-.81.14-1.22.63l-1 1.24.28-1.59c.34-2 3.43-3.89 5.54-5.14-1.77.46-4.62 1.28-8.07 2.26-2 .58-2.71 2.4-3.31 4l-.21.56-.15.37v.09l-.8-.33v-.1c0-.1.09-.21.14-.33l.21-.56c.59-1.62 1.41-3.83 3.87-4.53 10.48-3 10.48-3 10.73-2.41s-.14.64-1.54 1.46a21 21 0 0 0 -4.87 3.53 1.27 1.27 0 0 1 .77.07c.42.18.87.67.69 2a12.08 12.08 0 0 1 -.46 2.12 5.25 5.25 0 0 1 1.33-.59 4.45 4.45 0 0 1 3.49.38c.94.52 1.39 1.15 1.33 1.86-.08 1-1.2 1.85-2.22 2.42 1.22.18 2.14.77 2.26 2.7a3.23 3.23 0 0 1 -2.98 3.46z"/><path d="m139.92 163.15a3.26 3.26 0 0 1 -1.25-.26l-1.67-.69 1.8-.13a3.15 3.15 0 0 1 1.55.24l1.47.67-1.61.15z"/><path d="m138.46 167a3.55 3.55 0 0 1 -.46 0l.12-.85a2.24 2.24 0 0 0 2.27-1 1.92 1.92 0 0 0 .21-1.46 1.07 1.07 0 0 0 -.61-.61l.36-.79a2 2 0 0 1 1.06 1.11 2.73 2.73 0 0 1 -.24 2.12 3 3 0 0 1 -2.71 1.48z"/><path d="m139.47 167.21-1.47-.21a2.28 2.28 0 0 1 -1.43-.71l-.87-1 1.3.33a3.36 3.36 0 0 1 1.34.65z"/><path d="m123.69 173.55a2.18 2.18 0 0 1 -1.48-.46 1.87 1.87 0 0 1 -.59-1.22 1.65 1.65 0 0 1 -.67.31c-1.25.27-2.67-.89-3.64-1.91a3.21 3.21 0 0 1 -1.2-2.5 1.77 1.77 0 0 1 .47-1 1.6 1.6 0 0 1 -.71-.13 2.32 2.32 0 0 1 -1.14-1.53 2.62 2.62 0 0 1 .41-2.46 5 5 0 0 1 2.12-1.48 8.78 8.78 0 0 0 -1.54-.21c-1.83 0-2.41-.72-2.58-1.33-.33-1.2.83-2.76 2.09-3.51a4.16 4.16 0 0 1 3.24-.15c-1.72-2.05-2-4-.82-5.41a3.17 3.17 0 0 1 3.14-1.29 5 5 0 0 1 3.24 3.78l-.83.22a4.14 4.14 0 0 0 -2.6-3.16 2.33 2.33 0 0 0 -2.3 1c-1.65 2 1 4.68 2.28 5.76l.15.13-.52.69a.71.71 0 0 0 -.14-.1c-1.08-.66-3.22-1.45-4.4-.75s-1.89 1.88-1.7 2.55 1.18.7 1.78.7a8.71 8.71 0 0 1 2.08.33 9.33 9.33 0 0 0 1.82.3h.18l-.06.85h-.15a5.1 5.1 0 0 0 -3.79 1.58 1.72 1.72 0 0 0 -.28 1.68 1.55 1.55 0 0 0 .67 1c.38.17 1-.08 1.56-.34a5.87 5.87 0 0 1 1.39-.48l1.76-.29-1.43 1.06c-.31.22-.65.42-1 .62-.76.45-1.48.87-1.56 1.44s.26 1.06 1 1.79c1.14 1.2 2.18 1.81 2.84 1.67.38-.08.68-.44.9-1.06l1.17-3.35-.34 3.54c-.07.81-.12 1.63.27 2s1.14.32 2.28.05a2.21 2.21 0 0 0 2-1.78c.12-.31.25-.66.45-1.07l.3-.62.42.55c.11.14.22.29.31.43l.37.58c.72 1.16 1.11 1.8 3.46 1.28a2.07 2.07 0 0 0 1.53-.91 3.3 3.3 0 0 0 -.5-2.52c-.09-.15-.17-.31-.25-.47a.89.89 0 0 1 -.05-.1l.76-.41.14.26c.05.1.11.2.16.31a3 3 0 0 0 1.85 1.49 1.73 1.73 0 0 0 1.41-.47 1.9 1.9 0 0 0 .8-1.31 1.09 1.09 0 0 0 -.44-.82l.56-.66a1.94 1.94 0 0 1 .74 1.47 2.63 2.63 0 0 1 -1.11 2 2.54 2.54 0 0 1 -2.1.65 2.63 2.63 0 0 1 -1-.4 2.28 2.28 0 0 1 -.17 1.37 2.82 2.82 0 0 1 -2.11 1.38c-2.95.65-3.61-.42-4.38-1.66l-.2-.33-.12.31a3 3 0 0 1 -2.61 2.31 7.09 7.09 0 0 1 -1.59.21z"/><path d="m124.58 152.6-.85-.13a4.39 4.39 0 0 0 -.23-1.41c-.33-1.31-.83-3.28 1.16-4a2.17 2.17 0 0 1 2.15.35 5 5 0 0 1 1.59 4 .78.78 0 0 0 0 .13l-.85-.12v-.09a4.16 4.16 0 0 0 -1.25-3.25 1.33 1.33 0 0 0 -1.34-.22c-1.17.42-1 1.4-.61 3a4.82 4.82 0 0 1 .23 1.74z"/><path d="m128.11 166.45a5.52 5.52 0 0 1 -.81-.06c-3.65-.51-5.53-4.33-5.61-4.49l.77-.38s1.77 3.58 5 4c2.35.33 4.93-1 7.67-4.11l.64.57c-2.69 3.02-5.24 4.47-7.66 4.47z"/><path d="m127.89 191.59a24.9 24.9 0 0 1 -.38-6.72v-.18c0-.08 0-.15 0-.22v-.47h.86v.44.24.16a24.26 24.26 0 0 0 .35 6.49z"/><path d="m128.41 184h-.87c0-.91 0-2 0-3 0-.69-.1-1.41-.17-2.17-.26-2.84-.55-6 .41-8.73a6.73 6.73 0 0 1 .39-.91l.11-.23.76.4-.1.21a5.94 5.94 0 0 0 -.35.82c-.9 2.5-.61 5.61-.37 8.36.07.77.14 1.5.18 2.2.05 1.05.03 2.16.01 3.05z"/><path d="m129.39 198.44-.35-.6h-.3c0-.06 0-.11 0-.16a6.22 6.22 0 0 1 .11-.88l-.79.24c-.48-1.55-.89-5 .29-6.32a1.6 1.6 0 0 1 1.56-.49l.22.05.09.21a5.38 5.38 0 0 1 .44 2.81c.84-1.39 1.83-2.6 2.68-2.78a1.08 1.08 0 0 1 1.22.58c1.54 2.58-3.9 6.47-4.52 6.91-.25.17-.47.32-.65.43zm4.2-7.1h-.06c-1.11.23-3.17 4-3.76 5.79 2.16-1.55 4.89-4.21 4.06-5.61-.09-.15-.17-.18-.24-.18zm-4.06-.3a.7.7 0 0 0 -.53.25c-.81.9-.62 3.79-.13 5.43a14.08 14.08 0 0 1 .47-1.67 5.38 5.38 0 0 0 .19-4.05z"/><path d="m128.42 197.87a3.35 3.35 0 0 1 -.33-.79l.82-.25a3.69 3.69 0 0 0 .24.59l-.65.35.28-.14z"/><path d="m128.4 197.83a6.8 6.8 0 0 1 -.31-.74l.8-.31c.06.14.2.52.27.63z"/><path d="m128.1 197.12-.01-.03.78-.37.01.04z"/><path d="m128.06 198v-.06a9.19 9.19 0 0 0 -1.61-2.21c-1.5-1.74-3-3.53-2.26-4.76a1.07 1.07 0 0 1 1-.59c1.24.13 2.35 2.84 3.47 5.85l.21.55-.39.15a3 3 0 0 1 .39.81s0 .06 0 .09zm-3-6.77s-.14.08-.22.21c-.43.68 1.15 2.52 2.19 3.73l.49.57c-.63-1.64-1.78-4.43-2.46-4.51z"/><path d="m127.58 184.93v-.06a3.9 3.9 0 0 0 -.3-.64l.75-.41a5.36 5.36 0 0 1 .35.73z"/><path d="m128.36 184.49h-.75a5.88 5.88 0 0 1 -3.73-1.26c-.26-.2-2.57-2-2.74-3.49a1.22 1.22 0 0 1 .25-.92 1.51 1.51 0 0 1 1.35-.6c2.35.22 5.24 5.58 5.27 5.63zm-5.77-5.49a.65.65 0 0 0 -.53.29.36.36 0 0 0 -.06.29c.09.82 1.53 2.22 2.41 2.91a4.65 4.65 0 0 0 2.45 1c-1.16-2-3-4.38-4.2-4.49z"/><path d="m128.31 184.47h-.7v-.86h.67z"/><path d="m127.89 185.24-.13-.39a1.09 1.09 0 0 1 -.07-.37.62.62 0 0 1 .07-.31l-.25-.28.15-.15a14 14 0 0 0 1.36-2.13c1.28-2.23 2.86-5 4.92-4.57a1.2 1.2 0 0 1 1 .83c.28 1-1.08 2.37-2.49 3.68l-.41.38c-.22.22-.46.48-.71.75a7.83 7.83 0 0 1 -3.07 2.44zm.62-1.18a10.08 10.08 0 0 0 2.19-2c.25-.28.5-.55.73-.78l.43-.41c1.6-1.47 2.36-2.42 2.25-2.82 0-.08-.16-.16-.38-.2-1.44-.32-2.86 2.16-4 4.15a18.87 18.87 0 0 1 -1.22 2.06z"/><path d="m131.36 119.45a2.62 2.62 0 0 1 -1.44-.47 3.66 3.66 0 0 1 -1-1.35c-.29-.54-.57-1-1-1.15-.24-.07-.53.26-.84.67s-.49.62-.82.66a.6.6 0 0 1 -.46-.12c-.29-.22-.5-.72-.73-2.6a7.25 7.25 0 0 1 0-1.56 2.74 2.74 0 0 0 -.44-2.21 44.12 44.12 0 0 0 -5.5-6.17 29.07 29.07 0 0 1 -3.61-4.26c-.56-.77-1.15-1.55-1.81-2.36-1.78-2.16-3.67-4.49-5.5-7.11l-.17-.24.71-.49.16.23c1.82 2.6 3.62 4.83 5.46 7.06.68.83 1.27 1.62 1.84 2.4a28.79 28.79 0 0 0 3.51 4.14 44.8 44.8 0 0 1 5.61 6.3 3.58 3.58 0 0 1 .6 2.79 5.73 5.73 0 0 0 0 1.38 10.1 10.1 0 0 0 .32 1.82l.15-.19c.37-.48.94-1.21 1.76-1s1.13.93 1.47 1.57a3.14 3.14 0 0 0 .75 1 1.63 1.63 0 0 0 1.09.33 2.26 2.26 0 0 0 1.15-.54 6.25 6.25 0 0 0 .85-.9 4.09 4.09 0 0 0 .35-.55 2.46 2.46 0 0 0 .3-1.64c-.2-1.39-1.48-2.73-2.61-3.91a34.68 34.68 0 0 1 -4.75-7 37.56 37.56 0 0 0 -4-6.08c-.6-.7-1.22-1.35-1.82-2a31.13 31.13 0 0 1 -3.19-3.75c-.54-.78-3-3.73-3.87-4.84-.43-.53-.43-.53-.43-.69h.43l.34-.26.33.41c.92 1.12 3.35 4.08 3.91 4.9a29.11 29.11 0 0 0 3.1 3.63c.61.64 1.24 1.3 1.85 2a39.1 39.1 0 0 1 4.1 6.22 34.23 34.23 0 0 0 4.62 6.8c1.22 1.27 2.6 2.72 2.84 4.37a3.34 3.34 0 0 1 -.39 2.17 4.94 4.94 0 0 1 -.43.67 6.66 6.66 0 0 1 -1 1 2.88 2.88 0 0 1 -1.61.73z"/><path d="m131.15 119.22a18.58 18.58 0 0 0 -2.37-4l.55-.66c.8.67 2.19 3.46 2.6 4.3z"/><path d="m132.51 118.55c-.42-1-1.7-3.72-2.53-4.43l.55-.66c1.14 1 2.61 4.36 2.78 4.75z"/><path d="m133.84 117a15.53 15.53 0 0 0 -2.33-3.51l.51-.69c1 .72 2.42 3.49 2.58 3.8z"/><path d="m100.3 96.78h-15.38v-16.15h15zm-14.52-.86h13.64l-.33-14.43h-13.31z"/><path d="m45.25 201c-1.82 0-3.53-.09-5.19-.25-4-.4-8.13-.43-11.73-.43-1.27 0-2.67.09-4.15.19-3.51.24-7.15.48-10-.43l.26-.82c2.72.86 6.27.62 9.7.39 1.5-.1 2.91-.19 4.21-.19 3.62 0 7.81 0 11.82.43a55.24 55.24 0 0 0 8.33.16h.06.7c1.08-.06 2.2-.15 3.42-.27l.85-.09c2.77-.3 5.51-.7 7.83-1.06a26.91 26.91 0 0 1 4.2-.19h2.3c.5 0 1.06-.08 1.66-.14 1.63-.17 3.49-.37 4.77.18l-.34.79c-1.07-.46-2.81-.28-4.34-.11-.61.06-1.19.12-1.71.14-.79 0-1.58 0-2.35 0a25.79 25.79 0 0 0 -4.06.18c-2.33.36-5.08.76-7.86 1.06l-.87.09c-1.23.12-2.36.21-3.44.28h-.72-.06q-1.71.09-3.29.09z"/><path d="m86.61 200.48a11.88 11.88 0 0 1 -3.92-.58l-.14-.05.31-.8c2.74 1 6.32.43 9.79-.11a40.31 40.31 0 0 1 5.66-.6v.86a37.65 37.65 0 0 0 -5.53.6 43.05 43.05 0 0 1 -6.17.68z"/><path d="m114.13 199.21c-2.26 0-3.29-.19-3.58-.58l.68-.52s0 0 0 0c.76.54 8 .09 10.35-.06l1.37-.08c1.8-.09 3.62-.32 5.49-.56h.29.05.33l.67-.08c1-.12 2.1-.26 3.26-.36a121.61 121.61 0 0 1 14.15-.13c2.35.07 4.79.14 7.19.14 2.65 0 5.27-.24 8-.5l.68-.07a75.17 75.17 0 0 1 10.7-.51c1.56.08 3.1.13 4.58.16.85 0 1.69 0 2.54.05h1.77c1.66 0 9.55 0 16.52.07h10.75v.82l-10.75-.05-16.52-.07h-1.76-2.57c-1.48 0-3-.09-4.6-.17a73.48 73.48 0 0 0 -10.57.51l-.69.07c-2.7.26-5.34.5-8 .5-2.42 0-4.86-.07-7.22-.14a122.06 122.06 0 0 0 -14 .12c-1.14.1-2.27.24-3.22.36l-.67.09h-.33l-.32.05c-1.87.24-3.71.47-5.55.56l-1.35.08c-3.54.19-5.96.3-7.67.3z"/><path d="m143.78 145.42a2.3 2.3 0 1 1 2.3-2.3 2.29 2.29 0 0 1 -2.3 2.3zm0-3.73a1.44 1.44 0 1 0 1.44 1.43 1.43 1.43 0 0 0 -1.44-1.43z"/><path d="m171.9 120.13a3.64 3.64 0 0 0 -1.32-.23 1.56 1.56 0 0 1 -1.28-.41 2 2 0 0 1 -.27-1.61 11.72 11.72 0 0 1 .59-2.35 10.34 10.34 0 0 0 .57-2.42l.86.06a11.18 11.18 0 0 1 -.61 2.63 11.24 11.24 0 0 0 -.55 2.18c-.08.7 0 .9.06 1s.36.1.66.11a4.46 4.46 0 0 1 1.63.3z"/><path d="m161.75 143.54a63.22 63.22 0 0 1 -6.68-2.76c-1.9-.87-3.7-1.69-5.36-2.29l-.35-.13.07-.36a7.55 7.55 0 0 1 .43-1.35 17 17 0 0 1 2.41-3.71l1.78-3.48 14.17 3.87-.23.83-13.49-3.69-1.53 3a16.47 16.47 0 0 0 -2.31 3.54 7.59 7.59 0 0 0 -.3.83c1.61.6 3.36 1.41 5.06 2.19a64.14 64.14 0 0 0 6.59 2.72z"/><path d="m187.4 150.92-.32-.39c-1.31-1.56-3.33-3.5-5.1-5.21-.95-.91-1.85-1.78-2.6-2.54l.61-.61c.75.76 1.64 1.62 2.59 2.53 1.65 1.59 3.5 3.38 4.83 4.9.33-.34.69-.69 1-1 .57-.55 1.23-1.13 1.86-1.7.37-.34.75-.67 1.1-1 .64-.58 1.11-1 1.47-1.4l-2.42-4.14a19.4 19.4 0 0 0 -10.16-7.21 4.85 4.85 0 0 0 -1.76-.14 1.89 1.89 0 0 0 -.83.28.82.82 0 0 0 -.2.17l-.61-.61a1.72 1.72 0 0 1 .35-.28 2.62 2.62 0 0 1 1.18-.41 5.86 5.86 0 0 1 2.07.15 20.42 20.42 0 0 1 10.69 7.59l2.75 4.71-.21.24c-.39.43-1 1-1.74 1.69l-1.11 1c-.63.56-1.27 1.15-1.84 1.68-.4.38-.9.87-1.26 1.28z"/><path d="m153.65 131.57-.22-.24a24.3 24.3 0 0 0 -6.33-4.06 30.35 30.35 0 0 1 -5.34-3.17c-.51-.41-1-.78-1.58-1.13a11.28 11.28 0 0 1 -3-2.61 29.27 29.27 0 0 1 -3-5.3c-.13-.31-.25-.6-.35-.88l.81-.29c.09.26.21.54.33.83a29.3 29.3 0 0 0 2.9 5.13 10.69 10.69 0 0 0 2.8 2.41 19.23 19.23 0 0 1 1.64 1.18 29.74 29.74 0 0 0 5.19 3.07 24.62 24.62 0 0 1 6.55 4.21l.25.27z"/><path d="m150 137.11a59.41 59.41 0 0 0 -8.4-6.88c-1.32-.95-2.56-1.85-3.76-2.78a18.34 18.34 0 0 1 -2.6-2.62 10.24 10.24 0 0 0 -4.18-3.34l-.86-.29c-1.89-.62-4.75-1.55-4.35-3.88a3.43 3.43 0 0 1 .42-1.13l.75.42a2.65 2.65 0 0 0 -.32.85c-.26 1.48 1.64 2.22 3.77 2.92l.89.3a10.87 10.87 0 0 1 4.53 3.59 18.26 18.26 0 0 0 2.48 2.5c1.18.92 2.42 1.82 3.73 2.76a60.82 60.82 0 0 1 8.52 7z"/><path d="m163.62 194.46h-.26-.88a4.72 4.72 0 0 1 -1-.08c-.47-.16-.64-.38-.61-.81a1 1 0 0 0 0-.17v-.08a4.42 4.42 0 0 1 .28-1.93l1.25-16.63.86.07-1.26 16.72v.07a3.52 3.52 0 0 0 -.23 1.62v.08a.54.54 0 0 1 0 .18 2 2 0 0 0 .44 0h.33l.84.05h.21v-.09a3.29 3.29 0 0 0 .19-.83 3.59 3.59 0 0 1 .14-.74l2.19-17.26.85.11-2.21 17.37a3.32 3.32 0 0 0 -.12.64 3.77 3.77 0 0 1 -.27 1.1l-.08.14a.73.73 0 0 1 -.66.47z"/><path d="m178.32 195.12a2.09 2.09 0 0 1 -.72-.11 1 1 0 0 1 -.61-.66 3.93 3.93 0 0 1 -.13-1.11 2.66 2.66 0 0 0 -.1-.87v-.1l-3.29-17 .85-.17 3.28 16.92a3.58 3.58 0 0 1 .15 1.16 3.54 3.54 0 0 0 .08.86c0 .1.08.12.09.12a4.22 4.22 0 0 0 1.79-.14h.16c0-.35 0-.68 0-1s0-.6 0-.9l-2-16.64.85-.1 2 16.71v.89s0 .77 0 1.16v.27.35l-.35.06-.47.09a7.94 7.94 0 0 1 -1.58.21z"/><path d="m154.81 196.88a.83.83 0 0 1 -.54-.17.68.68 0 0 1 -.26-.52c-.06-.72.74-1.72 1.52-2.6a4.88 4.88 0 0 1 3.13-1.72 2.74 2.74 0 0 1 1.59.44 2.81 2.81 0 0 1 .34.24 4 4 0 0 0 .54.37.29.29 0 0 0 -.21 0 .36.36 0 0 0 -.16.21l.84.2a.53.53 0 0 1 -.33.38c-.37.13-.76-.16-1.2-.5l-.24-.18a2 2 0 0 0 -1.09-.33 4 4 0 0 0 -2.56 1.42 5.51 5.51 0 0 0 -1.3 1.87h.22.36l1.41-.06c1.11 0 2.23-.11 3.32-.18l1.43-.09h.27.35a2 2 0 0 0 1.11-.29c.09-.08.11-.19.13-.45 0-.06 0-.12 0-.18s0-.14 0-.22a3.61 3.61 0 0 0 0-.52.36.36 0 0 0 .35.25v-.86a.49.49 0 0 1 .48.39 2.52 2.52 0 0 1 0 .85 1.91 1.91 0 0 0 0 .2.76.76 0 0 0 0 .15 1.46 1.46 0 0 1 -.41 1 2.73 2.73 0 0 1 -1.62.51h-.37-.26l-1.44.09c-1.09.07-2.22.14-3.34.18l-1.41.06h-.28a2.58 2.58 0 0 1 -.37.06z"/><path d="m179.37 197a4.8 4.8 0 0 1 -.85-.07 2.22 2.22 0 0 1 -.44-.14 1.91 1.91 0 0 1 -.94-.88 4.29 4.29 0 0 1 -.24-.84 3.28 3.28 0 0 0 -.11-.45.4.4 0 0 0 .38.21v-.86c.44 0 .49.34.62.92a4.72 4.72 0 0 0 .15.62 1.12 1.12 0 0 0 .52.49 1.53 1.53 0 0 0 .26.08 6.46 6.46 0 0 0 2-.07l.41-.06c.31-.05.62-.1.9-.13a10.52 10.52 0 0 1 1.68 0h1a5.35 5.35 0 0 0 1.06 0 5.75 5.75 0 0 0 -.43-2.17 1.61 1.61 0 0 0 -1.37-1 4.15 4.15 0 0 0 -3.24 1.74l-.7-.5a5 5 0 0 1 4-2.1 2.44 2.44 0 0 1 2.08 1.47s1 2.46.27 3.16c-.3.31-.9.3-1.71.26h-1a10 10 0 0 0 -1.55 0c-.27 0-.56.08-.86.13l-.42.06a9.28 9.28 0 0 1 -1.47.13z"/><path d="m200.24 165.27a1.92 1.92 0 0 1 -1.24-.49 3.49 3.49 0 0 1 -.9-2 6.94 6.94 0 0 0 -.24-.87 9.13 9.13 0 0 0 -1.35-2 39.06 39.06 0 0 1 -2.91-4.33l-.51-.83a11.93 11.93 0 0 0 -2.12-2.33 9.63 9.63 0 0 1 -2.61-3.21l.79-.33a9 9 0 0 0 2.4 2.91 12.61 12.61 0 0 1 2.27 2.51l.51.84a39.86 39.86 0 0 0 2.83 4.22 9.55 9.55 0 0 1 1.49 2.25 5.58 5.58 0 0 1 .29 1 3 3 0 0 0 .6 1.54.92.92 0 0 0 1.15.16c1-.58 1.83-2.89 1.7-3.9-.12-.86-.74-1.33-1.46-1.88a7.71 7.71 0 0 1 -1.19-1 31.27 31.27 0 0 1 -2.88-3.92c-.29-.45-.58-.9-.86-1.36a18.56 18.56 0 0 0 -4.58-5.57l.5-.69a19 19 0 0 1 4.81 5.81c.28.45.56.9.85 1.34a30.22 30.22 0 0 0 2.8 3.82 7.22 7.22 0 0 0 1.07.92 3.68 3.68 0 0 1 1.79 2.46c.18 1.31-.71 4-2.13 4.76a1.76 1.76 0 0 1 -.87.17z"/><g fill="#fff"><path d="m126.08 182.86-.51-.44a12.75 12.75 0 0 1 -2.83-3l.37-.22a12.44 12.44 0 0 0 2.74 2.94l.51.45z"/><path d="m129.86 182.79-.39-.18a12.07 12.07 0 0 1 1.64-2.39 15.85 15.85 0 0 0 1.38-1.93l.38.21a14.74 14.74 0 0 1 -1.43 2 12.07 12.07 0 0 0 -1.58 2.29z"/><path d="m50.24 163.89-.36-.24c.66-1 1.46-2 2.17-2.89l.33.27c-.73.91-1.49 1.87-2.14 2.86z"/><path d="m51.07 166.94-.29-.32a22.2 22.2 0 0 0 2.13-2.27l.33.28a25.46 25.46 0 0 1 -2.17 2.31z"/><path d="m51.65 171.66-.31-.29a11.55 11.55 0 0 0 .76-.94 6.86 6.86 0 0 1 1.42-1.53l.25.35a6.29 6.29 0 0 0 -1.32 1.44 10.56 10.56 0 0 1 -.8.97z"/><path d="m52.12 175.77-.39-.19a8.28 8.28 0 0 1 .71-1.1c.15-.21.31-.42.45-.64l.37.23c-.15.23-.31.45-.47.67a7.24 7.24 0 0 0 -.67 1.03z"/><path d="m51.64 182.29-.29-.32a10 10 0 0 0 1-1.21 6.36 6.36 0 0 1 1.65-1.68l.23.36a6.19 6.19 0 0 0 -1.52 1.56 9.31 9.31 0 0 1 -1.07 1.29z"/><path d="m52 187.21-.41-.13a13.92 13.92 0 0 1 2.78-3.82l.3.32a13.76 13.76 0 0 0 -2.67 3.63z"/><path d="m52.72 190.61h-.43a5 5 0 0 1 1.23-2.38l.24-.31.35.26-.24.31a4.53 4.53 0 0 0 -1.15 2.12z"/><path d="m62.26 170-.3-.31c.35-.35.69-.73 1-1.09s.37-.42.56-.62l.32.29c-.19.2-.38.41-.56.62-.28.32-.66.7-1.02 1.11z"/><path d="m61.53 175.12-.28-.33c.39-.32.77-.67 1.14-1a17.83 17.83 0 0 1 2-1.72l.24.35a18.8 18.8 0 0 0 -2 1.68c-.32.33-.71.69-1.1 1.02z"/><path d="m59 181-.3-.32c.43-.39.82-.84 1.21-1.27a9.63 9.63 0 0 1 2.72-2.35l.19.38a9.26 9.26 0 0 0 -2.59 2.26c-.43.44-.84.89-1.23 1.3z"/><path d="m58.37 184.35h2.03v.43h-2.03z" transform="matrix(.70710678 -.70710678 .70710678 .70710678 -113.12 96.05)"/><path d="m57.73 190.65-.42-.12a3.88 3.88 0 0 1 1.52-1.84l.25.36a3.36 3.36 0 0 0 -1.35 1.6z"/><path d="m56 194.23-.17-.4a12.66 12.66 0 0 0 2-1.18c.42-.28.86-.57 1.28-.81l.22.37c-.41.24-.84.53-1.26.8a12.94 12.94 0 0 1 -2.07 1.22z"/><path d="m44.09 189.93-.46-.22a3.5 3.5 0 0 0 -1.46-.48v-.43a4 4 0 0 1 1.64.52l.45.21z"/><path d="m45.47 192.13a3.39 3.39 0 0 1 -1.12-.36l-.67-.26.13-.41c.22.07.47.18.71.28a2.67 2.67 0 0 0 1 .31l.21.38a.51.51 0 0 1 -.26.06z"/><path d="m46.56 194.69-.08-.1a3.58 3.58 0 0 0 -2.19-.92l.07-.42a4.13 4.13 0 0 1 2.33.92 0 0 0 0 1 0 0l.42.08a.53.53 0 0 1 -.44.45z"/><path d="m48.09 197.37a5.49 5.49 0 0 0 -1.52-.69l.1-.42a5.73 5.73 0 0 1 1.64.74z"/><path d="m78.45 159.64-.26-.34a10 10 0 0 0 1.5-1.6 8.54 8.54 0 0 1 1.8-1.85l.25.35a8.7 8.7 0 0 0 -1.74 1.8 9.26 9.26 0 0 1 -1.55 1.64z"/><path d="m79.82 161.38-.42-.1a8.11 8.11 0 0 1 3.72-3.88l.15.41a7.75 7.75 0 0 0 -3.45 3.57z"/><path d="m98.41 160.19-.31-.3a13 13 0 0 0 1.81-2.63l.45-.77.37.22c-.14.24-.29.5-.45.76a13.73 13.73 0 0 1 -1.87 2.72z"/><path d="m96.28 159.59-.36-.24a33.76 33.76 0 0 1 4.88-5.35l.89-.85.3.3-.89.86a33.74 33.74 0 0 0 -4.82 5.28z"/></g><path d="m185.49 127.88h-.21a4.47 4.47 0 0 1 -1.09-.26 2.1 2.1 0 0 0 -1.25-.18c-.26.06-.46.12-.64.18a2.15 2.15 0 0 1 -2.18-.31 3.67 3.67 0 0 1 -.46-.34c-.31-.25-.49-.39-.79-.38v-.86a2 2 0 0 1 1.35.57 3.37 3.37 0 0 0 .38.28 1.31 1.31 0 0 0 1.47.21l.7-.19a3 3 0 0 1 1.72.2 3.8 3.8 0 0 0 .88.23 1.61 1.61 0 0 0 1.26-.56 3.22 3.22 0 0 1 1.44-.81 5.56 5.56 0 0 1 2.77.26 9.57 9.57 0 0 0 1.1.25l.59.12c1 .22 1.61.3 2-.28a1.69 1.69 0 0 0 -.2-1.91 7.29 7.29 0 0 0 -.55-.63 3.42 3.42 0 0 1 -1.13-2.32 10.67 10.67 0 0 1 .08-2.26 7.44 7.44 0 0 0 0-2.71 5 5 0 0 0 -1.41-2 9.13 9.13 0 0 1 -1.14-1.36 47.21 47.21 0 0 1 -2.91-5.18 12.51 12.51 0 0 0 -7.83-7 14.27 14.27 0 0 1 -2.51-1.1 11.81 11.81 0 0 0 -2.93-1.15 6.11 6.11 0 0 0 -3.63.36 3.94 3.94 0 0 0 -.89.62 7.61 7.61 0 0 1 -.61.48l-.12.08a1.67 1.67 0 0 1 -1.3.44h-.34a7 7 0 0 0 -5.8 4.26 7.41 7.41 0 0 1 -2.72 2.94 5.46 5.46 0 0 0 -2.32 2.59c-.09.25-.17.5-.26.76a13.06 13.06 0 0 1 -1.66 3.69 13.93 13.93 0 0 1 -1.36 1.52 3.46 3.46 0 0 1 -.73.53 2.58 2.58 0 0 0 -.51.37 2.14 2.14 0 0 0 -.48 1.1 3.41 3.41 0 0 1 -.58 1.41 7.19 7.19 0 0 1 -.73.73 2.5 2.5 0 0 0 -1 1.43.82.82 0 0 0 .08.63c.19.2.84.15 1.36.1a3.6 3.6 0 0 1 1.65.1 3.12 3.12 0 0 1 1.21 1.18 3.66 3.66 0 0 0 .7.82 3.07 3.07 0 0 0 2.1.55 5.48 5.48 0 0 0 .84-.09 4.35 4.35 0 0 1 1.76 0 2.81 2.81 0 0 1 1.17.82 1.81 1.81 0 0 0 .82.58 1 1 0 0 0 .77-.26 2.64 2.64 0 0 1 .77-.39 5.4 5.4 0 0 1 1.61 0h.66v.86h-.72a4.49 4.49 0 0 0 -1.33 0 1.54 1.54 0 0 0 -.51.26 1.79 1.79 0 0 1 -1.39.4 2.49 2.49 0 0 1 -1.29-.82 2 2 0 0 0 -.8-.6 3.7 3.7 0 0 0 -1.4 0 6.39 6.39 0 0 1 -.95.1 4 4 0 0 1 -2.63-.72 4.5 4.5 0 0 1 -.88-1 2.52 2.52 0 0 0 -.85-.89 3.09 3.09 0 0 0 -1.24 0c-.77.07-1.58.14-2.06-.37a1.54 1.54 0 0 1 -.3-1.35 3.29 3.29 0 0 1 1.29-1.94 5.47 5.47 0 0 0 .6-.67 2.55 2.55 0 0 0 .41-1.07 2.89 2.89 0 0 1 .72-1.52 3.69 3.69 0 0 1 .66-.48 2.88 2.88 0 0 0 .57-.41 11.28 11.28 0 0 0 1.27-1.42 12.42 12.42 0 0 0 1.55-3.45c.08-.26.17-.52.25-.77a6.35 6.35 0 0 1 2.63-3 6.56 6.56 0 0 0 2.44-2.59 8 8 0 0 1 6.56-4.77h.36c.41 0 .41 0 .82-.29l.12-.08c.19-.13.36-.27.54-.42a4.34 4.34 0 0 1 1.1-.73 7 7 0 0 1 4.15-.42 12.08 12.08 0 0 1 3.08 1.25 13.72 13.72 0 0 0 2.36 1 13.33 13.33 0 0 1 8.37 7.43 45.71 45.71 0 0 0 2.85 5.1 10.1 10.1 0 0 0 1 1.22 5.78 5.78 0 0 1 1.63 2.36 8.52 8.52 0 0 1 .06 3 9.83 9.83 0 0 0 -.08 2.08 2.53 2.53 0 0 0 .9 1.82c.18.19.38.41.59.68a2.55 2.55 0 0 1 .25 2.93c-.75 1.11-2 .84-2.91.64l-.54-.11a12 12 0 0 1 -1.19-.27 4.91 4.91 0 0 0 -2.36-.25 2.33 2.33 0 0 0 -1.07.63 2.45 2.45 0 0 1 -1.6.79z"/><path d="m161.65 113.74v-.15c-.09-.75-.42-4.46 1.43-6 .82-.7 1.69-.05 2.26.38.23.17.65.48.77.43s.24-.1.43-1.09l.06-.32h.33a2 2 0 0 1 1.58.89c.26.3.5.58.77.63s.37 0 .59-.51a2.4 2.4 0 0 1 .71-1c1.06-.8 2.1 0 2.94.67 1 .81 1.58 1.13 2.18.62a1.52 1.52 0 0 0 .35-.64c.13-.35.27-.75.68-.88a1.36 1.36 0 0 1 1.12.27 1.92 1.92 0 0 1 .61.69c.22.34.27.43.66.35s.52-.42.76-.8a4.06 4.06 0 0 1 .48-.69 3.74 3.74 0 0 1 1.32-.91 5.77 5.77 0 0 0 .55-.29l.55.67-.13.08a6.71 6.71 0 0 1 -.6.31 3.06 3.06 0 0 0 -1 .71 3.79 3.79 0 0 0 -.4.57 2.17 2.17 0 0 1 -1.33 1.2 1.31 1.31 0 0 1 -1.54-.75 1.48 1.48 0 0 0 -.35-.42 1 1 0 0 0 -.4-.18l-.13.36a2.2 2.2 0 0 1 -.6 1c-1.21 1-2.4.1-3.27-.59s-1.41-1-1.89-.66a1.58 1.58 0 0 0 -.44.68c-.21.49-.52 1.22-1.54 1a2.34 2.34 0 0 1 -1.26-.91 2.72 2.72 0 0 0 -.57-.54c-.19.75-.47 1.16-.87 1.32-.56.22-1.11-.19-1.59-.55-.66-.49-.94-.63-1.19-.42-1.18 1-1.35 3.48-1.13 5.28a.32.32 0 0 0 0 .08v.06z"/><path d="m186.61 176.05-28.94-1.29a.41.41 0 0 1 -.31-.16.4.4 0 0 1 -.1-.33l4.09-29.34.75-12.37a.43.43 0 0 1 .45-.41.44.44 0 0 1 .41.46l-.77 12.39-4 28.9 27.9 1.24-7-30.07a.29.29 0 0 1 0-.13l.83-12.23a.43.43 0 1 1 .86.06l-.78 12.23 7 30.52a.44.44 0 0 1 -.08.37.46.46 0 0 1 -.31.16z" fill="#231f20"/><path d="m177.15 142.9-12.63-.63a.43.43 0 0 1 -.41-.43v-9.07a.43.43 0 0 1 .43-.43.43.43 0 0 1 .43.43v8.66l11.83.59 1.23-9.46h.43l.43.06-1.29 9.89a.43.43 0 0 1 -.45.39z" fill="#231f20"/><path d="m60.14 202.62h2.58v.86h-2.58z"/><path d="m64.73 206.63h2.3v.86h-2.3z"/><path d="m45.51 203.48h3.44v.86h-3.44z"/><path d="m53.26 206.35h3.16v.86h-3.16z"/><path d="m76.3 209.56a5.14 5.14 0 0 1 -2-.38l.33-.79a4.62 4.62 0 0 0 2.36.26l.12.85a5.69 5.69 0 0 1 -.81.06z"/><path d="m81.66 204.91h2.87v.86h-2.87z"/><path d="m89.69 202.62h3.16v.86h-3.16z"/><path d="m87.4 207.21h2.58v.86h-2.58z"/><path d="m99.16 202.9h1.72v.86h-1.72z"/><path d="m105.58 209.27a5.54 5.54 0 0 1 -2-.37l.31-.8a4.74 4.74 0 0 0 2.37.26l.12.85a5.52 5.52 0 0 1 -.8.06z"/><path d="m95.43 206.92h2.58v.86h-2.58z"/><path d="m114.05 207.27a5.9 5.9 0 0 1 -2.14-.38l.31-.8a5.31 5.31 0 0 0 2.65.26l.13.85a6.16 6.16 0 0 1 -.95.07z"/><path d="m119.33 202.39a5.14 5.14 0 0 1 -2-.38l.33-.79a4.6 4.6 0 0 0 2.35.26l.13.85a5.69 5.69 0 0 1 -.81.06z"/><path d="m123.83 205.2h2.29v.86h-2.29z"/><path d="m127.84 200.61h2.3v.86h-2.3z"/><path d="m130 207.22h-.48v-.86a9.39 9.39 0 0 0 2.75-.28l.21.84a10.15 10.15 0 0 1 -2.48.3z"/><path d="m139.55 202.39a3.18 3.18 0 0 1 -1.55-.39l.42-.75a2.55 2.55 0 0 0 1.72.24l.16.84a3.49 3.49 0 0 1 -.75.06z"/><path d="m148.73 201.24a3 3 0 0 1 -1.62-.42l.48-.71a2.57 2.57 0 0 0 1.69.22l.15.85a4.14 4.14 0 0 1 -.7.06z"/><path d="m141.33 206.06v-.86a21.25 21.25 0 0 0 3.09-.28l.14.85a22.94 22.94 0 0 1 -3.23.29z"/><path d="m150.22 205.77h2.87v.86h-2.87z"/><path d="m154.39 200.29-.31-.8a6.22 6.22 0 0 1 3.09-.31l-.17.82a5.42 5.42 0 0 0 -2.61.29z"/><path d="m160.54 204.63h3.44v.86h-3.44z"/><path d="m164.56 200.32h3.44v.86h-3.44z"/><path d="m170.4 207.26a4.9 4.9 0 0 1 -2-.38l.38-.77a4.64 4.64 0 0 0 2.33.24l.12.85a5.55 5.55 0 0 1 -.83.06z"/><path d="m173.74 204.05h2.01v.86h-2.01z"/><path d="m181.35 200.64c-.25 0-.51 0-.76 0l.07-.86a14.74 14.74 0 0 0 3.62-.28l.15.85a18.43 18.43 0 0 1 -3.08.29z"/><path d="m181.57 207.81a6.41 6.41 0 0 1 -2.25-.34l.31-.81a7.12 7.12 0 0 0 2.8.27h.19v.86h-.19z"/><path d="m175 200.39a3.48 3.48 0 0 1 -1.77-.42l.46-.73a3.21 3.21 0 0 0 2 .23l.16.85a4.76 4.76 0 0 1 -.85.07z"/><path d="m81.95 211.8h4.02v.86h-4.02z"/><path d="m97.91 214.05-.37-.78a4.36 4.36 0 0 1 2.55-.32l-.14.85a3.47 3.47 0 0 0 -2.04.25z"/><path d="m93.57 211.24a6.47 6.47 0 0 1 -2.31-.33l.3-.81a7.61 7.61 0 0 0 2.86.27h.14v.86h-1z"/><path d="m106.73 213.5-.23-.83a8.39 8.39 0 0 1 3.33-.29l-.12.85a7.58 7.58 0 0 0 -2.98.27z"/><path d="m117.23 210.94h3.44v.86h-3.44z"/><path d="m124.23 215.25a4.47 4.47 0 0 1 -2.38-.38l.51-.7a6.66 6.66 0 0 0 2.39.21h.51v.86h-1z"/><path d="m129.93 212.38h-.38v-.86a8 8 0 0 0 2.45-.27l.23.83a8.67 8.67 0 0 1 -2.3.3z"/><path d="m138.51 215-.11-.85.67-.09a14.08 14.08 0 0 1 2.85-.2v.86a12.83 12.83 0 0 0 -2.68.19z"/><path d="m140 210.68a7.63 7.63 0 0 1 -2.53-.34l.29-.81a9 9 0 0 0 3.19.28h1v.86h-.94z"/><path d="m151.08 211.22h3.16v.86h-3.16z"/><path d="m161.85 217.79-.32-.8a7.12 7.12 0 0 1 2.82-.32h.78v.86h-.81a6.28 6.28 0 0 0 -2.47.26z"/><path d="m161 212.35-.24-.82a11.17 11.17 0 0 1 3.33-.31h.8v.86h-.89a10.5 10.5 0 0 0 -3 .27z"/></svg>