<svg viewBox="0 0 224 224" xmlns="http://www.w3.org/2000/svg"><path d="m220 160.22c2.42 2.77-4.52 8.84-6.64 10.49a30 30 0 0 1 -6.91-1.37q-.75-.27-1.47-.48v-.16c-3.6-1-9.48-11.73-2.66-10.92 5 .59 6.38 6.57 6.31 10.8.9-2.26 8.08-12.07 11.37-8.36z"/><path d="m192.22 152a25 25 0 0 0 -4.06-9.09 18.67 18.67 0 0 0 -2.64-2.62 23.6 23.6 0 0 0 -14.52-5.52 27.19 27.19 0 0 0 -8.39 1.15l-2.34-3.28c38-4.09 34.82 22.13 34.82 22.13.39 20.31-18.59 23.67-18.59 23.67-15.17 1.94-23.36-5.15-26.88-9.51a18.3 18.3 0 0 1 -2.13-3.18c-12.1-20.66 9.56-31.92 9.56-31.92.36.66.76 1.36 1.19 2.09 0 0-10.43 7.38-9.86 19.12a23.66 23.66 0 0 0 4.27 12 17.24 17.24 0 0 0 2.86 3.59c.31.31.65.62 1 .94 3.4 2.92 9.14 5.89 17.63 4.15a39.32 39.32 0 0 0 12.55-5.25l.62-.38s.36-.38.91-1.08a20.86 20.86 0 0 0 4-17.01z"/><path d="m184.18 112.82v.33l-1.88 1.85-2.48 2.43-4.82-.13h-1.36v-1c.92-.16 1.75 0 2.51-.48a23 23 0 0 0 2.38-1.81c.42-.35 1-.75 1.41-1.2h4.18z"/><path d="m165 116.72c.35-.25.82-.4 1.18-.67a8.3 8.3 0 0 0 1.3-1.14c.43-.47 1.23-1.08 1.93-1.76h2.87c.2.59.41 1.18.6 1.75a4.55 4.55 0 0 0 .81 1.41v1l-2-.06-3.88-.11-3-.08v-.17z"/><path d="m169.78 146 1.41 2-2.19 1.63a8 8 0 0 1 -2.32-1.69c-2.76-2.69-6-7.79-8.46-12-.43-.73-.83-1.43-1.19-2.09-1.57-2.79-2.6-4.81-2.6-4.81l-1.36-6.18-.64-2.89.2-.23-.81-3h-.11l-1.22-5.53h3.24l.8 3.83.37 1.77 2.45 11.78 1.76 2.48 1.14 1.59 2.34 3.28z"/><path d="m164.45 113.42h2.76l-.51.82c-.47.71-1.55 1.62-1.69 2.48l-.16.12v.16h-.3v-.08c0-1.18-.11-2.34-.1-3.5z"/><path d="m163.53 117h-1.41c-.41-.8-.43-1.83-.9-2.67a11.26 11.26 0 0 0 -.74-1.11h1.61c.41 1.38.91 2.84 1.88 3.47h.11a.73.73 0 0 0 .11.32v-.01z"/><path d="m160 116.86-2.66-.07v-1.79l1.14-1.85h2a11.26 11.26 0 0 1 .74 1.11c.47.84.49 1.87.9 2.67z"/><path d="m160 94.42c2.14 4.06-.36 4.94-.36 4.94a3.77 3.77 0 0 1 .36-4.94z"/><path d="m154.41 97.67-1 10.84-2.95-.59 1.71-6.59a5.42 5.42 0 0 0 2.24-3.66z"/><path d="m152.41 119.95.64 2.89-17.18 19.6.91-4.94z"/><path d="m151.69 116.72.68 3-15 3.07a8.91 8.91 0 0 0 -1.63-1.87l-.74-.51 3.14-.71z"/><path d="m149.66 98.7s1.1 1.88.73 3.23l-2.94.46s.82-2-.53-3z"/><path d="m144.13 93.76a11.26 11.26 0 0 0 1.16.62c-7.24 1.87-5.72-1.2-5.72-1.2 2.55.42 4.56.58 4.56.58z"/><path d="m141.35 103.22-3.94.73a2.14 2.14 0 0 1 -1-2l2.81-1a6.86 6.86 0 0 0 2.13 2.27z"/><path d="m140 160.66-2.35 4.2-8.93-3.32 1.36-4.71a14.12 14.12 0 0 0 4.32 2.43s3.75 2.25 5.6 1.4z"/><path d="m137.64 153.21-.17 4.87-1.1-.63v-5.35c.47.38.89.75 1.27 1.11z"/><path d="m133.8 109.32-1 1-2.8 3.1c-.11-.22-.26-.45-.42-.71l-4.47-6.95z"/><path d="m130.49 141.78-.67 4.25-3.9 3.82a6.36 6.36 0 0 0 -1-1.84l5.56-6.23z"/><path d="m105.94 107.33-2.33-5.4c2.77.36 18.19 2.28 19.86 1.28l1.65 2.56 4.47 6.95c.16.26.31.49.42.71 1.49 2.71.1 3.28.1 3.28l-.36.09-7.38 1.9-2.22-2.58-.37 3-7.06 1.21-1.13.19-1.89-4.41z"/><path d="m118 153.87-1.45-.71-.2-.1v-.06c0-.12.11-.43.21-.71s.19-.51.29-.52l1.11.43 5.53 2.15 2.54 1 3.81 1.48-.74 2.43-3.54-1.72-2.56-1.23z"/><path d="m112 65c-13.26-1.38-11.11-8.43-8.79-12.35a17.89 17.89 0 0 1 1.89-2.65 18.66 18.66 0 0 1 2.26-1.39 15.67 15.67 0 0 1 14.93.43c3.91-1.92 5.31 6.85 5.31 6.85a3.49 3.49 0 0 1 -1.26-.25 15.78 15.78 0 0 1 -1.91-.85s.89 1.55.44 1.77-6-2.58-6-2.58l-2.14 5.23c.15-2.13-1-1.91-1-1.91-5.53-.37-1.18 5.7-1.18 5.7l-.89 2.12z"/><path d="m118.15 122.84 5.32 2.54-12.52 1.82-1.2-3.39 8.39-.97z"/><path d="m116.69 72.44s4.4 1.49 3.45 4.39a8.28 8.28 0 0 0 -4.61-1.41c.22-2-6.09-2.14-6.09-2.14s0-.08.06-.11c.89-1.58 1.52-2.5 1.52-2.5s1.07 2.09 5.68 1.77z"/><path d="m111 127.2 6.21 17.53a8.87 8.87 0 0 0 -2.88.37l-.13-.37-5.78-16.73-1.35-4-.08-.23-.99-2.77-1.74-5.1a12.43 12.43 0 0 0 2.73.22l2.73 7.7z"/><path d="m115.53 83a26.93 26.93 0 0 0 2.2 2.1s-5 12.86-14.25 14.26h-.08l.21-2.51c9.28-1.4 11.92-13.85 11.92-13.85z"/><path d="m107.07 124 1.35 4-24.56 15.14-3.4 2.1-9.8 6-5.93.45a.79.79 0 0 0 0-.22l14-9.08 3.42-2.21z"/><path d="m107.36 48.63a18.66 18.66 0 0 0 -2.26 1.37 17.89 17.89 0 0 0 -1.87 2.63s-13.54.09-5.06-9.12c0 .02 8.5-7.02 9.19 5.12z"/><path d="m95 84.53 2.35-4a6.25 6.25 0 0 1 2.57-.12 31.89 31.89 0 0 0 3.6.53 6.2 6.2 0 0 0 2.64-.48 32.19 32.19 0 0 0 -2 9.32l-.41 4.77c-.55 6.6-4.75 6.22-4.75 6.22l-6-.52c-6.89.29-4.32-5-4.32-5zm5.24 7.71.49-1.59a7.15 7.15 0 0 1 -5.38-.73l-.91 1.87-2.44 5.06 6.72.45z"/><path d="m94.11 118.76c5.17.45 3.77 1.7 3.77 1.7v2.87c-1.64 1.18-15 .6-25 0l-2.21-.13c-5.14-.34-8.93-.65-8.93-.65-4.5-.29-2.73-3.76-2.73-3.76 2.43-4.67 35.1-.03 35.1-.03z"/><path d="m86.36 156.83v.3c-.94-.08-1.45.74-2.25.94.35-1-.25-1.08-1-.87l-.71-6.56c.54-.28 1.09-.71 1.47-.9 0 .4-.15.9.29.95s1-.69 1.26-.87c0 .61.22.69.53.56-.1.21.41 6.45.41 6.45z"/><path d="m85.92 148.82v.16l-3.87.59c.07-1.06-1.62-4.33-1.62-4.33l3.4-2.1c.56.62 2.09 5.68 2.09 5.68z"/><path d="m45.67 154c-.64 4.42-.74 11.5 3.69 16.42l.17.19c2.71 2.89 7 5 13.84 5.29a46.79 46.79 0 0 0 7.29-.29l.3-.13c.29-.12.76-.34 1.36-.66a23.37 23.37 0 0 0 5.44-4c.26-.26.52-.53.77-.82a18.2 18.2 0 0 0 4.74-11.06v-.19l2.68.12v.07c.14 3.3-1.85 8.5-1.85 8.5a15.45 15.45 0 0 1 -1.62 3.2c-3.33 5.11-11.27 12.11-25.52 8l-.27-.08c-17.43-5.28-14.69-25.5-14.69-25.5.81-22.57 26-19.84 26-19.84l-1.2 4.67a24.15 24.15 0 0 0 -9.82 1 15.6 15.6 0 0 0 -10.52 11 27.34 27.34 0 0 0 -.79 4.11z"/><path d="m82.09 140.22-3.42 2.21s-4.76-5.22-10.33-4.08l1.55-5.14c10.03 1.79 12.11 6.79 12.2 7.01z"/><path d="m60.4 59c1.07-.24 1.39 1.24.43 1.28-.75-.13-1.46-1.02-.43-1.28z"/><path d="m57 61.48a3.51 3.51 0 0 0 1.74 3 21.74 21.74 0 0 0 -2.31 2c-.7.65-1.94 2.84-2.91 2.67a4.41 4.41 0 0 1 .79-2.51c-.67.57-1.46 1.07-2.15 1.63a26.94 26.94 0 0 1 -2.68 2.36c-1.94 1.13-.33-2.82.26-3.55-.84.31-1.39 1.33-2.06 1.89-.36.31-1.92 1.87-2.44 1.67-1-.4 1.5-3.85 1.67-4.61-2.78.11-5.77 1.46-8.53 1.25.23-.77 1.69-1.24 2.42-1.47s1.81-.66 2.76-.95a7.89 7.89 0 0 0 2-.33 6.28 6.28 0 0 0 -2 .33 13.45 13.45 0 0 0 -1.63.2c-1 .2-3.42 1-4.27.26.61-.8 2.06-1 3-1.25a33.32 33.32 0 0 0 3.7-1.21 19.64 19.64 0 0 1 -4 .3c-.75 0-3.56.64-3.33-.67 2.5-.6 5-1.07 7.54-1.59 3.35-.69-.61-2.8-.36-4.61a8.74 8.74 0 0 1 3.31 2.51c.12-1.1-.74-2.06-.77-3.18a11.34 11.34 0 0 0 3.61 2.44 8.64 8.64 0 0 1 -.36-2.75c1 .72 7.13 5 7.25 4.89a3.64 3.64 0 0 0 -.25 1.28z"/><path d="m37.09 156c2.76 4.72-3.29 11.11-5.9 14.45v.17a38.89 38.89 0 0 1 -4.73-.15l.06-.63c1.48-1.84 7.48-19.09 10.57-13.84z"/><path d="m26.53 169.86-.06.63c-.35 0-.69-.07-1-.12-.67-.09-1.35-.21-2-.35-1.8-2.77-4.37-5.13-5.43-8.4-.7-2.13 0-6.29 3.17-5.61 4.1.87 4.63 10.65 5.32 13.85z"/><path d="m121 70.35a12.2 12.2 0 0 1 -2.09-.19 24.68 24.68 0 0 1 -4.91-1.42l.16-.41a24.72 24.72 0 0 0 4.75 1.4c2.8.47 4.86 0 6.13-1.32 2.32-2.44 1.31-7.09 1.3-7.14l-.04-.27h.28c.66 0 1.07-.1 1.15-.33.19-.49-.91-1.69-1.74-2.38l-.09-.07.22-2.59h.44l-.2 2.36c.51.44 2.12 1.9 1.78 2.81-.14.38-.57.58-1.3.6.19 1.07.71 5-1.46 7.27a5.83 5.83 0 0 1 -4.38 1.68z"/><path d="m113.8 65.37h-.15c-.51 0-1-.08-1.66-.14-5.44-.57-8.85-2.15-10.14-4.71s-.09-5.8 1.19-8a17.69 17.69 0 0 1 1.9-2.67 18.14 18.14 0 0 1 2.28-1.4 16 16 0 0 1 15 .37 2.36 2.36 0 0 1 2.12 0c2.45 1.28 3.36 6.82 3.4 7.06v.23h-.24a3.4 3.4 0 0 1 -1.35-.27 14 14 0 0 1 -1.34-.56 2.14 2.14 0 0 1 .26 1.21.46.46 0 0 1 -.22.27c-.43.21-3.47-1.2-6-2.48l-2.57 6.28.1-1.36c.07-1-.14-1.4-.33-1.56a.48.48 0 0 0 -.37-.13h-.06c-1.26-.09-2.07.17-2.39.75-.68 1.22.79 3.74 1.41 4.61l.07.1zm-1.8-.59c.55.06 1 .1 1.48.13l.78-1.86c-.4-.58-2.23-3.41-1.37-5 .42-.74 1.35-1.07 2.79-1a1 1 0 0 1 .71.23 1.53 1.53 0 0 1 .44.88l1.84-4.51.21.1a40 40 0 0 0 5.85 2.57 3.29 3.29 0 0 0 -.53-1.45l-.38-.66.67.36a17.51 17.51 0 0 0 1.88.83 4.33 4.33 0 0 0 .93.24c-.21-1.12-1.15-5.45-3.12-6.48a2 2 0 0 0 -1.83 0l-.11.06-.11-.07a15.57 15.57 0 0 0 -14.71-.41 17.68 17.68 0 0 0 -2.21 1.35 18.24 18.24 0 0 0 -1.83 2.58c-1.23 2.08-2.43 5.07-1.18 7.55s4.51 3.92 9.8 4.47z"/><path d="m126.45 66c-3.45 0-3.63-1.43-3.64-1.49h.44-.22.21s.21 1.1 3.21 1.1h.14v.39z"/><path d="m124.6 59.23c-.19-.62-.46-1-.79-1-.54-.11-1.21.55-1.42.81l-.34-.28s.93-1.14 1.84-1c.5.09.88.54 1.13 1.33z"/><path d="m103.19 52.87c-.55 0-6.48-.07-7.78-3-.73-1.64.15-3.83 2.6-6.49.17-.15 3.69-3 6.48-1.8 1.83.79 2.87 3.17 3.09 7h-.44c-.21-3.7-1.16-5.94-2.83-6.67-2.54-1.11-6 1.69-6 1.71-2.3 2.51-3.15 4.53-2.5 6 1.2 2.71 7.17 2.74 7.41 2.74v.44z"/><path d="m115.76 72.69c-3.91 0-4.91-1.84-5-1.92v-.07l1-5.74h.43l-1 5.62c.21.32 1.48 1.87 5.43 1.6a16.79 16.79 0 0 0 2-.26v-2h.44v2.39h-.18a19 19 0 0 1 -2.24.3z"/><path d="m143.72 104.17a4.56 4.56 0 0 1 -2.48-.76 7 7 0 0 1 -2.14-2.26l-11.24-6.39a12.34 12.34 0 0 1 -4.86-3.82l-2.81-4.18-.58.15-.09-.06c-.71-.55-1.35-1.08-1.92-1.58-.85-.74-1.59-1.46-2.21-2.12-2-2.16-2.93-4-2.79-5.56a2.32 2.32 0 0 1 .81-1.64 4.17 4.17 0 0 1 2.12-.75 8.35 8.35 0 0 1 4.74 1.45 23 23 0 0 1 4.08 3.18l-.3.31a23.63 23.63 0 0 0 -4.05-3.14 8 8 0 0 0 -4.49-1.38 3.75 3.75 0 0 0 -1.9.67 1.86 1.86 0 0 0 -.62 1.34c-.09 1 .31 2.64 2.67 5.2a29.9 29.9 0 0 0 2.18 2.09c.54.47 1.15 1 1.82 1.5l.67-.18 3 4.42a12 12 0 0 0 4.7 3.68l11.38 6.47a6.9 6.9 0 0 0 2 2.16c1.77 1.14 3.72.88 5.79-.78.11-.31.61-1.9-.47-2.72a3.25 3.25 0 0 0 -1.73-.47h-.24v-.25s.1-.56-.22-.8-.82-.31-2.41.52l-.11.06-7.71-4.94-4.12-3.29.27-.34 4.11 3.28 7.5 4.76c1.33-.67 2.24-.81 2.76-.42a1.19 1.19 0 0 1 .42 1 3.49 3.49 0 0 1 1.8.62c1.47 1.11.63 3.19.6 3.28a6.14 6.14 0 0 1 -3.93 1.69z"/><path d="m147.26 95.12a5 5 0 0 1 -2.06-.54 10.78 10.78 0 0 1 -1.14-.61c-.34 0-2.22-.19-4.52-.57-4-.66-6.89-1.54-8.62-2.61a7.07 7.07 0 0 1 -.7-.51 3.56 3.56 0 0 1 -.81-.91l-.29-.46c-.16-.26-.32-.51-.49-.75a36.78 36.78 0 0 0 -4-4.94l-.19-.19 1.33-.9-1.15-1.36s-.23-.25-.62-.62l.3-.32c.41.39.64.65.64.65l1.48 1.74-1.3.88a38.37 38.37 0 0 1 3.88 4.81c.17.25.34.5.5.76s.19.32.29.47a3.13 3.13 0 0 0 .72.8 5.74 5.74 0 0 0 .65.47c1.66 1 4.59 1.92 8.46 2.56 2.51.41 4.51.57 4.53.57h.06c.41.24.79.45 1.14.61a3.24 3.24 0 0 0 2.69.33 1.9 1.9 0 0 0 .92-1.37 3.17 3.17 0 0 0 .08-.59 3.82 3.82 0 0 0 -1-1.33c-1.6-1.35-3.66.4-3.69.41l-.09.09-7-2.33a10.11 10.11 0 0 1 -6.53-4.07l-4.91-7.19-4.36-3.1c-1.57-2.87-2.43-2.64-2.44-2.64l-.21-.39c.19-.1 1.24-.45 3 2.77l4.43 3.13 5 7.23a9.93 9.93 0 0 0 6.2 3.9l6.79 2.25c.47-.36 2.49-1.74 4.16-.34a4.31 4.31 0 0 1 1.1 1.53v.09a3.63 3.63 0 0 1 -.09.73 2.32 2.32 0 0 1 -1.15 1.67 2.18 2.18 0 0 1 -.99.19z"/><path d="m120.35 76.9-.42-.13c.87-2.67-3.27-4.1-3.31-4.12l.14-.41s4.59 1.58 3.59 4.66z"/><path d="m120.9 103.7c-4.73 0-14-1.13-17.31-1.56h-.43-.21l1-12.3a32.43 32.43 0 0 1 2-9.37 49.61 49.61 0 0 1 3.27-7.21l.06-.11c.88-1.57 1.52-2.52 1.53-2.53l.36.25s-.64.94-1.51 2.48a.45.45 0 0 1 -.06.12 48.18 48.18 0 0 0 -3.23 7.14 31.69 31.69 0 0 0 -2 9.26l-1 11.89h.22c8 1 17.83 2 19.57 1.37-.38-1.5-2.83-11.34-2.12-15.07v-.06h.05l.14.13h.24v.06c-.73 3.86 2.13 14.94 2.16 15v.16l-.14.09a6.92 6.92 0 0 1 -2.59.26z"/><path d="m115.75 75.45h-.44a.74.74 0 0 0 -.2-.6c-1.07-1.23-5.63-1.33-5.68-1.33v-.44c.2 0 4.8.11 6 1.48a1.17 1.17 0 0 1 .32.89z"/><path d="m103.65 97.07-.07-.43c9-1.37 11.71-13.56 11.74-13.69l.43.1c-.03.12-2.75 12.61-12.1 14.02z"/><path d="m103.51 99.58-.07-.43c4.72-.72 8.29-4.51 10.46-7.56a34 34 0 0 0 3.62-6.59l.41.15c-.05.16-5.12 13.02-14.42 14.43z"/><path d="m103.74 81.16h-.22a30.81 30.81 0 0 1 -3.62-.54 6.24 6.24 0 0 0 -2.49.13c-.28 0-.62.12-1 .17a3.61 3.61 0 0 1 -.92 0c-.54-.06-.9-.28-1-.62s0-.76.8-1.43a29.92 29.92 0 0 1 3.19-2.3c.58-.37 1.18-.7 1.77-1s1.39-.75 2-1.19c.36-.25.71-.51 1.08-.8a10.48 10.48 0 0 1 2.58-1.58 4.19 4.19 0 0 1 3.74 1l-.31.31a3.74 3.74 0 0 0 -3.27-.92 10.45 10.45 0 0 0 -2.42 1.53c-.35.28-.72.56-1.09.81-.68.46-1.39.84-2.08 1.22s-1.18.63-1.75 1a29 29 0 0 0 -3.14 2.27c-.7.58-.68.89-.66 1s.28.27.63.31a3.28 3.28 0 0 0 .81 0c.35 0 .68-.11 1-.16a6.43 6.43 0 0 1 2.65-.13 30.25 30.25 0 0 0 3.57.53 5.81 5.81 0 0 0 2.51-.45.3.3 0 0 0 .16-.16l.42.14a.79.79 0 0 1 -.34.4 6.17 6.17 0 0 1 -2.6.46z"/><path d="m99.19 101h-.19l-6-.51c-2.27.1-3.81-.41-4.53-1.52-1-1.57 0-3.72 0-3.81l8.65-14.72.38.22-8.64 14.7s-1 2 0 3.37c.63 1 2 1.41 4.17 1.32l6 .52a3.65 3.65 0 0 0 2.43-.9c1.19-1 1.89-2.72 2.09-5.12h.44c-.21 2.52-1 4.35-2.26 5.43a4.09 4.09 0 0 1 -2.54 1.02z"/><path d="m98.85 97.53-7.22-.48 3.65-7.44.21.13a7 7 0 0 0 5.21.7l.38-.1zm-6.54-.87 6.22.41 1.9-6.12a7.36 7.36 0 0 1 -5-.72z"/><path d="m93.73 84.81c-.71 0-1.41-.11-1.66-.61l-.07-.13.09-.11a7.16 7.16 0 0 1 1.48-1.3 4.06 4.06 0 0 0 1.76-2v-.17l.42.13-.06.17a4.43 4.43 0 0 1 -1.87 2.21 7.26 7.26 0 0 0 -1.28 1.09c.35.33 1.37.27 2 .23h.47.06v.43h-.45c-.31.04-.62.06-.89.06z"/><path d="m98.82 92.73a19.67 19.67 0 0 1 -4.42-.73l.12-.42c1.22.35 4.62 1.11 5.62.47l.24.37a3 3 0 0 1 -1.56.31z"/><path d="m111.46 120.71-8-18.7.4-.17 7.92 18.38 7.85-1.35.41-3.28 2.45 2.85 7.62-2a.89.89 0 0 0 .35-.48 3.26 3.26 0 0 0 -.59-2.48 7.83 7.83 0 0 0 -.41-.7l-6.12-9.51.36-.24 6.13 9.51c.16.26.31.51.43.73a3.73 3.73 0 0 1 .61 2.85 1.25 1.25 0 0 1 -.63.73l-7.9 2-2-2.31-.33 2.62z"/><path d="m130.17 113.57-.32-.3 3.57-3.86-8.38-3.45.16-.4 8.97 3.68z"/><path d="m138.38 119.78h-.44l.43-3.54a3.82 3.82 0 0 0 -.61-3c-1.49-2.07-4.91-2.59-4.95-2.59l.06-.44c.15 0 3.64.55 5.24 2.77a4.21 4.21 0 0 1 .69 3.34z"/><path d="m108.7 116.4c-.31 0-.63 0-.94 0h-.74a12.34 12.34 0 0 1 -2.78-.23 5.61 5.61 0 0 1 -3.74-2.56 2.9 2.9 0 0 1 .06-2.61 5.33 5.33 0 0 1 2.43-2.56l.47-.27a5.69 5.69 0 0 1 2.48-1v.44a5.52 5.52 0 0 0 -2.26.93l-.48.28a5 5 0 0 0 -2.25 2.35 2.49 2.49 0 0 0 0 2.24 5.26 5.26 0 0 0 3.44 2.33 12.6 12.6 0 0 0 2.68.21h.77a5.38 5.38 0 0 0 1.83-.07l.23.38h-.06a3.06 3.06 0 0 1 -1.14.14z"/><path d="m114.12 145.31-.18-.51-9.86-28.84.42-.14 10.03 29.35z"/><path d="m116.49 163.08a8.33 8.33 0 0 1 -6.73-3l-.05-.06a11.17 11.17 0 0 1 -2.21-5c.34-5.71 2.94-8.23 5-9.35a7.73 7.73 0 0 1 .91-.42l.79-.27a9.49 9.49 0 0 1 2.62-.39l-10-28.32.42-.15 10.23 28.88h-.33a9 9 0 0 0 -2.8.37c-.24.07-.48.16-.75.26a7.65 7.65 0 0 0 -.86.4c-2.89 1.53-4.56 4.62-4.82 8.95a11.14 11.14 0 0 0 2.11 4.77.08.08 0 0 0 0 0c2.24 2.73 5.58 3.52 9.93 2.38a7.85 7.85 0 0 0 5.31-4.68 1.07 1.07 0 0 0 .07-.19l.42.13a1.43 1.43 0 0 1 -.08.22 8.33 8.33 0 0 1 -5.61 4.95 14.69 14.69 0 0 1 -3.57.52z"/><path d="m132.16 115.41h.44v6.42h-.44z" transform="matrix(.57142994 -.82065085 .82065085 .57142994 -40.62 159.47)"/><path d="m140.85 160.24-10.26-5.81c-1.45-.88-1.69-2.72-1.63-4.11a10.6 10.6 0 0 1 .29-2.11l2.42-15.21c.48-3.54-1.82-4.33-1.85-4.34l-11.77-5.66.19-.4 11.76 5.63s2.65.9 2.12 4.8l-2.42 15.27a9.59 9.59 0 0 0 -.28 2c-.06 1.27.15 2.95 1.41 3.72l9.77 5.53c.13-.76.16-3.13-3.09-6.22-.39-.37-.81-.74-1.26-1.1s-.77-.6-1.16-.87l-.92-.84 3.76-20.52a8.3 8.3 0 0 0 -.73-7 8.49 8.49 0 0 0 -1.59-1.82l-.71-.5.25-.36.73.51a9.18 9.18 0 0 1 1.69 1.93 8.61 8.61 0 0 1 .78 7.41l-3.72 20.27.71.65c.38.27.78.57 1.17.88s.89.74 1.28 1.12c4.19 4 3.19 6.83 3.15 6.95z"/><path d="m118.05 123.04-5.42-2.57.19-.4 5.42 2.57z"/><path d="m113.8 135.7h19.34v.44h-19.34z" transform="matrix(.26589263 -.96400265 .96400265 .26589263 -40.39 218.8)"/><path d="m120.98 141.33h14.52v.44h-14.52z" transform="matrix(.45507873 -.89045121 .89045121 .45507873 -56.16 191.34)"/><path d="m109.78 124.03-.05-.44 8.39-.97.03.44z"/><path d="m110.88 126.07h12.65v.44h-12.65z" transform="matrix(.99 -.14 .14 .99 -17.01 18.25)"/><path d="m102.21 118.73h.44v9.16h-.44z" transform="matrix(.10244531 -.99473864 .99473864 .10244531 -30.72 212.58)"/><path d="m101.74 116.64h.44v8.17h-.44z" transform="matrix(.06435814 -.99792687 .99792687 .06435814 -25.08 214.69)"/><path d="m90.62 124.23q-6.3 0-17.76-.71l-1.55-.09h-.67c-5.07-.34-8.89-.65-8.93-.65-1.51-.1-2.52-.56-3-1.39a3.14 3.14 0 0 1 .09-2.69c2.48-4.73 34-.3 35.33-.11 2.53.21 3.87.65 4.1 1.33a.74.74 0 0 1 -.14.67v2.89l-.1.07c-.66.45-3.13.68-7.37.68zm-21.49-7.32c-7.17 0-9.43 1-9.93 2a2.69 2.69 0 0 0 -.09 2.27c.38.68 1.27 1.07 2.64 1.16 0 0 3.85.31 8.92.65h.67l1.54.09c14.49.91 23.26 1 24.78.13v-2.85l.07-.06a.3.3 0 0 0 .09-.28c-.06-.18-.51-.76-3.73-1-.09 0-8.27-1.17-16.64-1.74-3.32-.28-6.07-.37-8.32-.37z"/><path d="m51.21 138.04h31.16v.44h-31.16z" transform="matrix(.24801363 -.96875654 .96875654 .24801363 -83.72 168.66)"/><path d="m53.72 137.33h29.71v.44h-29.71z" transform="matrix(.28919888 -.95726904 .95726904 .28919888 -82.93 163.43)"/><path d="m64.07 153.28-.42-.13.47-1.59h.17l.42-.04 5.88-.44 37.72-23.28.23.37-37.82 23.34h-.05l-6.22.48z"/><path d="m64.41 151.96-.24-.37.39-.25 17.41-11.3.24.37z"/><path d="m79.69 131.9h29.78v.44h-29.78z" transform="matrix(.83829013 -.5452244 .5452244 .83829013 -56.74 72.93)"/><path d="m63.72 158.29a2.61 2.61 0 0 1 -1.36-.38 2.64 2.64 0 0 1 -1.27-2 1.46 1.46 0 0 1 0-.3 2.46 2.46 0 0 1 .1-.72 2.65 2.65 0 0 1 1.2-1.56 2.56 2.56 0 0 1 .48-.22 2.49 2.49 0 0 1 .87-.15h.16a2.65 2.65 0 0 1 1.72 4.52 2.49 2.49 0 0 1 -.69.49 2.57 2.57 0 0 1 -1.21.32zm0-4.86a2.24 2.24 0 0 0 -.73.12 2.33 2.33 0 0 0 -.39.19 2.19 2.19 0 0 0 -1 1.3 2 2 0 0 0 -.08.6 1.93 1.93 0 0 0 0 .24 2.21 2.21 0 0 0 3.19 1.74 2 2 0 0 0 .58-.41 2.21 2.21 0 0 0 -1.44-3.77h-.13z"/><path d="m70.69 151.51-.07-.44 43.49-6.56.07.43-.13.03z"/><path d="m110.04 160.14h-.12l-45.12-2.1.02-.44 45.24 2.1z"/><path d="m78.51 142.59c-.05-.05-4.74-5.12-10.13-4l-.09-.43c5.63-1.14 10.5 4.1 10.54 4.15z"/><path d="m82.3 149.58h-.43c0-.82-1.14-3.31-1.61-4.21l.39-.2c.18.31 1.72 3.32 1.65 4.41z"/><path d="m65.08 176.11c-.59 0-1.16 0-1.72 0-6.2-.27-10.91-2.07-14-5.36l-.17-.19c-4.61-5.11-4.33-12.6-3.75-16.6a27.49 27.49 0 0 1 .88-4.1 15.76 15.76 0 0 1 10.68-11.16 24.58 24.58 0 0 1 9.92-1l-.06.43a24.12 24.12 0 0 0 -9.72 1 15.33 15.33 0 0 0 -10.39 10.87 26.76 26.76 0 0 0 -.86 4c-.57 3.93-.86 11.27 3.64 16.25l.17.18c3 3.2 7.59 5 13.68 5.23a47.79 47.79 0 0 0 7.22-.29l.27-.12a14.9 14.9 0 0 0 1.35-.65 23.38 23.38 0 0 0 5.39-4c.29-.3.54-.55.76-.8a18 18 0 0 0 4.68-10.94v-.15l-.87-8h.44l.89 8.23a18.43 18.43 0 0 1 -4.79 11.24c-.23.26-.48.52-.78.82a23.75 23.75 0 0 1 -5.51 4 13.39 13.39 0 0 1 -1.38.67l-.32.14a50.74 50.74 0 0 1 -5.65.3z"/><path d="m65.37 153.29h-.11c-.75 0-.74-.7-.74-1.14a2.29 2.29 0 0 0 0-.37 1.39 1.39 0 0 0 0-.17v-.08h.23l.2-.08a1.09 1.09 0 0 1 .06.28v.43c0 .47 0 .63.22.68l1.18-1.39 1 1.19a2.66 2.66 0 0 0 .38-.46 2.81 2.81 0 0 1 .46-.56l.14-.12.14.12a2.44 2.44 0 0 1 .38.43 1.12 1.12 0 0 0 .46.43c.24.1.35 0 .62-.41a1.93 1.93 0 0 1 .49-.57l.28-.2.06.34c.09.52.23.62.29.64.24.08.75-.42 1.09-.75a6.33 6.33 0 0 1 .5-.45l.35-.28v.46c0 .82.15.9.15.9s.24 0 1-.9l.41-.51v.66c0 .5.06.68.11.7.23.1 1-.72 1.39-1.07a6.64 6.64 0 0 1 .58-.55l.39-.32v.51c0 .43 0 .58.1.6s.68-.26 1.22-.86l.32-.35.06.47a1.11 1.11 0 0 0 .14.41 2.31 2.31 0 0 0 .62-.51l.41-.5v.65a.56.56 0 0 0 0 .21 2.53 2.53 0 0 0 .59-.43l.26-.22.24-.18.1.28a.64.64 0 0 0 .32.4 1.26 1.26 0 0 0 .92-.21c.26-.14.53-.31.79-.48a6.17 6.17 0 0 1 .69-.41l.29-.15v.33a1.82 1.82 0 0 1 0 .33c0 .4 0 .4.1.41s.61-.4.81-.57.23-.21.3-.26l.37-.26v.45c0 .32.06.38.06.38s.06 0 .17 0a3.86 3.86 0 0 0 1-.8l.47-.49-.1.67c0 .12 0 .35.07.41.35.23 1.71-.59 2.16-.86l.34-.21.44-.22-.12.48c-.12.45-.05.55-.05.55s.42 0 1.62-1l.64-.52-.14.61v.3s.35-.11 1.16-.75l.2-.16.27-.19.07.32c.08.39.23.61.45.65.42.07 1-.42 1.33-.9l.42-.68v.8c0 .18 0 .24.22.39a1.87 1.87 0 0 0 1-.6 4.29 4.29 0 0 1 .63-.47l.35-.19v.39c0 .25 0 .41.09.46s1-.34 1.42-.61a3.92 3.92 0 0 1 1-.51l.49-.15-.24.46a2.6 2.6 0 0 0 -.15.42 3.18 3.18 0 0 0 1.35-.14 2.73 2.73 0 0 0 .47-.27 2.5 2.5 0 0 1 .8-.4l.57-.14-.34.48a1.17 1.17 0 0 0 -.12.25 6.37 6.37 0 0 0 1.53-.7l.57-.4-.24.65c-.12.31-.07.39-.07.39s.49.1 2.5-1.11l.36-.21.35-.19v.4a2 2 0 0 1 -.08.4.63.63 0 0 0 0 .21.35.35 0 0 0 .14 0c.3 0 .55-.11.88-.51l.79-1-.31.9a.38.38 0 0 1 .36 0 2 2 0 0 0 .77-.39 2.92 2.92 0 0 1 .77-.43 3.34 3.34 0 0 1 .52-.09h.18a1.27 1.27 0 0 0 .28-.06 1.33 1.33 0 0 0 .49-.3 1.84 1.84 0 0 0 .46-.56l.08-.15.39.2-.09.17a2.47 2.47 0 0 1 -.55.67 1.63 1.63 0 0 1 -.64.38 1.5 1.5 0 0 1 -.35.09h-.2a2.89 2.89 0 0 0 -.44.07 2.55 2.55 0 0 0 -.65.37 1.85 1.85 0 0 1 -1.18.47h-.21a.82.82 0 0 1 -.29.07 1.28 1.28 0 0 1 -1.13.49.59.59 0 0 1 -.45-.22.52.52 0 0 1 0-.42c-1.49.89-2.5 1.36-2.92 1a.46.46 0 0 1 -.17-.36 4.68 4.68 0 0 1 -1.65.58h-.33l.11-.31c0-.05 0-.1 0-.15l-.18.12a3.73 3.73 0 0 1 -.56.32 4 4 0 0 1 -1.7.16h-.29v-.14a2.36 2.36 0 0 1 0-.28l-.39.24c-.7.43-1.42.88-1.87.61a.59.59 0 0 1 -.28-.44l-.25.21a2 2 0 0 1 -1.48.7h-.21l-.1-.08a1.54 1.54 0 0 1 -.25-.26 1.81 1.81 0 0 1 -1.5.74.93.93 0 0 1 -.72-.66c-.77.61-1.28.92-1.61.72a.41.41 0 0 1 -.17-.24c-.93.75-1.55 1.12-1.92.87a.56.56 0 0 1 -.22-.54c-1 .61-2 1.15-2.55.81a.58.58 0 0 1 -.23-.32 3.24 3.24 0 0 1 -.81.57.63.63 0 0 1 -.6 0 .58.58 0 0 1 -.2-.31c-.47.4-.82.68-1.11.65-.48-.06-.5-.48-.49-.78l-.31.2c-.25.16-.55.35-.83.5a1.56 1.56 0 0 1 -1.28.22.85.85 0 0 1 -.44-.38 1.71 1.71 0 0 1 -1.07.58h-.2v-.33a2.57 2.57 0 0 1 -.44.29l-.28.17-.12-.12a1.56 1.56 0 0 1 -.26-.39c-.4.39-1 .87-1.45.69a.65.65 0 0 1 -.34-.54l-.2.2c-.8.81-1.4 1.37-1.87 1.16a.69.69 0 0 1 -.36-.54c-.43.48-.78.72-1.11.61s-.38-.36-.42-.85l-.12.12c-.51.49-1 1-1.53.85a.82.82 0 0 1 -.49-.58 1.27 1.27 0 0 0 -.13.19c-.23.35-.54.84-1.16.57a1.48 1.48 0 0 1 -.65-.57 1.16 1.16 0 0 0 -.16-.21 3.14 3.14 0 0 0 -.24.33 1.93 1.93 0 0 1 -.69.7l-.15.07-.92-1.07z"/><path d="m109.69 160a1.3 1.3 0 0 0 -.25-.14 2 2 0 0 1 -.6-.39.41.41 0 0 0 -.13.1.57.57 0 0 1 -.73.08l-.16-.08v-.17a2.06 2.06 0 0 0 .07-.62 4.91 4.91 0 0 0 -.84.54l-.64.47.31-.73a.8.8 0 0 0 0-.28 7.47 7.47 0 0 0 -1 .28l-.61.18-.27.07v-.81a3.69 3.69 0 0 0 -1 .5l-.52.3-.44.22.15-.54a3.63 3.63 0 0 0 .1-.45 4.4 4.4 0 0 0 -1.64.54 6.81 6.81 0 0 1 -.62.29l-.39.16.09-.41c0-.1 0-.19.07-.27.08-.32.08-.32-.15-.41s-.77.14-1.18.32-.93.42-1.22.24a.61.61 0 0 1 -.29-.7v-.06h-.17c-.33 0-.89.55-1.19.84l-.22.21-.35.31v-.46-.35a1 1 0 0 0 0-.28 1.16 1.16 0 0 0 -.3-.05 2.16 2.16 0 0 0 -1 .29 2.8 2.8 0 0 1 -.84.29h-.26v-.26c0-.23 0-.53-.15-.65s-.83 0-1.35.18a4.2 4.2 0 0 1 -1.08.26h-.3l.08-.29c.1-.33.07-.5 0-.54-.22-.18-1.25.36-1.69.58a5.86 5.86 0 0 1 -.62.31l-.34.12v-.36c0-.41 0-.7-.12-.78-.31-.2-1.32.44-1.7.68l-.76.49.56-.77a1.24 1.24 0 0 0 .13-.67 2.13 2.13 0 0 0 -1.07.45 3 3 0 0 1 -1 .48l-.39.1.13-.38c.1-.3.12-.54 0-.62s-.19-.13-.77 0a11.5 11.5 0 0 0 -1.2.47 3.22 3.22 0 0 1 -.72.26h-.23v-.23c0-.09 0-.19 0-.29s0-.43-.07-.49c-.3-.18-1.11.48-1.32.8l-.42.65v-.77c0-.27 0-.55 0-.83a2.36 2.36 0 0 0 -.46.17 1.82 1.82 0 0 1 -.78.23h-.13l.06-.27c0-.29 0-.4 0-.42-.21-.15-1.18.43-1.55.64a2.33 2.33 0 0 1 -.64.33h-.19l-.06-.18c-.15-.43-.26-.51-.3-.52s-.28.1-.46.22a3.19 3.19 0 0 1 -.78.44l-.29.09v-.3a1.48 1.48 0 0 1 0-.21 3 3 0 0 0 0-.61c-.33 0-.53.31-.79.76l-.11.18-.15.25-.2-.22a2.16 2.16 0 0 1 -.29-.44 1.05 1.05 0 0 0 -.08-.13 1.25 1.25 0 0 0 -.34.11 1.56 1.56 0 0 0 -.38.27.85.85 0 0 1 -.67.28c-.2 0-.37-.18-.54-.47a1.83 1.83 0 0 1 -.18-.58.71.71 0 0 0 -.09-.27s-.09 0-.46.17a1.37 1.37 0 0 0 -.71 1v.23h-.3c-.58 0-.69-.86-.76-1.46a3.94 3.94 0 0 0 -.86.68 4.74 4.74 0 0 1 -.75.62l-.23-.38a4.55 4.55 0 0 0 .68-.56 2.88 2.88 0 0 1 1.31-.86h.21v.21.24a4.18 4.18 0 0 0 .18.92 2 2 0 0 1 .88-1c.4-.23.66-.28.86-.19s.28.35.33.59a1.6 1.6 0 0 0 .13.44c.14.23.22.26.24.26s.2-.1.31-.19a1.81 1.81 0 0 1 .5-.33c.54-.23.75-.19 1 .21l.06.1c.26-.45.63-1 1.32-.83h.12v.11a2.26 2.26 0 0 1 .11.76l.39-.25c.29-.19.55-.38.84-.28s.36.24.5.58l.43-.07c.89-.54 1.61-.92 2-.63a.64.64 0 0 1 .23.55 1.88 1.88 0 0 0 .34-.14 1.83 1.83 0 0 1 .86-.23h.2v.2.51c.42-.38 1-.75 1.5-.48a.83.83 0 0 1 .28.84l.34-.15a10.82 10.82 0 0 1 1.25-.47c.38-.11.92-.22 1.21.09a.76.76 0 0 1 .16.63 3.57 3.57 0 0 0 .45-.27 2.29 2.29 0 0 1 1.51-.53h.17v.18a2.48 2.48 0 0 1 0 .54c.66-.38 1.28-.64 1.69-.38a.91.91 0 0 1 .34.83l.25-.13c1-.51 1.76-.88 2.17-.54a.72.72 0 0 1 .19.68 5.12 5.12 0 0 0 .68-.2c.65-.21 1.32-.43 1.75-.11a1 1 0 0 1 .32.74 4.18 4.18 0 0 0 .45-.2 2.3 2.3 0 0 1 1.18-.32c.58 0 .7.2.72.59a2.49 2.49 0 0 1 1.34-.82.66.66 0 0 1 .53.16.45.45 0 0 1 .08.41c0 .15 0 .2.09.27s.55-.15.81-.27a2.23 2.23 0 0 1 1.51-.33c.51.19.53.46.47.75l.19-.09a4.09 4.09 0 0 1 2.06-.59h.19v.18a1.53 1.53 0 0 1 0 .37h.06a3.24 3.24 0 0 1 1.42-.6h.23v.74l.31-.1a6.43 6.43 0 0 1 1.36-.33h.29l-.06.28a.57.57 0 0 0 0 .13c.41-.29.72-.43 1-.28s.23.46.15.9c0 0 .05 0 .09-.06a.9.9 0 0 1 .52-.24h.18v.17c0 .09.34.24.47.31a1.63 1.63 0 0 1 .33.18z"/><path d="m126.26 155.32-.43-.09a9.75 9.75 0 0 0 -.12-5.3 6.08 6.08 0 0 0 -.95-1.78 7.85 7.85 0 0 0 -4-2.61 12.83 12.83 0 0 0 -3.64-.59v-.44a13 13 0 0 1 3.78.62 8.25 8.25 0 0 1 4.17 2.75 6.46 6.46 0 0 1 1 1.9 10.33 10.33 0 0 1 .19 5.54z"/><path d="m129.21 159.57-13.15-6.39.06-.22c0-.19.12-.48.21-.73.16-.47.28-.64.47-.67h.06l13.23 5.15zm-12.64-6.63 1.5.73 10.87 5.33.61-2-12.67-5c0 .06-.07.16-.14.34z"/><path d="m139 161.07a11.53 11.53 0 0 1 -4.71-1.62 14.22 14.22 0 0 1 -4.35-2.46.87.87 0 0 1 -.15-.13 4.75 4.75 0 0 1 -.77-6.67l.33.28a4.27 4.27 0 0 0 .74 6.07l.12.11a14.11 14.11 0 0 0 4.27 2.41c.07 0 3.71 2.2 5.42 1.4a1.27 1.27 0 0 0 .64-.63l.4.19a1.7 1.7 0 0 1 -.85.84 2.56 2.56 0 0 1 -1.09.21z"/><path d="m136.15 152.1h.44v5.35h-.44z"/><path d="m135.12 155.42h4.87v.44h-4.87z" transform="matrix(.03507392 -.99938472 .99938472 .03507392 -22.82 287.65)"/><path d="m137.74 165.13-9.3-3.45 1.41-4.91.43.12-1.31 4.52 8.57 3.18 2.25-4.03.4.19z"/><path d="m116 160.67c-.29 0-.56 0-.83 0a6.21 6.21 0 0 1 -5.83-5 8.16 8.16 0 0 1 -.23-2 7.28 7.28 0 0 1 3.38-5.95 9.9 9.9 0 0 1 5.79-1.19 13.57 13.57 0 0 1 2.53.95 5.84 5.84 0 0 1 3.15 3.31 5.18 5.18 0 0 1 -.28 3.7l-.39-.2a4.87 4.87 0 0 0 .25-3.37 5.41 5.41 0 0 0 -2.93-3 12.4 12.4 0 0 0 -2.41-.91 9.67 9.67 0 0 0 -5.48 1.14 6.85 6.85 0 0 0 -3.17 5.6 7.57 7.57 0 0 0 .22 1.85 5.7 5.7 0 0 0 5.44 4.68 13.36 13.36 0 0 0 4.46-.49 5.21 5.21 0 0 0 .69-.37 5.79 5.79 0 0 0 2.46-3.09 1.46 1.46 0 0 0 0-.2l.43.1a2 2 0 0 1 -.07.23 6.21 6.21 0 0 1 -2.63 3.33 7.94 7.94 0 0 1 -.79.42 15.56 15.56 0 0 1 -3.76.46z"/><path d="m118.12 152.34-.36-.26a22.86 22.86 0 0 0 1.52-2.49c.39-.71.8-1.44 1.23-2.07a1.88 1.88 0 0 1 .12-.18l.37.24a.94.94 0 0 0 -.12.18c-.42.62-.83 1.34-1.22 2.05a24 24 0 0 1 -1.54 2.53z"/><path d="m116.37 152.44a5.46 5.46 0 0 0 -.8-.69 5 5 0 0 1 -1.08-1c-.11-.17-.21-.35-.32-.53a6.55 6.55 0 0 0 -.51-.81 5.46 5.46 0 0 0 -.53-.54 3.34 3.34 0 0 1 -.74-.88l.39-.22a2.84 2.84 0 0 0 .65.78 5.45 5.45 0 0 1 .57.59 7.82 7.82 0 0 1 .55.86c.1.17.2.34.31.51a4.6 4.6 0 0 0 1 .89 6.29 6.29 0 0 1 .87.76z"/><path d="m109.53 155.79v-.22l-.15-.16h.08c1.7-.69 3.48-1.34 5.19-2l1.6-.59.23.39-1.63.6c-1.7.62-3.46 1.26-5.15 1.95z"/><path d="m115.18 160.54h-.1l-.07-.08c-.08-.1-.06-.2 0-.61 0-.07 0-.14 0-.19a3.64 3.64 0 0 1 .12-.53l.09-.29c.1-.43.16-.88.22-1.31 0-.15 0-.3.07-.44.12-.81.28-1.61.43-2.39.1-.52.21-1 .3-1.58v-.05h.44v.11c-.1.53-.2 1.06-.31 1.59-.15.77-.31 1.57-.43 2.36l-.06.44c-.07.44-.13.9-.24 1.35 0 .1 0 .21-.08.31a3.36 3.36 0 0 0 -.12.48v.21l-.07.36h-.17l.18.09z"/><path d="m120.66 159.62-.41-.16c.08-.35-.34-1.12-.64-1.68a8.52 8.52 0 0 1 -.4-.81c-.15-.38-.44-1-.74-1.57s-.5-1-.7-1.45a.24.24 0 0 1 0-.07l.4-.16c.2.45.46 1 .7 1.45s.6 1.21.76 1.62c.08.19.22.46.38.75a3.57 3.57 0 0 1 .67 2z"/><path d="m81.89 140.31c-.22-.53-2.42-5.15-12-6.88l.08-.43c9.85 1.77 12.13 6.59 12.36 7.14v.08h-.23z"/><path d="m65.18 180.05a29.77 29.77 0 0 1 -8.3-1.26l-.28-.08c-17.38-5.21-14.81-25.47-14.78-25.71.23-6.25 2.35-11.17 6.32-14.61 7.7-6.66 19.84-5.43 20-5.42v.44c-.12 0-12.07-1.22-19.62 5.31-3.87 3.36-6 8.18-6.17 14.32 0 .22-2.55 20.12 14.47 25.22l.27.08c15.3 4.4 22.77-4.07 25.27-7.92a14.72 14.72 0 0 0 1.61-3.15c0-.06 2-5.2 1.83-8.42h.43c.15 3.31-1.77 8.38-1.85 8.59a15.76 15.76 0 0 1 -1.65 3.24 20.32 20.32 0 0 1 -17.55 9.37z"/><path d="m86.14 156.85c-.31-3.84-.45-6-.42-6.47s0-.06 0-.08l.2.08h.22v.09c0 .26.25 4 .43 6.34z"/><path d="m85.71 148.89a37.84 37.84 0 0 0 -2-5.61l.29-.28c.54.64 1.94 5.24 2.1 5.76z"/><path d="m62.33 153.77c0-.05 0-.1 0-.15a23.55 23.55 0 0 1 -.73-3 22.85 22.85 0 0 0 -.71-3 50.85 50.85 0 0 0 -4-8.65v-.09l.39-.2v.08a52.1 52.1 0 0 1 4 8.72 24.45 24.45 0 0 1 .72 3 21.63 21.63 0 0 0 .71 2.93 1.21 1.21 0 0 1 .05.14z"/><path d="m55.4 155.49a26.54 26.54 0 0 1 -4.58-.51l-.48-.08c-.44-.07-.9-.18-1.38-.29a11.06 11.06 0 0 0 -3.27-.44v-.22-.22a11.48 11.48 0 0 1 3.39.45c.48.11.93.22 1.35.29l.48.08a26 26 0 0 0 4.51.5 29.89 29.89 0 0 0 3.43-.14l.48-.07a6.31 6.31 0 0 1 2.12-.07l.27.07-.14.42a.79.79 0 0 0 -.22-.06 6 6 0 0 0 -2 .07l-.49.07a28.68 28.68 0 0 1 -3.47.15z"/><path d="m49.52 170.53-.18-.14-.15-.16a10.35 10.35 0 0 0 1.33-2.09c.14-.26.27-.51.4-.73.38-.67.82-1.32 1.24-1.95l.52-.79a25.84 25.84 0 0 1 1.61-2.13c.51-.62 1-1.27 1.49-1.95a13.72 13.72 0 0 1 2.85-3.13 7.76 7.76 0 0 1 1-.62 4.46 4.46 0 0 0 1.46-1l.39.21a4.52 4.52 0 0 1 -1.64 1.21 6.89 6.89 0 0 0 -1 .58 13.31 13.31 0 0 0 -2.76 3c-.46.69-1 1.34-1.51 2a24.37 24.37 0 0 0 -1.58 2.09l-.53.79c-.41.63-.84 1.27-1.22 1.93-.13.22-.26.46-.4.72a10.94 10.94 0 0 1 -1.32 2.16z"/><path d="m63.46 176.14-.35-.27a.54.54 0 0 0 .06-.11c.29-.66 0-2.51-.19-3.62v-.23c0-.19-.06-.35-.08-.47a49.77 49.77 0 0 1 -.39-6.81 19.79 19.79 0 0 0 -.19-2.32c-.07-.61-.15-1.23-.18-1.86a12.67 12.67 0 0 1 .07-1.53 9.51 9.51 0 0 0 .08-1.19v-.11h.44v.1a12.51 12.51 0 0 1 -.08 1.25 8.77 8.77 0 0 0 -.07 1.46c0 .61.1 1.23.18 1.82a20.83 20.83 0 0 1 .19 2.38 48.84 48.84 0 0 0 .39 6.75c0 .12 0 .27.07.45v.24c.2 1.23.5 3.09.16 3.87a.89.89 0 0 1 -.11.2z"/><path d="m78.65 170-.18-.14-.19.08a13.59 13.59 0 0 0 -1.83-1.27l-.41-.21a3.61 3.61 0 0 1 -1.3-.88 7 7 0 0 1 -.6-1 7.57 7.57 0 0 0 -.64-1 14.35 14.35 0 0 0 -1.63-1.58 14.49 14.49 0 0 1 -1.77-1.74c-.25-.31-.49-.63-.74-1a19.45 19.45 0 0 0 -1.36-1.56 6.6 6.6 0 0 0 -1.07-.88 7.91 7.91 0 0 1 -.93-.73l.31-.31a6.57 6.57 0 0 0 .88.69 7.73 7.73 0 0 1 1.14.93 22 22 0 0 1 1.38 1.71l.73.95a14.32 14.32 0 0 0 1.72 1.68 15.07 15.07 0 0 1 1.67 1.63 6.6 6.6 0 0 1 .69 1.06 6.15 6.15 0 0 0 .57.89 3.12 3.12 0 0 0 1.14.76l.43.22s2 1.17 2 1.52v.1z"/><path d="m70.76 175.51-1.77-4.42-1.01-1.31 2.9-1.1v1.67l1.64 4.34-.41.15-1.67-4.44v-1.09l-1.75.67.7.93 1.78 4.44z"/><path d="m137.43 123.06-.09-.43 15-3.08-.7-2.59-16.62 3.72v-.23l-.05-.2 16.98-3.81.93 3.45-.47.09z"/><path d="m137.36 104.18-.08-.05a2.36 2.36 0 0 1 -1-2.24v-.13l2.93-1 .14.41-2.67.9a1.91 1.91 0 0 0 .81 1.63l3.84-.71.08.43z"/><path d="m141.52 95.2a2.53 2.53 0 0 1 -2-.65 1.42 1.42 0 0 1 -.1-1.46l.39.19a1 1 0 0 0 .06 1c.32.39 1.45.91 5.4-.11l.11.42a15.8 15.8 0 0 1 -3.86.61z"/><path d="m147 99.58-.1-.43 2.66-.65c1.35-1.59 1.88-2.91 1.53-3.82-.4-1.06-1.87-1.28-1.88-1.28l.06-.43a2.91 2.91 0 0 1 2.23 1.55c.42 1.09-.14 2.55-1.65 4.32v.06z"/><path d="m147.48 102.61-.07-.44 2.8-.44a5.29 5.29 0 0 0 -.74-2.92l.38-.22c0 .08 1.14 2 .75 3.4v.13z"/><path d="m150.42 102.15v-.44a4.18 4.18 0 0 0 1.7-.57 5.31 5.31 0 0 0 2.13-3.52l.43.09a5.59 5.59 0 0 1 -2.33 3.8 4.66 4.66 0 0 1 -1.93.64z"/><path d="m154.62 97.7-.42-.09c.08-.39.12-.74.15-1v-.13h.44a1 1 0 0 1 0 .17 9.51 9.51 0 0 1 -.17 1.05z"/><path d="m154.8 96.48h-.44c0-.63 0-1 0-1.06a3.56 3.56 0 0 0 -1.07-2.79c-1.67-1.56-4.71-1.36-5.05-1.33v-.22-.22c.35 0 3.56-.24 5.37 1.45a4 4 0 0 1 1.21 3.1s.02.41-.02 1.07z"/><path d="m157.72 99.82a3.6 3.6 0 0 1 -2.36-.72 3.17 3.17 0 0 1 -1-2.49.59.59 0 0 1 0-.17v-.09c1-3.41 5.62-2.15 5.66-2.14h.09l.05.09c.86 1.64 1.1 3 .7 4a2.18 2.18 0 0 1 -1.19 1.25 9.31 9.31 0 0 1 -1.95.27zm-2.93-3.29a.22.22 0 0 0 0 .09 2.73 2.73 0 0 0 .86 2.14c.8.67 2.12.8 3.93.39a1.8 1.8 0 0 0 .91-1 4.55 4.55 0 0 0 -.65-3.54c-.63-.16-4.23-.93-5 1.91z"/><path d="m159.43 99.49a4 4 0 0 1 .4-5.23l.3.32a3.53 3.53 0 0 0 -.33 4.66z"/><path d="m153.62 108.77-3.42-.68 1.77-6.82.43.11-1.66 6.37 2.48.5.97-10.61.44.02z"/><path d="m153.96 111.41h-3.71v-3.49h.44v3.05h2.78l-.27-2.44.44-.04z"/><path d="m169 149.88h-.11a8.16 8.16 0 0 1 -2.39-1.74c-2.83-2.76-6.18-8.09-8.5-12.07-.43-.73-.83-1.43-1.19-2.1-1.56-2.75-2.6-4.79-2.61-4.81v-.06l-3.94-17.82.43-.09 3.93 17.79c.12.24 1.12 2.2 2.58 4.78.37.66.76 1.36 1.19 2.09 3.3 5.67 6.22 9.82 8.43 12a7.88 7.88 0 0 0 2.13 1.6l1.94-1.42-13.78-19.34-3.61-17.38.43-.09 3.6 17.33 14 19.58z"/><path d="m136.94 137.65-.33-.29 15.83-17.78.33.28-.2.23z"/><path d="m131.43 132.42h26.06v.44h-26.06z" transform="matrix(.65868946 -.75241491 .75241491 .65868946 -50.5 153.98)"/><path d="m123.53 144.68h8.35v.44h-8.35z" transform="matrix(.66588167 -.74605738 .74605738 .66588167 -65.43 143.68)"/><path d="m125.14 147.72h5.46v.44h-5.46z" transform="matrix(.71288336 -.70128263 .70128263 .71288336 -67.03 132.13)"/><path d="m157.55 117.01h-2.67v-.44h2.23v-1.35h-2.5v-.44h2.94z"/><path d="m179.4 131.08-19.6-.45-1.28-6.57.43-.08 1.22 6.22 19.06.44 3.78-3.5.91-13.42-4.01 3.94-22.32-.64 1.36 6.96-.43.08-1.46-7.5 22.68.65 4.7-4.62-1.01 14.76z"/><path d="m164.34 116.92c0-.55 0-1.1-.05-1.63s-.06-1.24-.06-1.87a10.47 10.47 0 0 1 .26-2.31 5 5 0 0 1 .23-.63 4.6 4.6 0 0 0 .3-.91.81.81 0 0 0 0-.22v-.07a2.51 2.51 0 0 0 -.51-.7 3.45 3.45 0 0 1 -.59-.79 7.11 7.11 0 0 1 -.61-1.92 1.34 1.34 0 0 1 .62-1.26c.16-.07.49-.12.86.31a2.6 2.6 0 0 1 .44 1.67 3.09 3.09 0 0 1 2-1.68h.21v.2a3.15 3.15 0 0 1 -.31 2.11 6 6 0 0 1 .64-.43c.37-.21 1.1-.48 1.46-.17q.31.3 0 1a3.47 3.47 0 0 1 -1.65 1.3c-.15.08-.29.14-.4.21s-.23.15-.36.24a2.1 2.1 0 0 1 -1.43.57c-.07.25-.18.52-.27.76a5.36 5.36 0 0 0 -.21.57 10.24 10.24 0 0 0 -.25 2.21c0 .62 0 1.25.05 1.85s.06 1.09.06 1.65zm4.43-10a1.76 1.76 0 0 0 -.8.25 6.8 6.8 0 0 0 -2.25 2.28 3 3 0 0 0 .86-.48c.14-.1.27-.19.39-.26l.42-.22c.53-.27 1.26-.65 1.45-1.08s.1-.43.07-.46a.22.22 0 0 0 -.14-.05zm-1.77-1.53a3.16 3.16 0 0 0 -1.44 1.47 2 2 0 0 0 -.14 1.44 5.7 5.7 0 0 1 .07.64l.16-.26c.22-.36.45-.74.7-1.11a2.9 2.9 0 0 0 .65-2.18zm-2.88-.39h-.06a1 1 0 0 0 -.34.83 6.68 6.68 0 0 0 .58 1.77 2.7 2.7 0 0 0 .5.67 7.91 7.91 0 0 1 0-1.1 3.35 3.35 0 0 0 -.34-2c-.1-.06-.21-.17-.32-.17z"/><path d="m165 117-.29-.33.1-.09a4.56 4.56 0 0 1 1.11-1.72 8.18 8.18 0 0 0 .6-.75c.17-.27.34-.54.5-.81q.42-.68.81-1.35l.21-.35c.32-.53.76-1.27 1.39-1.47a1.29 1.29 0 0 1 1.2.15 1 1 0 0 1 .33.92 3.89 3.89 0 0 1 -1.39 2.1c-.33.32-.67.61-1 .9a12.28 12.28 0 0 0 -.93.85 9.14 9.14 0 0 1 -1.33 1.17 4.18 4.18 0 0 1 -.65.37 5.06 5.06 0 0 0 -.53.29zm4.94-6.51a1.24 1.24 0 0 0 -.37.06c-.48.15-.87.8-1.15 1.27l-.21.36-.81 1.35c-.17.27-.34.55-.52.82a7.75 7.75 0 0 1 -.63.79 8.79 8.79 0 0 0 -.82 1.08 5.6 5.6 0 0 0 .59-.33 9.45 9.45 0 0 0 1.26-1.12 12.89 12.89 0 0 1 1-.88c.32-.29.66-.58 1-.88a3.55 3.55 0 0 0 1.25-1.84.58.58 0 0 0 -.17-.53.61.61 0 0 0 -.42-.14z"/><path d="m164.11 117.12c-.12-.05-.17-.15-.22-.37v.06c-1-.67-1.54-2.14-2-3.59l-.11-.38c-.18-.59-.34-1.15-.52-1.58s-.58-2.75.08-3.26c.15-.11.41-.19.8.11s.27.58.3.93v.3a8.1 8.1 0 0 0 .26.79 7.22 7.22 0 0 1 .28.86c.18.74.36 1.45.55 2.18l.09.33.08.27c.05.19.13.64.23 1.15s.24 1.25.34 1.63c0 .18.06.23.07.23l-.15.08zm-2.48-8.78c-.34.26-.12 2.31.06 2.74s.35 1 .53 1.62l.11.38a7.6 7.6 0 0 0 1.45 3.08c-.07-.36-.15-.78-.23-1.17s-.18-.94-.23-1.12l-.07-.26-.09-.33c-.2-.74-.38-1.46-.56-2.2a5.87 5.87 0 0 0 -.26-.81 6.88 6.88 0 0 1 -.27-.84 1.74 1.74 0 0 1 0-.37c0-.19 0-.54-.13-.61a.42.42 0 0 0 -.31-.11z"/><path d="m162 117.17-.08-.14a5.73 5.73 0 0 1 -.42-1.29 5.84 5.84 0 0 0 -.47-1.37 11.26 11.26 0 0 0 -.72-1.08 6.91 6.91 0 0 0 -1.21-1.29 1.62 1.62 0 0 0 -.43-.25l-.49-.17a4.47 4.47 0 0 1 -.83-.31c-.31-.17-3-1.65-2.81-3.15v-.15h.15c1.6-.31 2.29.82 2.9 1.82a3.5 3.5 0 0 0 1.24 1.44v.14a2.05 2.05 0 0 1 .54.31 7.36 7.36 0 0 1 1.28 1.36 10.66 10.66 0 0 1 .75 1.14 5.71 5.71 0 0 1 .51 1.47 5.82 5.82 0 0 0 .39 1.2l.08.13zm-7-8.83c.06 1 1.69 2.06 2.59 2.54a3.42 3.42 0 0 0 .4.17 8.25 8.25 0 0 1 -.73-1.06c-.59-.92-1.11-1.79-2.26-1.65z"/><path d="m158.62 111.58a1.42 1.42 0 0 1 -.13-.12c-.66-.63-2.14-3.21-1.86-4.42a.82.82 0 0 1 .55-.65c.29-.09.78-.07 1.25.79v-.05c.12-.61.71-1.55 1.3-1.56.25 0 .58.13.75.82a4 4 0 0 1 -.83 3.46c-.18.29-.37.59-.53.91l-.09.18-.14.56v-.14h-.06zm-1.21-4.78h-.09a.37.37 0 0 0 -.26.32c-.2.85.82 2.9 1.51 3.77l.1-.22a8.4 8.4 0 0 1 -.35-2.64c-.21-.61-.55-1.23-.91-1.23zm1.36 1.19a8 8 0 0 1 .37 1.87l.15-.24a3.67 3.67 0 0 0 .78-3.12c-.08-.31-.2-.49-.31-.49-.29 0-.77.67-.88 1.21a6.76 6.76 0 0 0 -.11.78z"/><path d="m173.74 116.53-.08-.43a7.6 7.6 0 0 1 .92-.1 3 3 0 0 0 1.51-.35 24.64 24.64 0 0 0 2.36-1.79l.38-.32a11.88 11.88 0 0 0 1-.87l.31.31c-.33.33-.71.63-1.05.91l-.37.3a22.48 22.48 0 0 1 -2.4 1.82 3.25 3.25 0 0 1 -1.73.43 6.44 6.44 0 0 0 -.85.09z"/><path d="m173.47 118v-1.58a5.55 5.55 0 0 0 -.32-.46 3.24 3.24 0 0 1 -.48-1c-.1-.3-.2-.6-.31-.9s-.19-.56-.29-.85c-.18-.52-.41-1.22-.59-1.93-.12-.49 0-3.23.82-3.75a.59.59 0 0 1 .71 0c.53.39.56 1.59.53 3v.77c0 .43.07.67.1.9a6.78 6.78 0 0 1 .11 1.08v.37c0 .35.08.85.1 1.53a8.2 8.2 0 0 1 3.07-2.76l.82-.53.24-.17c1.48-1 2.49-1.6 3-1.23s.17.83 0 1.23a3.59 3.59 0 0 1 -.85 1.21l-.31-.31a3.33 3.33 0 0 0 .75-1c.23-.62.12-.73.12-.73s-.59 0-2.44 1.24l-.25.17-.82.54c-1.51 1-2.81 1.79-3.3 3.53zm-.84-10.08a.15.15 0 0 0 -.08 0c-.51.35-.75 2.78-.63 3.27.17.7.4 1.38.58 1.9.09.29.19.57.29.85s.21.6.31.91a2.5 2.5 0 0 0 .37.75c0-.84-.07-1.45-.1-1.85 0-.16 0-.29 0-.39a7.85 7.85 0 0 0 -.1-1c0-.23-.07-.49-.11-.93 0-.19 0-.48 0-.82 0-.81 0-2.34-.35-2.63a.28.28 0 0 0 -.18-.1z"/><path d="m173.89 115.35-.39-.2a2.84 2.84 0 0 1 .69-.93 1.57 1.57 0 0 0 .54-1 21.34 21.34 0 0 1 .82-2.33c.18-.45.37-.91.53-1.38v-.06a9.65 9.65 0 0 0 .71-3.09 4.46 4.46 0 0 0 -.48-1.91c-.11-.22-.28-.47-.45-.74a3.69 3.69 0 0 1 -.85-2 1 1 0 0 1 .57-1 .86.86 0 0 1 .92.38 10 10 0 0 1 1.23 2.72c.46-1.74 1.1-3.69 2.9-3.5h.13l.05.13a3.32 3.32 0 0 1 -.8 2.77 3.74 3.74 0 0 1 .55-.41c.41-.26 1.67-.84 2.09-.4s-.1.93-.23 1.12a7.27 7.27 0 0 1 -2.87 2l-.31.16-.32.16a9.23 9.23 0 0 1 -1.31.61 1.66 1.66 0 0 1 -.39.11 10.6 10.6 0 0 1 -.73 3c-.16.48-.35 1-.53 1.41a19 19 0 0 0 -.8 2.27 2 2 0 0 1 -.67 1.17 2.49 2.49 0 0 0 -.6.94zm1.91-14.2h-.06c-.15 0-.25.27-.27.57a3.54 3.54 0 0 0 .77 1.78 6.43 6.43 0 0 1 .48.79 4.73 4.73 0 0 1 .47 1.45 8.76 8.76 0 0 0 .33-1 10.52 10.52 0 0 0 -1.33-3.33.61.61 0 0 0 -.39-.26zm2.8 4.33-.12.17.26-.14.32-.17.31-.15a7 7 0 0 0 2.71-1.88c.31-.43.27-.57.27-.57a2.44 2.44 0 0 0 -1.54.47 8.62 8.62 0 0 0 -1.81 1.79zm-.64-.73a2.52 2.52 0 0 1 0 .76l.26-.3a8.79 8.79 0 0 0 .53-.87v-.07c.15-.27.35-.55.56-.85.6-.86 1.27-1.82 1.08-2.66-1.46 0-2 1.88-2.38 3.57z"/><path d="m185.57 110.52-.12-.06-.46-.2.15-.41.49.21.12.06z"/><path d="m189.45 111.81a10.08 10.08 0 0 1 -3.66-1.19l-.22-.1.08-.18-.88.29v-.06l.42-.9a1.5 1.5 0 0 1 .09-.18 4.05 4.05 0 0 0 .65-.86 3.93 3.93 0 0 1 1-1.22s1.47-1.12 2.14-.74c.15.08.33.28.28.73-.09 1-1.16 1.49-2.18 2h-.09a5.58 5.58 0 0 1 1.58-.09c.44 0 1.74.34 2.06 1.05a.86.86 0 0 1 -.15.91 1.48 1.48 0 0 1 -1.12.54zm-3.45-1.58c1.29.6 3.67 1.7 4.37.78a.42.42 0 0 0 .1-.46c-.2-.45-1.22-.76-1.7-.79a5.94 5.94 0 0 0 -2.77.47zm2.88-3.19a3.62 3.62 0 0 0 -1.53.74 3.69 3.69 0 0 0 -.93 1.1 5.1 5.1 0 0 1 -.46.68 8.12 8.12 0 0 1 1.18-.59c.91-.41 1.85-.83 1.93-1.59 0-.1 0-.27-.07-.31a.21.21 0 0 0 -.14-.07z"/><path d="m185.4 110.28-.09-.66c-.11-.79-.41-3.39.37-4a.73.73 0 0 1 .73-.1.92.92 0 0 1 .57.55c.29.79-.37 2.06-1.06 3.29l-.2.36zm.71-4.4a.21.21 0 0 0 -.15.05c-.38.31-.42 1.65-.3 3 .46-.81 1.13-2.09.9-2.7a.42.42 0 0 0 -.3-.28.31.31 0 0 0 -.15-.07z"/><path d="m180.88 111.91a.24.24 0 0 1 -.12 0h-.08v-.11h.21v-.21a14.9 14.9 0 0 0 1.49-.5c.56-.2 1.08-.39 1.31-.45s.49-.09.73-.12a4.26 4.26 0 0 0 1-.2v-.06c0-.12 0-.27-.07-.44v-.08l.43-.07c0 .19.05.32.07.43v.06.16.2l-.12.07a4.21 4.21 0 0 1 -1.29.32c-.23 0-.46.06-.68.11s-.74.24-1.26.43a8.28 8.28 0 0 1 -1.62.46z"/><path d="m157.51 115.12-.37-.23 1.21-1.95h3.74l.04.43h-3.54z"/><path d="m167.22 113.64h-2.85l-1.07-.2.08-.43 1.07.2 2.76-.01z"/><path d="m169.42 112.94h2.87v.44h-2.87z"/><path d="m180 112.6h4.39v.44h-4.39z"/><path d="m162.48 130.46-2.71-13.55.21-.07.22-.04v.02l2.71 13.55z"/><path d="m165.6 130.45-2.3-13.5.44-.07v.06l2.29 13.44z"/><path d="m168.54 130.43-.96-13.33.22-.03.22.02.96 13.31z"/><path d="m164.7 123.72h13.48v.44h-13.48z" transform="matrix(.03507392 -.99938472 .99938472 .03507392 41.55 290.91)"/><path d="m174.81 117.36h.44v13.31h-.44z"/><path d="m179.01 130.86h-.44l1.03-13.44.44.03z"/><path d="m174.81 121.77h14.01v.44h-14.01z" transform="matrix(.06836354 -.99766048 .99766048 .06836354 47.69 295.05)"/><path d="m179.62 121.34-21.59-.66.02-.44 21.42.65 4.28-3.7.28.34z"/><path d="m179.38 124.36-20.64-.12-.01-.44 12.7.08 7.81.04 4.27-2.98.25.35z"/><path d="m179.13 127.72h-19.72v-.44h19.57l4.32-3.43.27.34z"/><path d="m170.23 152.36a1.89 1.89 0 0 1 -1-.21l.23-.38a1.6 1.6 0 0 0 .87.15 5.62 5.62 0 0 0 3.66-1.61 1.32 1.32 0 0 0 .35-1.07c-.12-.72-1-1.47-2.45-2.16a16 16 0 0 0 -1.57-.63h-.08l-.55-.18.13-.42.56.19h.09a14.36 14.36 0 0 1 1.6.65c1.64.76 2.55 1.59 2.7 2.48a1.75 1.75 0 0 1 -.44 1.42 6 6 0 0 1 -4 1.77z"/><path d="m170 152.31a5.88 5.88 0 0 1 -.66-.14 5 5 0 0 1 -2.06-1 2.88 2.88 0 0 1 -.78-1 2.93 2.93 0 0 1 0-2.29l.41.16a2.53 2.53 0 0 0 0 1.95 2.43 2.43 0 0 0 .67.88 4.58 4.58 0 0 0 1.88.9c.19.05.4.09.62.13z"/><path d="m185.37 140.47a23.24 23.24 0 0 0 -14.37-5.47 26.79 26.79 0 0 0 -8.32 1.14l-.12-.42a27.63 27.63 0 0 1 8.45-1.16 23.72 23.72 0 0 1 14.69 5.58z"/><path d="m169.22 176.45a19.32 19.32 0 0 1 -12.88-4.73c-.37-.32-.72-.63-1-.94a17.06 17.06 0 0 1 -2.89-3.65 23.9 23.9 0 0 1 -4.3-12.08c-.57-11.73 9.85-19.23 9.95-19.31l.26.36c-.11.07-10.33 7.45-9.77 18.93a23.63 23.63 0 0 0 4.23 11.88 17.59 17.59 0 0 0 2.83 3.56c.31.3.64.61 1 .92 3.29 2.83 9 5.84 17.44 4.11a39.5 39.5 0 0 0 12.49-5.23l.56-.35c.08-.09.41-.45.88-1a20.75 20.75 0 0 0 4-16.8 25.19 25.19 0 0 0 -4-9 17.89 17.89 0 0 0 -2.6-2.59l.28-.33a18.94 18.94 0 0 1 2.68 2.66 25.69 25.69 0 0 1 4.1 9.17 21.21 21.21 0 0 1 -4.07 17.16 10.7 10.7 0 0 1 -.94 1.1l-.09.07-.56.35a40 40 0 0 1 -12.63 5.28 24.56 24.56 0 0 1 -4.97.46z"/><path d="m171.45 179c-12.08 0-18.89-6-22-9.91a19 19 0 0 1 -2.16-3.22c-3.55-6.06-4.55-11.93-3-17.43 2.76-9.56 12.53-14.74 12.63-14.79l.2.39c-.1 0-9.71 5.15-12.41 14.52-1.55 5.38-.56 11.13 2.94 17.1a18.26 18.26 0 0 0 2.11 3.16c3.1 3.83 9.8 9.75 21.7 9.75a40.12 40.12 0 0 0 5-.33c.18 0 18.78-3.56 18.4-23.44 0-.12 1-8.85-5.42-15.31-5.78-5.85-15.59-8.07-29.16-6.61v-.43c13.7-1.48 23.64.79 29.52 6.74 6.53 6.61 5.54 15.54 5.53 15.63.4 20.23-18.57 23.82-18.77 23.85a39.06 39.06 0 0 1 -5.11.33z"/><path d="m170.67 146.2h-.43c.24-2 .33-4.14.39-6.18 0-.92.1-4.6.1-5h.44c0 .41-.07 4.1-.1 5-.07 1.98-.15 4.18-.4 6.18z"/><path d="m172 147.1a.32.32 0 0 1 -.23-.08l.31-.31a.28.28 0 0 0 -.09-.05 20.34 20.34 0 0 0 2.83-1.49c.67-.38 1.24-.71 1.48-.82.5-.23 1-.49 1.4-.74a10.44 10.44 0 0 1 2.1-1 36.53 36.53 0 0 0 5.48-2.34v-.07l.17.09.16-.17.06.06v.1a.19.19 0 0 1 0 .09c-.43.78-5.71 2.6-5.77 2.62a10.08 10.08 0 0 0 -2 1c-.45.26-.92.52-1.44.76-.22.1-.81.44-1.44.8a14.75 14.75 0 0 1 -3 1.55z"/><path d="m192.44 152.29-.27-.06c-1.86-.41-4.52-.93-7.29-1.43-2.13-.39-3.88-.58-5.73-.79-1.43-.16-2.92-.33-4.58-.59l.06-.43c1.66.26 3.14.42 4.57.58 1.78.2 3.62.41 5.75.8 2.78.5 5.45 1 7.32 1.43l.27.07z"/><path d="m173.89 175.76a36.24 36.24 0 0 1 -1.3-4.83c-.21-1-.4-2-.58-3l-.22-1.11a47.3 47.3 0 0 1 -.62-5.46c-.09-1.14-.17-2.32-.32-3.48-.08-.68-.12-1.33-.15-2a15.6 15.6 0 0 0 -.54-3.77v-.17l.42-.13.05.17a16 16 0 0 1 .55 3.87c0 .63.08 1.28.16 1.93.14 1.18.23 2.36.32 3.5a48.33 48.33 0 0 0 .61 5.42l.22 1.11c.18 1 .37 2 .58 2.94a35.3 35.3 0 0 0 1.28 4.77z"/><path d="m155.62 170.78-.31-.31a3.33 3.33 0 0 0 .6-1.24 6.67 6.67 0 0 1 .47-1.14l.23-.42c.6-1.06 1.21-2.16 1.75-3.22l.54-1.08a46.66 46.66 0 0 1 3-5.42l.9-1.27c.52-.72 1.06-1.47 1.56-2.26a11.83 11.83 0 0 1 1.24-1.51 12.56 12.56 0 0 0 1.61-2l.37.23a12.42 12.42 0 0 1 -1.66 2.08 11.38 11.38 0 0 0 -1.19 1.44c-.5.8-1.05 1.56-1.57 2.29l-.9 1.26a44.84 44.84 0 0 0 -3 5.37l-.54 1.08c-.54 1.07-1.16 2.17-1.75 3.23l-.24.43a6.73 6.73 0 0 0 -.44 1.06 3.65 3.65 0 0 1 -.67 1.4z"/><path d="m148.63 155.25v-.44a7.68 7.68 0 0 0 2-.67c.46-.19.89-.37 1.23-.48.79-.23 1.59-.43 2.37-.63s1.72-.43 2.57-.69l1.12-.36c1.44-.45 2.92-.92 4.38-1.22.46-.1 1-.19 1.46-.28a23.69 23.69 0 0 0 2.83-.63h.14l.15.41-.15.05a24.07 24.07 0 0 1 -2.89.64c-.5.09-1 .18-1.44.28-1.45.3-2.92.76-4.35 1.21l-1.12.35c-.86.27-1.74.49-2.59.71s-1.57.39-2.35.62c-.32.1-.74.28-1.19.47a7.69 7.69 0 0 1 -2.17.66z"/><path d="m119.69 84.57h5.71v.44h-5.71z" transform="matrix(.79716262 -.60376466 .60376466 .79716262 -26.33 91.18)"/><path d="m124.34 80.14-.16-.15h-.22v-.08l.06-.07 1.87-2.01.32.29z"/><path d="m69.23 171.2-.1-.43h.02l1.42-.58.17.41z"/><path d="m187.11 170.23-2.84-3.12-2.13-.85 3.6-2.89v2.44l2.62 3.04-.33.29-2.73-3.16v-1.7l-2.3 1.85 1.56.65 2.88 3.15z"/><path d="m184.19 166.19h1.53v.44h-1.53z" transform="matrix(.73574257 -.6772613 .6772613 .73574257 -63.83 169.23)"/><path d="m60.53 65.22a3.68 3.68 0 0 1 -1.89-.52 3.75 3.75 0 0 1 -1.85-3.22 3.74 3.74 0 0 1 3.74-3.73 3.78 3.78 0 0 1 3.74 3.73 3.68 3.68 0 0 1 -.35 1.57 3.74 3.74 0 0 1 -3.39 2.17zm0-7a3.28 3.28 0 0 0 -3.07 2.09 3.24 3.24 0 0 0 -.23 1.2 3.35 3.35 0 0 0 1.63 2.85 3.24 3.24 0 0 0 1.67.45 3.29 3.29 0 0 0 3-1.92 3.1 3.1 0 0 0 .31-1.38 3 3 0 0 0 0-.44 3.31 3.31 0 0 0 -3.31-2.88z"/><path d="m63.7 63.19-.09-.43a8.63 8.63 0 0 0 .83-.3 8.87 8.87 0 0 1 1.27-.46 4.64 4.64 0 0 0 -1.71-.78l.1-.43a5.73 5.73 0 0 1 2.31 1.21l.48.38h-.62a5.55 5.55 0 0 0 -1.64.45 8.19 8.19 0 0 1 -.85.31z"/><path d="m48.92 71.06a.51.51 0 0 1 -.41-.18c-.44-.51.09-2.06.58-3.08-.18.18-.36.39-.53.59a6.59 6.59 0 0 1 -.73.76l-.24.22c-1.14 1-2 1.67-2.41 1.48a.55.55 0 0 1 -.35-.35c-.22-.62.39-1.78 1.22-3.24.21-.37.42-.73.54-1a22.51 22.51 0 0 0 -3.37.6 16.54 16.54 0 0 1 -4.85.63h-.27l.08-.26c.27-.88 1.82-1.37 2.56-1.61l1.2-.41c.51-.19 1-.38 1.56-.54l.13.42c-.51.16-1 .35-1.54.53s-.84.3-1.22.42a5.36 5.36 0 0 0 -2.12 1.06 17.71 17.71 0 0 0 4.38-.64 20.86 20.86 0 0 1 3.78-.63h.28l-.06.27a7.38 7.38 0 0 1 -.69 1.39c-.55 1-1.37 2.41-1.2 2.88a.15.15 0 0 0 .09.1c.12 0 .52-.08 2-1.41l.26-.23a5.78 5.78 0 0 0 .67-.71 3.83 3.83 0 0 1 1.46-1.21l.73-.27-.49.61c-.52.64-1.4 3-1.08 3.37 0 .05.22 0 .54-.15a8.69 8.69 0 0 0 1.58-1.39c.34-.34.7-.69 1-1s.65-.5 1-.73.8-.59 1.16-.9l.83-.72-.62 1.27a4.21 4.21 0 0 0 -.64 1.92c.54-.09 1.27-1 1.81-1.71a6.55 6.55 0 0 1 .75-.9l.37-.34a17.21 17.21 0 0 1 2-1.65l.25.35a19.08 19.08 0 0 0 -1.91 1.64l-.36.34a8.47 8.47 0 0 0 -.71.85c-.73.94-1.57 2-2.38 1.88h-.15v-.15a3.07 3.07 0 0 1 .35-1.77l-.41.3c-.32.23-.65.48-.95.72s-.66.59-1 .94a9 9 0 0 1 -1.7 1.44 1.36 1.36 0 0 1 -.77.2z"/><path d="m41.52 65.26 2-.6a6.56 6.56 0 0 1 2.08-.34l1.13.06-1.07.37a8.69 8.69 0 0 1 -2.06.34z"/><path d="m38.8 65.86a1.88 1.88 0 0 1 -1.27-.36l-.16-.13.13-.17a4.34 4.34 0 0 1 2.44-1.2l.63-.17.76-.22 1.05-.31h-1.1-.93c-.13 0-.32 0-.54 0-1.22.15-2.35.24-2.83-.27a.76.76 0 0 1 -.18-.71v-.14h.14c1.81-.43 3.65-.8 5.44-1.16l2.11-.42c.66-.14 1.05-.34 1.15-.59s-.27-.93-.71-1.54a3.55 3.55 0 0 1 -1-2.3l.07-.17.25.09a8.12 8.12 0 0 1 3 2.14 5.4 5.4 0 0 0 -.34-1 4.56 4.56 0 0 1 -.41-1.56v-.61l.4.46a10.9 10.9 0 0 0 3.16 2.2c0-.18-.07-.34-.11-.51a4.57 4.57 0 0 1 -.16-1.9v-.35l.3.21c2.7 1.83 6.81 4.7 7.19 4.83l-.06.19.2.17c-.16.18-.26.3-7.24-4.64a4.68 4.68 0 0 0 .19 1.37 7.84 7.84 0 0 1 .18 1l.06.39-.36-.16a13.51 13.51 0 0 1 -3.2-2c.08.25.18.51.28.77a3.68 3.68 0 0 1 .39 1.8v.48l-.38-.37a9.18 9.18 0 0 0 -2.93-2.35 4.37 4.37 0 0 0 .9 1.71c.5.7 1 1.36.75 2-.16.41-.62.68-1.46.85l-2.11.43c-1.73.35-3.52.71-5.27 1.12a.31.31 0 0 0 .08.2c.37.39 1.73.22 2.46.14l.57-.06h1a13.6 13.6 0 0 0 3-.27l.14.41a25.25 25.25 0 0 1 -3 1l-.76.22-.65.17a4.82 4.82 0 0 0 -2 .83c.73.33 2.25 0 3.2-.28l.69-.16a13.42 13.42 0 0 1 1.47-.18h.18v.43h-.18a12 12 0 0 0 -1.42.17l-.67.16a11.26 11.26 0 0 1 -2.53.32z"/><path d="m13.05 83.06-.1-.43a30.76 30.76 0 0 0 4.13-1.32 25.13 25.13 0 0 1 7.32-1.84 37.56 37.56 0 0 1 8.61.82c1.67.29 3.4.59 5.19.75 4.58.41 7.47-.44 11.8-1.86l1.21-.41c3.37-1.15 8.46-2.88 11.44-1.64l-.17.41c-2.83-1.18-7.82.52-11.13 1.64l-1.22.41c-4.38 1.44-7.3 2.3-12 1.89-1.82-.17-3.56-.47-5.24-.76a36.26 36.26 0 0 0 -8.51-.81 24.13 24.13 0 0 0 -7.18 1.82 34.84 34.84 0 0 1 -4.15 1.33z"/><path d="m57.76 96.41a14.54 14.54 0 0 1 -4.39-.68 36.86 36.86 0 0 1 -4.55-1.81c-2.71-1.22-5.26-2.37-8.65-2.18-5.15.27-9 1.45-13.47 2.82-.72.23-1.46.45-2.23.68l-.12-.42 2.22-.67c4.49-1.38 8.37-2.58 13.58-2.85 3.49-.19 6.09 1 8.85 2.22a39.05 39.05 0 0 0 4.5 1.8c5.16 1.6 9.3 0 13.68-1.68 3.35-1.29 6.82-2.64 10.74-2.36v.43c-3.82-.25-7.25 1.06-10.55 2.34-3.06 1.16-6.16 2.36-9.61 2.36z"/><path d="m30 170.87a34.75 34.75 0 0 1 -3.52-.16c-.35 0-.7-.07-1-.12-.6-.08-1.24-.19-2-.35-1.28-.27-2.58-.61-3.84-.94a49.47 49.47 0 0 0 -6-1.31 12 12 0 0 0 -5.56.38l-.88.3c-1.49.55-3 1.11-4.62.53l.15-.41c1.44.52 2.91 0 4.33-.53l.88-.31a12.56 12.56 0 0 1 5.76-.4 51.86 51.86 0 0 1 6 1.32c1.25.33 2.55.67 3.82.94.77.15 1.41.26 2 .35l1 .11a38.43 38.43 0 0 0 4.7.15c2.05 0 4.16-.21 6.19-.36a79.56 79.56 0 0 1 8-.34v.44a78.59 78.59 0 0 0 -7.92.34c-2 .15-4.15.31-6.22.35-.49.02-.9.02-1.27.02z"/><path d="m61.93 172.15a10.79 10.79 0 0 1 -1.75-.14 16.78 16.78 0 0 1 -2.61-.71 15.29 15.29 0 0 0 -2.69-.72 15.94 15.94 0 0 0 -3.65.07c-.56 0-1.13.11-1.69.13h-.15v-.44h.11c.57 0 1.11-.07 1.69-.13a16.22 16.22 0 0 1 3.75-.07 15.73 15.73 0 0 1 2.77.74 16.52 16.52 0 0 0 2.54.7 11.81 11.81 0 0 0 2.89.08c1.13-.09 2.28-.29 3.4-.49.85-.15 1.73-.3 2.57-.4h.07c.48 0 1-.1 1.63-.14 1.8-.12 3.64-.11 5.42-.1h1.53v.47h-1.54c-1.77 0-3.6 0-5.38.1-.63 0-1.14.08-1.61.14h-.09c-.81.09-1.64.24-2.52.39-1.13.2-2.3.4-3.45.5-.43 0-.84.02-1.24.02z"/><path d="m130.75 174.87a77.94 77.94 0 0 1 -8.71-.66c-1.07-.12-2.08-.24-3-.33-1.32-.12-2.66-.21-4-.31a75.14 75.14 0 0 1 -9.4-1.07 17.57 17.57 0 0 1 -3.39-1.15 15 15 0 0 0 -3.53-1.16 33.64 33.64 0 0 0 -10 .15c-.53.09-1 .2-1.4.31a9.65 9.65 0 0 1 -4 .33.86.86 0 0 1 -1-.2l.26-.36c.28.21.38.25.53.14h.07.08a9.36 9.36 0 0 0 3.89-.3c.44-.11.89-.23 1.45-.32a34.19 34.19 0 0 1 10.16-.16 16.78 16.78 0 0 1 3.63 1.19 17.14 17.14 0 0 0 3.3 1.13 74.36 74.36 0 0 0 9.35 1.07c1.3.09 2.64.18 4 .31 1 .09 2 .2 3 .33 6.17.7 13.86 1.58 18.78-1.81.39-.26.78-.56 1.15-.84a13.8 13.8 0 0 1 3.23-2 6.39 6.39 0 0 1 2.94-.38h1.3v.43c-.49 0-.92 0-1.32 0a5.93 5.93 0 0 0 -2.77.35 13.51 13.51 0 0 0 -3.12 1.93c-.38.29-.77.58-1.17.85-2.78 1.96-6.49 2.53-10.31 2.53z"/><path d="m156.56 171.69v-.44c2.62 0 5.2-.15 7.68-.29 2.65-.14 5.39-.29 8.2-.29h.37c4.41 0 9.1 0 13.84-.43h.06l.09.43h-.11c-4.76.38-9.47.42-13.88.43h-.37c-2.8 0-5.53.14-8.17.29s-5.08.29-7.71.3z"/><path d="m220.24 171.18c-2 0-4.45 0-7-.26a29.43 29.43 0 0 1 -7-1.38l-1.46-.47a21.38 21.38 0 0 0 -13.6 0l-.12-.42a21.8 21.8 0 0 1 13.85 0l1.47.48a29.08 29.08 0 0 0 6.86 1.36c2.75.26 5.42.25 7.57.25h.6v.44h-1.26z"/><path d="m31.37 170.6-.35-.27 1-1.27c2.88-3.54 7.23-8.88 4.86-12.93-.36-.62-.77-.91-1.21-.89-2.14.11-5.22 6.87-7.07 10.91a27.46 27.46 0 0 1 -1.9 3.85l-.28.36-.1-.45c-.13-.61-.26-1.44-.4-2.41-.59-4-1.58-10.59-4.8-11.27a2.17 2.17 0 0 0 -2.21.64 5.46 5.46 0 0 0 -.72 4.69 19.13 19.13 0 0 0 3.45 5.67c.67.87 1.37 1.76 2 2.68l.06.1v.05l-.37.25v-.07a.56.56 0 0 1 -.05-.08c-.6-.92-1.29-1.8-2-2.66a19.44 19.44 0 0 1 -3.51-5.8 5.8 5.8 0 0 1 .8-5.12 2.64 2.64 0 0 1 2.63-.78c3.51.74 4.49 7.3 5.14 11.63.11.7.2 1.34.29 1.86.39-.69 1-1.93 1.59-3.31 2.12-4.66 5-11 7.43-11.17a1.82 1.82 0 0 1 1.62 1.11c2.52 4.31-1.94 9.8-4.9 13.43z"/><path d="m213.4 170.92-.3-.33.08-.06c2.32-1.8 6.78-5.93 7-8.67a1.94 1.94 0 0 0 -.44-1.5 2.09 2.09 0 0 0 -2.07-.71c-3.33.57-8.11 7.07-8.88 9l-.45 1.12v-1.2c.08-4.54-1.48-10-6.11-10.58-1.66-.19-2.62.29-2.85 1.45-.56 2.85 3.18 8.37 5.59 9l-.12.42c-2.61-.73-6.51-6.46-5.9-9.55.2-1 .93-2.08 3.33-1.8 4.61.55 6.36 5.6 6.5 10.11 1.4-2.46 5.53-7.89 8.8-8.45a2.5 2.5 0 0 1 2.47.85 2.34 2.34 0 0 1 .54 1.83c-.35 3.61-6.93 8.76-7.21 9z"/><g fill="#fff"><path d="m102.75 52.86-.27-.34c.37-.3.71-.62 1-.93a11.77 11.77 0 0 1 1.9-1.53 3.16 3.16 0 0 0 .87-.94 5.53 5.53 0 0 1 .92-1.1l.29.33a5.54 5.54 0 0 0 -.85 1 3.38 3.38 0 0 1 -1 1.06 12 12 0 0 0 -1.84 1.48 12.46 12.46 0 0 1 -1.02.97z"/><path d="m129.6 113.44a48.1 48.1 0 0 0 -3.6-6.44l-.73-1.16.38-.23c.23.38.48.76.72 1.16a48.92 48.92 0 0 1 3.68 6.47z"/><path d="m144.79 156.67c-.48-2.47 0-5.86 1.29-10a12.72 12.72 0 0 1 2.6-4.64l.26-.29c.53-.59 1-1.14 1.52-1.77a6.51 6.51 0 0 1 .82-.84c.17-.16.33-.31.44-.43l.32.29a5 5 0 0 1 -.46.46 7.26 7.26 0 0 0 -.78.79c-.51.65-1 1.2-1.53 1.79l-.26.3a12.24 12.24 0 0 0 -2.52 4.48c-1.29 4.06-1.73 7.46-1.27 9.83z"/><path d="m205.48 168a18.86 18.86 0 0 1 -.93-2.92c-.58-2.13-1.37-5-2.3-5.31l.12-.42c1.17.34 1.93 3.14 2.6 5.61a19 19 0 0 0 .9 2.84z"/><path d="m212 169.46-.39-.22a14.38 14.38 0 0 1 2.07-2.58c.45-.49.92-1 1.31-1.5l.3-.38a7.2 7.2 0 0 1 2.26-2.2l.2.38a7 7 0 0 0 -2.12 2.08l-.29.39c-.41.52-.88 1-1.34 1.53a13.3 13.3 0 0 0 -2 2.5z"/><path d="m28.82 169.19-.35-.26a17.83 17.83 0 0 0 2.17-4.65c.79-2.19 1.61-4.46 3.25-6v-.14a.31.31 0 0 1 .3-.09.34.34 0 0 1 .2.25v.13l-.09.09c-1.66 1.43-2.48 3.71-3.28 5.92a18.6 18.6 0 0 1 -2.2 4.75z"/><path d="m24.06 167.72-.25-.06v-.15c-.07-.21-.58-1.91-.74-2.37a32.45 32.45 0 0 0 -1.35-3.21c-.17-.36-.33-.73-.5-1.09a17.54 17.54 0 0 1 -.65-1.78l-.15-.46a2 2 0 0 1 -.09-.71c0-.06 0-.13 0-.19l-.18-.4a.46.46 0 0 1 .44 0c.19.12.19.34.19.6a2.22 2.22 0 0 0 .07.57l.15.46a18.14 18.14 0 0 0 .64 1.74c.17.36.33.73.5 1.09a31.33 31.33 0 0 1 1.3 3.24 21.84 21.84 0 0 1 .73 2.39v.21z"/><path d="m44.65 146.59-.43-.09a13.66 13.66 0 0 1 9.51-10l.12.42a13.21 13.21 0 0 0 -9.2 9.67z"/><path d="m65.52 178.48-.07-.43c.75-.14 1.51-.23 2.25-.33a17.9 17.9 0 0 0 5.3-1.23l1-.42c1.79-.74 4.77-2 5.18-3.28l.42.13c-.47 1.49-3.45 2.73-5.43 3.56-.38.15-.71.29-1 .41a18.63 18.63 0 0 1 -5.43 1.27c-.74.09-1.48.19-2.22.32z"/><path d="m176 177.32h-.2v-.43c1.69.1 4.19-1.33 6-2.37l1-.57c.4-.22.83-.43 1.29-.65 1.74-.84 3.7-1.79 4.31-3.43l.41.15c-.67 1.81-2.72 2.8-4.53 3.67l-1.28.64-1 .57c-1.7 1.02-4.15 2.42-6 2.42z"/><path d="m60.24 119.2-.33-.28a6.41 6.41 0 0 1 2.76-1.54l.08.43a6.11 6.11 0 0 0 -2.51 1.39z"/><path d="m95.08 123.23h-.08v-.44a2.79 2.79 0 0 0 2-1.1l.33.29a3.31 3.31 0 0 1 -2.25 1.25z"/><path d="m113.44 119.37a1.91 1.91 0 0 1 -1-.23 2.93 2.93 0 0 1 -.93-2.14 4.19 4.19 0 0 0 -.41-1.48l.37-.23a4.37 4.37 0 0 1 .47 1.64c.12.78.24 1.51.74 1.84.68.45 3-.14 3.78-.5l.17.41a10.41 10.41 0 0 1 -3.19.69z"/><path d="m90.89 135.62-.23-.38a27 27 0 0 0 2.59-1.78 24.07 24.07 0 0 1 3.27-2.17l.2.39a23.5 23.5 0 0 0 -3.21 2.13c-.84.62-1.71 1.27-2.62 1.81z"/><path d="m141.08 133.6-.33-.28c.58-.69 1.18-1.36 1.76-2a42.53 42.53 0 0 0 3.82-4.67l.36.24a42.61 42.61 0 0 1 -3.85 4.72c-.58.65-1.18 1.31-1.76 1.99z"/><path d="m152.21 115.2a14.11 14.11 0 0 0 -.44-1.37c-.21-.62-.43-1.25-.54-1.7l.42-.1c.11.43.33 1 .54 1.65s.38 1.12.45 1.42z"/><path d="m151.61 106.85-.34-.28a10.58 10.58 0 0 0 .81-2.63c.28-1.21.32-1.4.57-1.4v.46a.17.17 0 0 0 .15-.08 11.38 11.38 0 0 0 -.29 1.14 9 9 0 0 1 -.9 2.79z"/></g><path d="m65.44 155.64a1.72 1.72 0 1 1 -1.72-1.72 1.72 1.72 0 0 1 1.72 1.72z"/><path d="m88.59 176.88v-.44c.91 0 1.83-.08 2.71-.15s2.06-.14 3.14-.14v.43c-1.07 0-2.11.08-3.11.15s-1.82.13-2.74.15z"/><path d="m102.4 179.49-.16-.41a8.23 8.23 0 0 1 3.26-.32h.92v.43h-.93a7.86 7.86 0 0 0 -3.09.3z"/><path d="m102.03 174.98h2.34v.44h-2.34z"/><path d="m117.82 178.78h7.02v.44h-7.02z"/><path d="m112.41 177.42a3.52 3.52 0 0 1 -1.4-.27l.17-.4a4.73 4.73 0 0 0 2.64.09l.76-.11v.44l-.75.1a9.28 9.28 0 0 1 -1.42.15z"/><path d="m133.29 177a3.93 3.93 0 0 1 -1.21-.17l.13-.42a5.37 5.37 0 0 0 2.23.07l.91-.08v.44c-.3 0-.59 0-.88.07a9.84 9.84 0 0 1 -1.18.09z"/><path d="m142.09 174.68h3.22v.44h-3.22z"/><path d="m130.48 181.83-.17-.41a9.89 9.89 0 0 1 2.61-.58 12.75 12.75 0 0 0 1.8-.3l.11.42a12.49 12.49 0 0 1 -1.86.32 9.25 9.25 0 0 0 -2.49.55z"/><path d="m142.63 179.76a3.79 3.79 0 0 1 -1.51-.27l.17-.4a6.8 6.8 0 0 0 3.78-.11c.37-.07.73-.15 1.07-.2l.07.43-1.05.2a12.84 12.84 0 0 1 -2.53.35z"/><path d="m147.35 182.28h3.8v.44h-3.8z"/><path d="m152 178.63v-.44a16.37 16.37 0 0 0 2.89-.29l.08.43a16.24 16.24 0 0 1 -2.97.3z"/><path d="m79.23 181.7h3.51v.44h-3.51z"/><path d="m62 181.87h-.62v-.44a8.47 8.47 0 0 0 2.85-.29l.11.43a8.86 8.86 0 0 1 -2.34.3z"/><path d="m44.14 178.19h2.05v.44h-2.05z"/><path d="m37.71 174.68h3.8v.44h-3.8z"/><path d="m162.85 181.55a3.81 3.81 0 0 1 -1.56-.31l.18-.4a5.18 5.18 0 0 0 3.93-.29l.15.4a7.46 7.46 0 0 1 -2.7.6z"/><path d="m173.95 181.41h3.8v.44h-3.8z"/><path d="m183.39 179.22h-.1v-.43c.26 0 2.48-.17 3.46-.29l.05.43c-.8.07-2.8.29-3.41.29z"/><path d="m190.62 174.1h4.97v.44h-4.97z"/><path d="m193.83 179.07h4.68v.44h-4.68z"/></svg>