<svg viewBox="0 0 224 224" xmlns="http://www.w3.org/2000/svg"><path d="m188.62 119.45a6 6 0 0 1 .82 1.75 50.5 50.5 0 0 1 -6.26.78c-1.51.1-3 .13-4.55.08v-.06a37.47 37.47 0 0 0 2.76-4.12 19.9 19.9 0 0 0 1.1-2.22 18.63 18.63 0 0 1 .92-1.7 18.7 18.7 0 0 1 5.21 5.49z"/><path d="m183.6 100c2.69.54 5.35 4.9 5 8-4.26 0-8.24-.12-12.28-.2 1.64-1.34 2.9-5 3.66-6.82 1.08-.62 2.13-1.33 3.62-.98z"/><path d="m186.07 134.12a8.51 8.51 0 0 1 -.5 4.71 28.23 28.23 0 0 1 -10.38-1.2c.77-1.54 4.85-7.84 5.47-8.64a6.44 6.44 0 0 0 3.37.34 10.34 10.34 0 0 1 2.04 4.79z"/><path d="m176.7 86.46c.49 2.58-2.38 4-1 6.39-4.48.84-8.87.47-11.07-1.44-1.29-1.12-1.65-3.56-3.58-3.58-1 0-3.71 2.23-4.67 2.83a101.75 101.75 0 0 0 -9.61 6.56 42.12 42.12 0 0 0 -3-5.35 43 43 0 0 1 5.68-3.13c2.11-1 4.2-1.91 6.34-2.82 3.1-1.32 3.85-6.12 5.84-9.3a32 32 0 0 1 6.81-7.24 6.52 6.52 0 0 1 4.62 3.93c.93 2.45-.38 5 .08 7.38.51 2.67 3.04 2.96 3.56 5.77z"/><path d="m174.76 113a7.19 7.19 0 0 0 -.81 0c-1.79 0-3.07 1-4.68 1.45a9.69 9.69 0 0 1 -3.15.42c-3-1.85-.49-4.83-2.32-7.34 1.53.1 3.07.19 4.6.22h1.42 3.58c1.66 2 1.47 3.31 2.75 5.48-.46-.14-.92-.23-1.39-.23z"/><path d="m166.12 114.77a9.69 9.69 0 0 0 3.15-.42c1.61-.46 2.89-1.45 4.68-1.45a7.19 7.19 0 0 1 .81 0c-1.2 2.58-2.07 6.84-4.92 8-1.49-.28-3-.56-4.43-.86-1.63-.33-3.24-.7-4.82-1.09-.67-.17-1.32-.33-2-.51a57.55 57.55 0 0 1 2.65-5.58c1.87 1.05 3.16 1.8 4.88 1.91z"/><path d="m171.75 100a5.39 5.39 0 0 1 1.07.09c-.72 2.19-3.1 5.68-4.42 7.6-1.53 0-3.07-.12-4.6-.22-1.7-.11-3.4-.23-5.1-.3v-.07c.45-1 2.15-3.73 2.76-4.85a11.12 11.12 0 0 0 3.39-.87 20 20 0 0 1 6.9-1.38z"/><path d="m171.35 126.94c-.71.93-4.33 6.7-6.18 7.42-1.28-.5-2.55-1.05-3.76-1.64-.69-.35-1.37-.7-2-1.08a40.16 40.16 0 0 1 -4.83-3.91c1-.68 3-2.18 3.95-3a13.31 13.31 0 0 0 3 2.78c2.43 1.51 4.76.88 7.2.15.88-.27 1.74-.53 2.62-.72z"/><path d="m161.41 132.72c1.14 3.05-.13 5.6-.13 8.93-2 .35-3.74 0-5.46-3.13-2.26-4.12-1.16-8.63-7.35-7.31a44.64 44.64 0 0 0 1.62-5.9 9.61 9.61 0 0 1 4.49 2.41 40.16 40.16 0 0 0 4.83 3.91c.59.37 1.31.74 2 1.09z"/><path d="m160.21 164.43a3.58 3.58 0 0 0 .79-.43c2.56 1.56 7.24 6.76 2.88 9.24-3.25 1.82-3.35-5.95-3.67-8.81z"/><path d="m160.21 164.43a3.45 3.45 0 0 1 -.48.2l-.17-.51c0-1.64-.5-3.4 0-5s1.13-2.66 2.89-1.31c.46 2.63.17 4.95-1.5 6.19a3.58 3.58 0 0 1 -.74.43z"/><path d="m159.56 164.12.17.51a7 7 0 0 1 -2 .35 7.28 7.28 0 0 1 -2.61-.49c-.06-.2-.8-8.74.9-6.63.41.55 2.88 5.46 3.54 6.26z"/><circle cx="147.25" cy="73.61" r="2.49"/><path d="m145 62.43a3.58 3.58 0 1 1 -4.29 3.5 3.81 3.81 0 0 1 .07-.75 3.58 3.58 0 0 1 3.5-2.82 4.28 4.28 0 0 1 .72.07z"/><path d="m143.48 54.12a4.34 4.34 0 0 1 .82 2.56 4.4 4.4 0 0 1 -4.42 4.41 4.24 4.24 0 0 1 -1.59-.3 4.41 4.41 0 1 1 5.19-6.67z"/><path d="m143.59 160.84c.55 5.8-1.4 10.52-5.44 14.66-2.57 2.63-4 6.64-7.51 8.14a10.22 10.22 0 0 1 -11.3-2.64c-1.28-1.41-2.32-3.27-3.86-4.39-1.83-1.34-3.7-1.27-5.24-3.1a27.13 27.13 0 0 1 -3.45-5.29c-.79-2-.16-4.72-.88-6.56v-.14a45.52 45.52 0 0 0 5.75-.37v.24c.54 1.66 1.09 4.26 2.27 5.44 1.78 1.77 3.69.7 5.78 1.39 3.55 1.16 6.17 7.71 10.14 7.22 2.76-.35 2.43-2.37 3.84-4.13s3-1.8 3.6-4.14c.5-2.08 0-4.63 0-6.88 0-2.41.59-4.3.83-6.62a16.41 16.41 0 0 0 -.47-5.07l-.12-.12q1-1 1.92-2h.05c1.41.14 3.87 12.12 4.09 14.36z"/><path d="m141.44 79.31a3.57 3.57 0 1 1 -3.57-3.58 3.62 3.62 0 0 1 .94.13 3.55 3.55 0 0 0 1.31.67 3.57 3.57 0 0 1 1.32 2.78z"/><path d="m129 62.76a4.42 4.42 0 1 1 -1.77 8.46l-.15-.07a4.41 4.41 0 0 1 2-8.37z"/><path d="m104.84 161.51a65 65 0 0 1 -4 6.21l-.24.33c-2.81-3-5.84-5.16-9.89-5.83-4.56-.75-9.47 1-13.77 1.65h-.23c.59-3.82 1.84-7.19 2.11-11.22a45 45 0 0 0 26.02 8.86z"/><path d="m82.25 167.67a1.16 1.16 0 1 1 -1.16 1.16 1.16 1.16 0 0 1 1.16-1.16z"/><path d="m78.22 152.12-.14.18c-.28 1.57-7.3 3.32-8.82 3.57-4.41.71-8.43 1.42-12.65-.82-3.41-1.81-8-5.48-8.89-9.36-1.53-6.69 3.89-23.35 13.4-22.69a45.11 45.11 0 0 0 17.1 29.12zm-6.52-1.06a1.16 1.16 0 1 0 -1.16 1.16 1.16 1.16 0 0 0 1.16-1.16zm-8.62-4.55a1.16 1.16 0 1 0 -1.17 1.16 1.17 1.17 0 0 0 1.17-1.16zm-1.17-6.41a1.16 1.16 0 1 0 -1.15 1.15 1.15 1.15 0 0 0 1.15-1.15zm-3.27-9a1.16 1.16 0 1 0 -1.16 1.15 1.16 1.16 0 0 0 1.16-1.16zm-3 5a1.16 1.16 0 1 0 -1.17 1.16 1.17 1.17 0 0 0 1.14-1.21z"/><path d="m62.11 71.05a7.85 7.85 0 0 1 1 0c.45 0 .38 1.31 1.44 1 1.34-.33.35-1 .88-1.94a9 9 0 0 1 1.69-2.58 2.16 2.16 0 0 1 1.79-.4c1.68 3.13 2.85 3.76 6.17 4.85a12 12 0 0 1 7.13 5.58l.07.11a45.26 45.26 0 0 0 -16.26 17.1c.55-1.3-2.92-5.82-3.41-7.56-1-3.4.31-6.94-.54-10.19-.65-2.53-3.07-5.8.04-5.97z"/><path d="m105.8 152a35.69 35.69 0 1 1 35.69-35.69 35.73 35.73 0 0 1 -35.69 35.69zm0-70.52a34.83 34.83 0 1 0 34.83 34.83 34.88 34.88 0 0 0 -34.83-34.79z"/><path d="m105.91 162h-1.08a45.28 45.28 0 0 1 -26.22-9c-.23-.17-.45-.33-.66-.5a45.34 45.34 0 0 1 -17.25-29.4c-.07-.44-.12-.88-.18-1.32a46.56 46.56 0 0 1 -.32-5.43 45.56 45.56 0 0 1 5.3-21.35c0-.08.08-.17.13-.25v-.09a45.78 45.78 0 0 1 16.47-17.27c.48-.3 1-.61 1.57-.91a45.15 45.15 0 0 1 18.44-5.57 45.49 45.49 0 0 1 42 20.72 45.7 45.7 0 0 1 6.4 15.79c.26 1.31.47 2.64.61 4a42.72 42.72 0 0 1 .26 4.44v.53a47.17 47.17 0 0 1 -.43 6.3c-.13.9-.28 1.83-.47 2.76a44.55 44.55 0 0 1 -1.63 6 42.22 42.22 0 0 1 -2 4.88 45.91 45.91 0 0 1 -6.09 9.41c-.38.45-.68.79-1 1.11-.62.7-1.27 1.38-1.93 2a45.51 45.51 0 0 1 -31.92 13.15zm-.11-90.33c-1.25 0-2.46 0-3.62.14a44.33 44.33 0 0 0 -18.1 5.47c-.54.3-1.06.6-1.53.9a44.87 44.87 0 0 0 -16.11 16.89.36.36 0 0 0 0 .09 1.72 1.72 0 0 0 -.12.21 44.69 44.69 0 0 0 -4.88 26.26c0 .43.1.86.17 1.29a44.45 44.45 0 0 0 16.93 28.81l.64.49a44.43 44.43 0 0 0 25.73 8.81h1.06a45.3 45.3 0 0 0 5.69-.37 44.27 44.27 0 0 0 25.64-12.54c.65-.64 1.29-1.31 1.9-2 .29-.31.58-.64 1-1.09a44.81 44.81 0 0 0 6-9.22 43.21 43.21 0 0 0 2-4.79 46.49 46.49 0 0 0 1.6-5.84c.18-.91.33-1.82.45-2.71a43.85 43.85 0 0 0 .43-6.18c0-.17 0-.34 0-.51 0-1.48-.1-3-.25-4.36s-.34-2.6-.6-3.88a44.4 44.4 0 0 0 -3.34-10.19 46.06 46.06 0 0 0 -2.94-5.3 44.63 44.63 0 0 0 -37.6-20.48z"/><path d="m92.38 73.14c0-.15-.23-1.17-.42-2.07-.15-.69-.29-1.38-.38-1.81a36.16 36.16 0 0 1 -.16-14.26 33 33 0 0 1 2-6.41c.94-2.24 3.36-5.67 6.14-6a4 4 0 0 1 3.77 2c1.51 2.13 1.54 6.1 1.4 9.32h-.86c.13-2.84.14-6.84-1.24-8.78a3.25 3.25 0 0 0 -3-1.68c-2.13.24-4.4 3-5.44 5.45a32 32 0 0 0 -1.93 6.25 35 35 0 0 0 .15 13.89c.09.43.23 1.12.38 1.8.25 1.22.41 2 .43 2.13z"/><path d="m102.56 71.41-.83-.23a67.29 67.29 0 0 0 1.91-13.33c0-.46 0-1 .09-1.55s0-.86.08-1.32v-.28-.72h.86v.74.28c0 .46-.06.9-.08 1.32s-.07 1.08-.09 1.55a67.73 67.73 0 0 1 -1.94 13.54z"/><path d="m111.15 71.35-.79-.33c.09-.22.14-.41.21-.64a8.09 8.09 0 0 1 .8-2 8.84 8.84 0 0 1 .57-.88 6.26 6.26 0 0 0 .67-1.12 46 46 0 0 0 1.71-5.13c.28-1 .65-2 1-3 1.08-2.92 2.21-6 1.5-8.62s-2.13-3.8-4.15-3.67c-3.45.22-7.47 4.27-8 8v.05a4.84 4.84 0 0 0 0 .93v.3l-.86.07c0-.11 0-.22 0-.34a6.21 6.21 0 0 1 0-1.05c.56-4.2 4.91-8.56 8.78-8.81 1.42-.09 4 .35 5 4.31.78 2.93-.45 6.23-1.53 9.14-.38 1-.74 2-1 2.94a49.13 49.13 0 0 1 -1.74 5.22 6.49 6.49 0 0 1 -.77 1.28 8.16 8.16 0 0 0 -.51.8 7.78 7.78 0 0 0 -.74 1.81 4.77 4.77 0 0 1 -.15.74z"/><path d="m88.73 74.28c-2.2-3.79-2.87-8.26-3.52-12.59a51.65 51.65 0 0 0 -1.75-8.43l.82-.27a52.14 52.14 0 0 1 1.78 8.57c.63 4.25 1.29 8.64 3.42 12.29z"/><path d="m95.8 72.5-.8-.27a55 55 0 0 0 2.24-10.89 53.54 53.54 0 0 1 2-9.08c.24-.83.49-1.68.72-2.55l.83.22c-.24.88-.48 1.73-.72 2.57a53.43 53.43 0 0 0 -2 8.93 55.42 55.42 0 0 1 -2.27 11.07z"/><path d="m107.62 71.3-.68-.53c.86-1.1 1.06-3.94 1.23-6.22a29 29 0 0 1 .34-3.24c.27-1.36.6-2.71.91-4 .48-2 1-4.08 1.3-6.15l.85.13c-.33 2.11-.83 4.2-1.31 6.22-.31 1.31-.64 2.66-.91 4a26.75 26.75 0 0 0 -.32 3.13c-.19 2.49-.39 5.36-1.41 6.66z"/><path d="m81.87 77.85a11.81 11.81 0 0 0 -6.87-5.37c-3.26-1.07-4.59-1.74-6.31-4.86a1.62 1.62 0 0 0 -1.24.34 5.29 5.29 0 0 0 -1.18 1.72l-.4.74a1 1 0 0 0 -.1.73c0 .57 0 1.15-1 1.41a1.29 1.29 0 0 1 -1.56-.85 1.65 1.65 0 0 0 -.1-.19 6 6 0 0 0 -.91 0v-.86a7.22 7.22 0 0 1 1.1 0c.41 0 .59.39.72.65s.28.48.58.4.44-.11.4-.49a1.92 1.92 0 0 1 .1-1.22c.13-.23.26-.47.38-.71a6.09 6.09 0 0 1 1.41-2 2.58 2.58 0 0 1 2.11-.49h.21l.09.18c1.59 3 2.61 3.55 5.93 4.64a12.43 12.43 0 0 1 7.38 5.79z"/><path d="m66.29 95.3-.6-.61.31.31-.39-.17.06-.12c.26-.62-1-2.82-1.88-4.27a16.55 16.55 0 0 1 -1.54-3 16.11 16.11 0 0 1 -.33-5.44 15.36 15.36 0 0 0 -.23-4.77 15.92 15.92 0 0 0 -.73-2c-.6-1.48-1.17-2.88-.59-3.79a2 2 0 0 1 1.71-.79l.05.86c-.54 0-.89.16-1 .39-.34.54.17 1.79.67 3a18.12 18.12 0 0 1 .72 2.1 16.06 16.06 0 0 1 .25 5 15.9 15.9 0 0 0 .29 5.15 17.12 17.12 0 0 0 1.46 2.85c1.42 2.43 2.33 4.1 1.94 5a.45.45 0 0 1 -.06.12z"/><path d="m62.43 71.48h-.32v-.28l-.44-.2s0-.06 0-.09l.09-.32c.55-2.76-1.64-8.71-3.6-10.51a8.42 8.42 0 0 0 -1.11-.77c-1.31-.83-2.94-1.86-3-3.23a2.27 2.27 0 0 1 .95-1.84c1.65-1.47 3.12-.07 4.2.95a9.94 9.94 0 0 0 .8.81 5.12 5.12 0 0 1 2.63-3.82 2.45 2.45 0 0 1 2.58.06c.62.46 1.28 1.49.93 3.79-.08.45-.16.92-.24 1.4-.59 3.35-1.25 7.15 1.43 9.73l-.6.62c-3-2.9-2.3-6.94-1.68-10.5.08-.47.17-.93.24-1.39.22-1.46 0-2.51-.59-2.95a1.62 1.62 0 0 0 -1.69 0 4.29 4.29 0 0 0 -2.21 3.75v.58l-.54-.18a5.12 5.12 0 0 1 -1.73-1.27c-1.22-1.16-2-1.81-3-.93a1.48 1.48 0 0 0 -.64 1.17c.07.93 1.57 1.88 2.65 2.57a9 9 0 0 1 1.23.86 14.26 14.26 0 0 1 3 5.43c.9 2.59 1.16 4.87.73 6.27z"/><path d="m143.7 54.51-.65-.57.13-.13c1.82-1.91 2.82-4.91 3.82-7.55.29-.81.56-1.58.85-2.31 0-.1.08-.21.12-.32l.81.29-.13.34c-.29.72-.56 1.48-.84 2.29-1 2.72-2.06 5.8-4 7.86z"/><path d="m153.12 45.23a19.67 19.67 0 0 1 -5-.71c-2.12-.58-5.85-2-7-5l.8-.31c1 2.66 4.5 4 6.47 4.49a15.47 15.47 0 0 0 6.8.48l.22.83a8.93 8.93 0 0 1 -2.29.22z"/><path d="m53 123.24a20 20 0 0 1 -10.8-2.75 11.59 11.59 0 0 1 -5.29-8.35 14.12 14.12 0 0 1 1.56-9c2.62-4.83 8.14-8.55 14.75-10 1.73-.37 10.47-2 13 1.79l-.72.49c-2.3-3.42-11.13-1.65-12.13-1.44-6.37 1.35-11.67 4.91-14.17 9.52a13.29 13.29 0 0 0 -1.46 8.5 10.74 10.74 0 0 0 4.91 7.75c5.28 3.42 13.09 3 18.19 1.55l.23.83a31 31 0 0 1 -8.07 1.11z"/><path d="m43.46 114.16h-.11v-.86c.15 0 .63 0 1.14-.81 1.33-2.25 1.25-7.94.4-9.27l.73-.46c1.08 1.7 1 7.76-.39 10.17a2.12 2.12 0 0 1 -1.77 1.23z"/><path d="m45.72 108.77a15.83 15.83 0 0 1 -7.23-5.16l-.08-.09a20 20 0 0 1 -3.11-6.65c-.27-.83-.54-1.68-.87-2.55l.81-.3c.33.89.61 1.75.87 2.59a19.47 19.47 0 0 0 3 6.39v.06a15 15 0 0 0 6.89 4.94z"/><path d="m53.19 118.73a25.56 25.56 0 0 1 -6.9-1.39l-.56-.17.25-.82.56.17c3.46 1 7.05 2.09 9.57.69l.42.75a6.71 6.71 0 0 1 -3.34.77z"/><path d="m63 157a13.53 13.53 0 0 1 -6.56-1.56c-3.91-2.07-8.24-5.86-9.11-9.65-1.07-4.69 1.12-13.89 5.66-19.19 2.42-2.82 5.25-4.2 8.19-4l-.06.86c-2.69-.19-5.21 1.05-7.48 3.69-4.31 5-6.48 14-5.47 18.44.81 3.52 4.94 7.1 8.67 9.08 4 2.12 7.75 1.52 12.09.82l.29-.05c2.35-.38 8.27-2.15 8.47-3.22l.85.15c-.4 2.19-9.1 3.91-9.19 3.92l-.28.05a38.67 38.67 0 0 1 -6.07.66z"/><path d="m77.69 184.14a5.71 5.71 0 0 1 -.73 0l-.26-.14-.08-.24c-1.16-3.41-1-7.7-.76-11.84.08-1.5.14-2.91.14-4.24a26.66 26.66 0 0 1 .32-3.95c.24-1.55.59-3 .93-4.47a41 41 0 0 0 1.18-6.71h.86a40.7 40.7 0 0 1 -1.2 6.85c-.34 1.43-.68 2.9-.92 4.41a24.84 24.84 0 0 0 -.31 3.82c0 1.35-.06 2.77-.14 4.28-.18 4-.38 8.05.63 11.27 2.19.18 5.53-1.43 7.77-2.52l.83-.4.6-.28a32.45 32.45 0 0 0 7.22-4.2 32 32 0 0 0 5.52-6.63l1-1.43.24-.34a63.22 63.22 0 0 0 3.92-6.15l.77.39a65 65 0 0 1 -4 6.26l-.24.34c-.33.46-.66.94-1 1.42a32.64 32.64 0 0 1 -5.68 6.8 33.31 33.31 0 0 1 -7.41 4.32l-.59.28-.82.39c-2.18 1.16-5.39 2.71-7.79 2.71z"/><path d="m100.33 168.35c-3.22-3.37-6.19-5.13-9.65-5.7-3.17-.53-6.54.2-9.8.9-1.33.29-2.59.56-3.83.75l-.13-.86c1.21-.18 2.46-.45 3.78-.73 3.33-.72 6.78-1.47 10.12-.91 3.65.6 6.78 2.44 10.13 6z"/><path d="m127 184.8a10.9 10.9 0 0 1 -8-3.51c-.46-.51-.9-1.08-1.32-1.63a12.83 12.83 0 0 0 -2.47-2.7 9.69 9.69 0 0 0 -2.16-1.12 7.27 7.27 0 0 1 -3.16-2.06 27.16 27.16 0 0 1 -3.52-5.4 10.53 10.53 0 0 1 -.5-3.57 9.36 9.36 0 0 0 -.38-3l.8-.31a9.91 9.91 0 0 1 .44 3.28 9.81 9.81 0 0 0 .44 3.27 26.67 26.67 0 0 0 3.38 5.17 6.55 6.55 0 0 0 2.83 1.82 10.47 10.47 0 0 1 2.34 1.21 13.74 13.74 0 0 1 2.65 2.88c.43.56.83 1.09 1.27 1.57a9.76 9.76 0 0 0 10.81 2.54c2.13-.92 3.46-2.83 4.87-4.85a25.08 25.08 0 0 1 2.51-3.2c4.09-4.19 5.82-8.88 5.31-14.32-.27-2.84-2.64-13.37-3.72-13.95l.07-.86c2 .16 4.39 13.94 4.47 14.72.54 5.71-1.28 10.62-5.56 15a24.55 24.55 0 0 0 -2.41 3.09c-1.42 2-2.89 4.13-5.24 5.15a9.48 9.48 0 0 1 -3.75.78z"/><path d="m129.44 175.9c-2.25 0-4-2-5.78-3.9-1.29-1.43-2.64-2.91-4-3.37a7 7 0 0 0 -2.2-.26 4.7 4.7 0 0 1 -3.75-1.24c-1-1-1.56-2.87-2-4.51-.12-.39-.23-.76-.34-1.1l.82-.26c.11.34.22.72.34 1.12.43 1.46 1 3.29 1.83 4.14a3.91 3.91 0 0 0 3.15 1 7.71 7.71 0 0 1 2.46.3c1.63.53 3.05 2.1 4.42 3.61 1.79 2 3.48 3.84 5.52 3.59 1.63-.2 2-1 2.52-2.15a8.45 8.45 0 0 1 1-1.82 8.69 8.69 0 0 1 1.69-1.55 3.82 3.82 0 0 0 1.82-2.42 15.47 15.47 0 0 0 .1-4.48c-.06-.76-.12-1.55-.12-2.3a23.74 23.74 0 0 1 .45-4.13c.14-.81.29-1.65.38-2.53a16.12 16.12 0 0 0 -.46-4.93l.84-.19a16.53 16.53 0 0 1 .47 5.21c-.09.91-.24 1.76-.38 2.59a22 22 0 0 0 -.44 4c0 .72.06 1.49.11 2.24a15.58 15.58 0 0 1 -.12 4.74 4.66 4.66 0 0 1 -2.13 2.91 7.84 7.84 0 0 0 -1.54 1.4 7.2 7.2 0 0 0 -.94 1.64c-.54 1.17-1.09 2.38-3.19 2.65z"/><path d="m157.52 165.41a8 8 0 0 1 -2.58-.51 23.23 23.23 0 0 1 -8.38-5.63 29.72 29.72 0 0 1 -6.56-13.81l.84-.18a29 29 0 0 0 6.36 13.42 22.49 22.49 0 0 0 8 5.39 7.07 7.07 0 0 0 2.45.46 6.74 6.74 0 0 0 1.92-.33 3.5 3.5 0 0 0 .43-.17 3.36 3.36 0 0 0 .67-.39c1.38-1 1.83-3 1.33-5.78-.92-5.26-4.81-11.58-6.64-13.5-.55-.57-1.18-1.35-1.84-2.17-2.11-2.59-4.72-5.8-7.07-5.73v-.86h.12c2.73 0 5.45 3.35 7.65 6 .65.81 1.27 1.57 1.8 2.12a33.91 33.91 0 0 1 6.86 13.94c.56 3.15 0 5.38-1.67 6.61a4.36 4.36 0 0 1 -.81.49 5.15 5.15 0 0 1 -.52.2 7 7 0 0 1 -2.16.37z"/><path d="m160 165.3-.74-.9a38.86 38.86 0 0 1 -2.15-3.73c-.59-1.09-1.26-2.32-1.44-2.54a.45.45 0 0 0 -.09-.1 9.3 9.3 0 0 0 -.25 3.17c0 1.57.18 3.06.2 3.2l-.83.21c0-.06-.8-6.75.52-7.44.2-.11.62-.2 1.12.42a28.22 28.22 0 0 1 1.52 2.67c.39.71.82 1.51 1.2 2.18a8.35 8.35 0 0 1 .12-3.41c.3-1 .7-1.89 1.52-2.15a2.27 2.27 0 0 1 2 .63l-.52.68c-.38-.29-.9-.6-1.26-.49s-.75.93-1 1.59a7.67 7.67 0 0 0 -.09 3.07 15.57 15.57 0 0 1 .11 1.81z"/><path d="m162.93 173.94a1.66 1.66 0 0 1 -.75-.18c-1.57-.83-2-4.19-2.27-7.85 0-.54-.08-1-.13-1.43 0-.11 0-.19 0-.27l.85-.13.34-.6.23.14c2 1.21 4.91 4.25 4.88 6.92a3.53 3.53 0 0 1 -2 3.06 2.24 2.24 0 0 1 -1.15.34zm-2.3-9.63s0 .06 0 .09c0 .39.08.89.13 1.44.2 2.42.53 6.48 1.82 7.16.1.05.41.21 1-.14a2.66 2.66 0 0 0 1.57-2.32c0-2.21-2.62-5-4.47-6.17z"/><path d="m166.51 115.21h-.42a10.94 10.94 0 0 1 -4.55-1.63l-.48-.25c-.23-.13-.47-.25-.73-.38a9 9 0 0 0 -4.89-.62 10.31 10.31 0 0 1 -4.9-.5l.33-.8a9.5 9.5 0 0 0 4.51.45 9.71 9.71 0 0 1 5.34.71c.26.13.51.25.74.38l.48.25a10.07 10.07 0 0 0 4.2 1.53 9.12 9.12 0 0 0 3-.41 12 12 0 0 0 1.58-.6 7.91 7.91 0 0 1 3.22-.86 8.24 8.24 0 0 1 .85 0c.48.06.95.15 1.41.24a9.4 9.4 0 0 0 2.93.27 4.61 4.61 0 0 0 1.67-.44 5.26 5.26 0 0 0 .92-.58 8.88 8.88 0 0 1 1.4-.87 7 7 0 0 1 1.9-.51 3.92 3.92 0 0 0 2.57-1.09 3 3 0 0 0 .61-1.64c.3-3-2.25-7-4.7-7.53a4.13 4.13 0 0 0 -3 .77l-.3.16a4.47 4.47 0 0 1 -2.13.68 9 9 0 0 1 -3.09-.79 12.81 12.81 0 0 0 -2.25-.72 4.84 4.84 0 0 0 -1-.08 19.81 19.81 0 0 0 -6.73 1.34 11.48 11.48 0 0 1 -3.5.91l-.8.08-1.32.14c-3.32.42-7.5 2.06-8.84 4.69a1.33 1.33 0 0 0 -.06.12l-.79-.33a1 1 0 0 1 .09-.18c1.69-3.34 6.77-4.81 9.5-5.15l1.34-.15.78-.08a10.73 10.73 0 0 0 3.27-.84 20.49 20.49 0 0 1 7.05-1.41 5.1 5.1 0 0 1 1.16.1 12.44 12.44 0 0 1 2.4.76 8.25 8.25 0 0 0 2.79.73 3.7 3.7 0 0 0 1.72-.57l.3-.17a4.93 4.93 0 0 1 3.57-.85c2.86.57 5.73 5.08 5.39 8.46a3.82 3.82 0 0 1 -.8 2.09 4.63 4.63 0 0 1 -3.09 1.4 6.36 6.36 0 0 0 -1.67.43 8.7 8.7 0 0 0 -1.28.8 6.32 6.32 0 0 1 -1 .65 5.55 5.55 0 0 1 -2 .52 10 10 0 0 1 -3.16-.27c-.48-.1-.92-.18-1.36-.23a6.61 6.61 0 0 0 -.76 0 7 7 0 0 0 -2.87.79 14.08 14.08 0 0 1 -1.69.64 10.85 10.85 0 0 1 -2.86.44z"/><path d="m183 129.84a7.39 7.39 0 0 1 -2.48-.46 21.32 21.32 0 0 1 -2.08-.89 19.84 19.84 0 0 0 -2.42-1 7.64 7.64 0 0 0 -2.09-.38 9.82 9.82 0 0 0 -2.49.25c-.76.16-1.51.39-2.25.61l-.31.09c-2.29.69-4.89 1.46-7.55-.19a13.79 13.79 0 0 1 -3.13-2.87l-.32-.38c-1.94-2.28-3.34-3.93-7.12-1.66l-.44-.74c4.4-2.64 6.25-.46 8.22 1.85l.32.37a12.69 12.69 0 0 0 2.93 2.7c2.23 1.39 4.44.81 6.58.18l.41-.13c.8-.24 1.63-.49 2.48-.67a11 11 0 0 1 2.71-.27 8.89 8.89 0 0 1 2.31.42 21.1 21.1 0 0 1 2.52 1 21.13 21.13 0 0 0 2 .86 6 6 0 0 0 3.15.33 4.66 4.66 0 0 0 .62-.15 4.86 4.86 0 0 0 .58-.2 6.09 6.09 0 0 0 3.88-7.23 5.79 5.79 0 0 0 -.77-1.63 18.07 18.07 0 0 0 -5.07-5.36 7.08 7.08 0 0 0 -2.27-.93l.17-.84a7.68 7.68 0 0 1 2.55 1 18.82 18.82 0 0 1 5.34 5.61 6.7 6.7 0 0 1 -3.51 10.14l-.65.23a5.23 5.23 0 0 1 -.72.16 5.77 5.77 0 0 1 -1.1.18z"/><path d="m179.2 143.38a19.66 19.66 0 0 1 -6-1.27 17.78 17.78 0 0 0 -6.38-1.23 15.65 15.65 0 0 0 -3.49.71 20.21 20.21 0 0 1 -2 .49c-1.93.34-4 .17-5.9-3.35a18.3 18.3 0 0 1 -1.37-3.45c-.88-2.82-1.42-4.52-5.52-3.64l-.18-.84c4.86-1 5.63 1.4 6.53 4.23a17.35 17.35 0 0 0 1.29 3.29c1.58 2.87 3.14 3.24 5 2.91a17.94 17.94 0 0 0 1.89-.47 17.27 17.27 0 0 1 3.67-.74 18.46 18.46 0 0 1 6.69 1.27 17.06 17.06 0 0 0 6.26 1.21 6.1 6.1 0 0 0 5.47-3.83 8.3 8.3 0 0 0 .47-4.48 10.07 10.07 0 0 0 -1.93-4.58 1.85 1.85 0 0 1 -.14-.14l.58-.63.19.19a10.71 10.71 0 0 1 2.14 5 9 9 0 0 1 -.47 4.97 6.94 6.94 0 0 1 -6.21 4.36z"/><path d="m188.65 108.38c-3.3 0-6.48-.07-9.56-.14l-2.74-.06-2.95-.05c-1.65 0-3.33 0-5 0-1.52 0-3-.12-4.62-.22h-.77c-1.41-.09-2.88-.19-4.32-.25a45.46 45.46 0 0 0 -8.36.26l-.12-.85a46.27 46.27 0 0 1 8.52-.27c1.45.06 2.92.16 4.34.25l.77.06c1.55.09 3.07.18 4.58.21h5 3l2.75.06c3.07.07 6.25.14 9.53.14z"/><path d="m180 122.52c-.47 0-.95 0-1.41 0-1.2 0-2.38-.1-3.5-.22-.94-.1-1.85-.23-2.71-.38l-2.65-.48c-1.45-.27-2.94-.56-4.44-.86l.18-.85c1.49.31 3 .6 4.42.86.87.17 1.76.32 2.63.48s1.74.27 2.66.37c1.1.12 2.26.19 3.43.22 1.49.05 3 0 4.52-.08a51.72 51.72 0 0 0 6.2-.77h.12v.43l.06.42a51.56 51.56 0 0 1 -6.31.79c-1.05.03-2.12.07-3.2.07z"/><path d="m165.32 120.54c-1.72-.35-3.3-.71-4.83-1.09l-2-.51.22-.83 2 .5c1.52.38 3.09.74 4.81 1.09z"/><path d="m158.5 118.93a42 42 0 0 1 -7.72-2.71l.37-.78a41.07 41.07 0 0 0 7.57 2.66z"/><path d="m183.5 139.37a31.69 31.69 0 0 1 -8.42-1.33c-1.56-.42-3.1-.92-4.6-1.39l-.79-.25c-1.77-.57-3.3-1.1-4.68-1.64s-2.66-1.1-3.79-1.66c-.77-.38-1.44-.74-2-1.09a23.75 23.75 0 0 1 -3.47-2.71c-.46-.42-.94-.84-1.41-1.24a9.25 9.25 0 0 0 -4.29-2.31l.14-.85a10 10 0 0 1 4.7 2.5l1.44 1.25a22.25 22.25 0 0 0 3.33 2.62c.58.34 1.23.69 2 1.06 1.11.55 2.33 1.08 3.73 1.62s2.87 1.07 4.62 1.63l.79.25c1.49.47 3 1 4.57 1.38a27.24 27.24 0 0 0 10.22 1.19l.09.86a21.19 21.19 0 0 1 -2.18.11z"/><path d="m159.09 107.24-.77-.37c.28-.59 1-1.79 1.66-3 .45-.76.87-1.47 1.11-1.92l.76.41c-.25.46-.67 1.18-1.12 2-.64 1.09-1.37 2.32-1.64 2.88z"/><path d="m168.75 107.9-.71-.49c1.27-1.86 3.64-5.33 4.33-7.44a.41.41 0 0 1 0-.07l.83.23v.1c-.73 2.24-3 5.64-4.44 7.67z"/><path d="m166.12 115.2h-.12l-.1-.07c-1.89-1.16-1.84-2.8-1.79-4.25a4.72 4.72 0 0 0 -.65-3.19l.69-.51a5.53 5.53 0 0 1 .82 3.73c-.05 1.41-.08 2.54 1.28 3.43h.06l.14.14-.62.59.31-.29z"/><path d="m176.56 108.13-.54-.66.06-.06c1.33-1.07 2.45-3.89 3.18-5.75l.33-.82v-.08l.12-.15.63.6-.32-.3h.43v.09.08l-.36.88c-.81 2.06-1.93 4.88-3.42 6.1z"/><path d="m175.78 113.4a14.16 14.16 0 0 1 -1.12-2.47 8.82 8.82 0 0 0 -1.59-3l.66-.55a9.78 9.78 0 0 1 1.74 3.21 13 13 0 0 0 1.05 2.33z"/><path d="m159 118.67-.39-.15h-.44v-.08-.07a55.92 55.92 0 0 1 2.65-5.6v-.07l.3.18.49.16-.05.1a57.78 57.78 0 0 0 -2.56 5.53z"/><path d="m170 121.38-.34-.79c2-.84 3-3.46 3.87-5.76.27-.74.54-1.44.83-2.06l.77.37c-.27.58-.53 1.27-.8 2-.92 2.46-1.97 5.26-4.33 6.24z"/><path d="m179 122.25-.69-.51a39 39 0 0 0 2.73-4.07 20.91 20.91 0 0 0 1.07-2.17 8 8 0 0 1 .71-1.33 2.78 2.78 0 0 0 .21-.36l.8.3a3.51 3.51 0 0 1 -.28.52 7.52 7.52 0 0 0 -.64 1.19 20.7 20.7 0 0 1 -1.12 2.26 39.28 39.28 0 0 1 -2.79 4.17z"/><path d="m168.42 127.82c-1.11-1-1.69-2.78-2.3-4.63a24.56 24.56 0 0 0 -1.1-2.88v-.09-.09h.43l.39-.18a27 27 0 0 1 1.13 3c.58 1.74 1.13 3.38 2.08 4.27z"/><path d="m175.72 127.11a21.1 21.1 0 0 0 -.95-4.89l.74-.44c.55.92 1 4.46 1.07 5.27z"/><path d="m185 129.48-.57-.65c.41-.35-.33-2.41-.77-3.65a13.35 13.35 0 0 1 -.88-3.16h.85a14.14 14.14 0 0 0 .84 2.93c.72 2.05 1.35 3.79.53 4.53z"/><path d="m154.82 128.08-.49-.71c1-.7 3-2.18 3.92-3l.26-.23.59.63-.29.25c-.95.84-2.96 2.35-3.99 3.06z"/><path d="m165.25 134.79h-.08v-.44l-.17-.35c1.39-.53 4.14-4.57 5.32-6.29.31-.46.54-.8.68-1l.68.52c-.12.17-.36.51-.65.94-2.12 3.11-4.28 6.06-5.71 6.62z"/><path d="m175.58 137.81-.77-.38c.76-1.53 4.83-7.84 5.51-8.72l.68.53c-.62.76-4.69 7.09-5.42 8.57z"/><path d="m161.71 141.65h-.86a22.57 22.57 0 0 1 .32-3.41 10.09 10.09 0 0 0 -.16-5.37l.8-.3a10.84 10.84 0 0 1 .21 5.8 22.54 22.54 0 0 0 -.31 3.28z"/><path d="m58.49 151.28-.48-.71a1.68 1.68 0 0 0 .62-1.42 5.66 5.66 0 0 0 -1.68-4 6.94 6.94 0 0 0 -6-1l-.21-.83a7.78 7.78 0 0 1 6.78 1.12 6.58 6.58 0 0 1 2 4.72 2.52 2.52 0 0 1 -1.03 2.12z"/><path d="m146.67 97.81-.54-.67.11-.08.23-.19a104.38 104.38 0 0 1 9.63-6.58c.24-.15.61-.42 1-.73 1.68-1.22 3-2.16 3.85-2.16 1.47 0 2.17 1.19 2.79 2.23a6 6 0 0 0 1.08 1.46c1.95 1.69 6 2.2 10.7 1.34a21.88 21.88 0 0 0 10.48-4.71 9.37 9.37 0 0 0 1.81-2.15c1.37-2.28 1.49-4.94.36-8.63-.14-.46-.29-1-.44-1.55-.92-3.21-2.16-7.61-4.37-9.32a6.1 6.1 0 0 0 -3.66-1.25c-3-.08-6.93 1.66-11 4.89a32.26 32.26 0 0 0 -6.7 7.13 26.09 26.09 0 0 0 -1.68 3.48c-1 2.48-2.13 5-4.35 6l-.21.08c-2.1.9-4.08 1.74-6.11 2.73l-.52.25a38.94 38.94 0 0 0 -5.13 2.84l-.47-.72a39.9 39.9 0 0 1 5.2-2.9l.52-.25c2.05-1 4-1.85 6.15-2.75l.21-.09c1.91-.81 2.88-3.1 3.9-5.52a25.62 25.62 0 0 1 1.74-3.61 32.73 32.73 0 0 1 6.91-7.38c2.44-2 7.18-5.2 11.54-5.08a6.9 6.9 0 0 1 4.16 1.43c2.44 1.88 3.73 6.44 4.67 9.77.16.55.31 1.07.45 1.53 1.18 3.89 1 6.85-.45 9.32a10.13 10.13 0 0 1 -2 2.35 22.63 22.63 0 0 1 -10.84 4.91c-5 .93-9.24.36-11.42-1.53a6.69 6.69 0 0 1 -1.25-1.67c-.57-1-1.07-1.8-2.06-1.81-.6 0-2.38 1.3-3.34 2-.45.32-.83.59-1.09.76a101.78 101.78 0 0 0 -9.53 6.58l-.21.16z"/><path d="m186.33 87.08a4.26 4.26 0 0 1 -.7-.07c-3.26-.65-7.42-5.59-8.3-8.35-1.35-4.23-.86-11.08 2-14.53l.66.55c-2.67 3.19-3.13 9.79-1.87 13.72.8 2.51 4.8 7.2 7.65 7.76a2 2 0 0 0 2-.65l.61.61a2.72 2.72 0 0 1 -2.05.96z"/><path d="m175.27 93.06c-.83-1.5-.21-2.71.33-3.78a4.11 4.11 0 0 0 .68-2.74 5 5 0 0 0 -1.7-2.75 5.57 5.57 0 0 1 -1.88-3 10.69 10.69 0 0 1 .08-3.34 8 8 0 0 0 -.13-4c-.69-1.81-2-2.94-4.35-3.66l-.13-.05.23-.83.17.06c2.58.81 4.09 2.09 4.88 4.17a8.75 8.75 0 0 1 .18 4.39 9.61 9.61 0 0 0 -.08 3.06 4.78 4.78 0 0 0 1.63 2.59 5.8 5.8 0 0 1 1.95 3.2 4.94 4.94 0 0 1 -.76 3.29c-.54 1-1 1.88-.35 3z"/><path d="m43.19 174.33c-4.57 0-5.92-4.56-7-8.29l-.37-1.22c-.73-2.35-1.56-4.61-2.43-7-.64-1.75-1.3-3.55-1.92-5.4-.55-1.63-1-3.19-1.43-4.7a49.39 49.39 0 0 0 -3.64-9.85c-.54-1-1-2-1.42-3-.56-1.22-1.09-2.38-1.8-3.62-.37-.63-.7-1.38-1-2.1a9.46 9.46 0 0 0 -2.18-3.46c-10.49-4.44-16.32-13.37-15.62-23.89.35-5.27 4.93-10.35 10-11.08 6.15-.89 12 4.3 14.5 9.89 2.18 4.77.94 11.22.3 13.77a18.9 18.9 0 0 1 -1.05 2.85 14.62 14.62 0 0 0 -1.13 3.43c-.25 1.83.63 3.57 1.49 5.25.23.47.48 1 .7 1.43.76 1.7 1.54 3.4 2.32 5.11 2.93 6.45 6 13.11 8.77 19.68 1.68 3.94 3.1 7.43 4.55 11.66a21.59 21.59 0 0 0 1 2.28c1.09 2.23 2.32 4.76 1.43 6.49a3.44 3.44 0 0 1 -2.71 1.65 8.35 8.35 0 0 1 -1.36.12zm-22.88-49.46.12.08c1.08.76 1.8 2.36 2.5 3.9.33.73.64 1.43 1 2 .73 1.28 1.29 2.51 1.84 3.7.43.93.87 1.9 1.4 2.9a49.6 49.6 0 0 1 3.7 10c.44 1.5.88 3.06 1.42 4.67.62 1.83 1.28 3.63 1.92 5.38.88 2.4 1.7 4.66 2.44 7 .13.4.25.81.37 1.23 1.16 3.94 2.48 8.41 7.4 7.56a2.66 2.66 0 0 0 2.1-1.19c.69-1.35-.44-3.67-1.45-5.72a22.46 22.46 0 0 1 -1-2.38c-1.45-4.2-2.86-7.68-4.53-11.6-2.8-6.57-5.83-13.22-8.76-19.66l-2.33-5.11c-.21-.46-.44-.92-.68-1.4-.92-1.8-1.86-3.66-1.57-5.76a14.65 14.65 0 0 1 1.22-3.65 18.58 18.58 0 0 0 1-2.71c.61-2.47 1.81-8.69-.25-13.22-2.42-5.29-7.86-10.23-13.6-9.39-4.7.68-8.95 5.39-9.27 10.28-.68 10.14 4.95 18.74 15.06 23z"/><path d="m83.61 77.2a6.45 6.45 0 0 1 -1.51-2.35 8.93 8.93 0 0 0 -.62-1.21 42 42 0 0 1 -2.82-5.13 46 46 0 0 1 -3.39-12.26c-.49-3 .76-7.62 3.4-9.77s5.73-.47 8.09 1c.4.25.79.48 1.18.7a6 6 0 0 1 3.2 3.36 12 12 0 0 1 .48 1.7 10.22 10.22 0 0 0 .51 1.72l-.79.35a10.51 10.51 0 0 1 -.55-1.87 12.52 12.52 0 0 0 -.45-1.59 5.13 5.13 0 0 0 -2.82-2.92c-.39-.22-.8-.46-1.2-.71-2.36-1.43-4.79-2.9-7.11-1s-3.54 6.27-3.09 9a45.35 45.35 0 0 0 3.32 12 39.89 39.89 0 0 0 2.76 5 9.87 9.87 0 0 1 .68 1.31 6.37 6.37 0 0 0 1.25 2z"/><path d="m139.88 61.52a5 5 0 0 1 -1.75-.32 4.85 4.85 0 0 1 1.75-9.37 4.83 4.83 0 0 1 4 2 4.83 4.83 0 0 1 .08 5.5 4.83 4.83 0 0 1 -4.08 2.19zm0-8.83a4 4 0 0 0 -1.43 7.7 3.83 3.83 0 0 0 1.43.27 4 4 0 0 0 3.32-1.77 4 4 0 0 0 -.07-4.52 4 4 0 0 0 -3.25-1.68z"/><path d="m127 71.61-.18-.09.38-.77.13.06z"/><path d="m129 72a4.82 4.82 0 0 1 -1.94-.4l.35-.79a3.94 3.94 0 0 0 1.59.33 4 4 0 1 0 -1.77-.41l-.38.77a4.85 4.85 0 1 1 2.15.5z"/><path d="m131.89 63.19a4 4 0 1 1 4-4 4 4 0 0 1 -4 4zm0-7.15a3.15 3.15 0 1 0 3.11 3.14 3.15 3.15 0 0 0 -3.11-3.18z"/><path d="m137.87 83.31a4 4 0 0 1 0-8 3.91 3.91 0 0 1 2.52.88 4 4 0 0 1 -2.53 7.11zm0-7.14a3.13 3.13 0 1 0 2 .7 3.21 3.21 0 0 0 -1.16-.6 3.18 3.18 0 0 0 -.84-.1z"/><path d="m145 84a4 4 0 1 1 4-4 4 4 0 0 1 -4 4zm0-7.15a3.15 3.15 0 1 0 3.16 3.15 3.15 3.15 0 0 0 -3.16-3.19z"/><path d="m147.25 76.52a2.92 2.92 0 1 1 2.91-2.91 2.92 2.92 0 0 1 -2.91 2.91zm0-5a2.06 2.06 0 1 0 2.05 2.06 2.06 2.06 0 0 0 -2.05-2.03z"/><path d="m137 68.39a4 4 0 1 1 1.37-7.77 4 4 0 0 1 2.63 3.77 3.62 3.62 0 0 1 -.08.8 4 4 0 0 1 -3.92 3.2zm0-7.15a3.15 3.15 0 1 0 3.05 3.76 3.36 3.36 0 0 0 .06-.63 3.16 3.16 0 0 0 -2.06-3 3.32 3.32 0 0 0 -1.05-.13z"/><path d="m144.3 69.94a4 4 0 1 1 0-8 4.26 4.26 0 0 1 .8.08 4 4 0 0 1 -.8 7.93zm0-7.15a3.17 3.17 0 0 0 -3.08 2.48 3.6 3.6 0 0 0 -.06.66 3.14 3.14 0 1 0 3.77-3.08 3.36 3.36 0 0 0 -.63-.06z"/><path d="m141.06 77.09a4 4 0 0 1 -2.52-.89 4 4 0 1 1 2.52.9zm-2-1.56a3.35 3.35 0 0 0 1.16.59 3.14 3.14 0 0 0 4-3 3.14 3.14 0 1 0 -5.12 2.45z"/><path d="m126.21 75.62a2.54 2.54 0 1 1 0-5.08 2.65 2.65 0 0 1 .89.16h.1l.07.08h.11a2.54 2.54 0 0 1 -1.21 4.77zm0-4.22a1.68 1.68 0 1 0 .81.21l-.14-.07h-.07a1.86 1.86 0 0 0 -.6-.14z"/><path d="m141.06 86.91a2.54 2.54 0 1 1 2.54-2.54 2.54 2.54 0 0 1 -2.54 2.54zm0-4.22a1.68 1.68 0 1 0 1.68 1.68 1.68 1.68 0 0 0 -1.68-1.68z"/><path d="m135.47 72.57a2.54 2.54 0 1 1 2.53-2.57 2.55 2.55 0 0 1 -2.53 2.57zm0-4.22a1.68 1.68 0 1 0 1.68 1.65 1.69 1.69 0 0 0 -1.68-1.65z"/><path d="m145.49 62.72a2.78 2.78 0 0 1 -.52 0 2.54 2.54 0 0 1 -1.72-3.7 2.54 2.54 0 1 1 2.24 3.75zm-1.49-3.34a1.59 1.59 0 0 0 -.21.8 1.7 1.7 0 0 0 1.35 1.65 1.72 1.72 0 0 0 .34 0 1.68 1.68 0 1 0 -1.48-2.45z"/><path d="m121.08 74a4 4 0 1 1 4-4 4 4 0 0 1 -4 4zm0-7.15a3.15 3.15 0 1 0 3.14 3.15 3.15 3.15 0 0 0 -3.14-3.11z"/><path d="m131.89 78.69a4 4 0 1 1 4-4 4 4 0 0 1 -4 4zm0-7.15a3.15 3.15 0 1 0 3.11 3.15 3.15 3.15 0 0 0 -3.11-3.15z"/><path d="m16.39 117a14 14 0 0 1 -4.25-2.6 14.37 14.37 0 0 1 -3.42-5.71 17.31 17.31 0 0 1 -.51-6.48c.2-2.1.84-4.84 2.73-6l.44.74c-2.9 1.76-2.7 8.9-1.85 11.45a13.46 13.46 0 0 0 3.18 5.34 13.24 13.24 0 0 0 3.92 2.41z"/><path d="m207.25 88.08-.41-.2h.46z"/><path d="m182.91 178a1.71 1.71 0 0 1 -.75-.16c-2.36-1.07-1.4-7.19-1.28-7.88v-.1l18.67-45.39c-.84-.45-2.57-1.92-3.5-6.63-.14-.43-1.13-4.16 2.9-12.94l7.49-17.16.81.28c-.05.19-5.16 19.93-5.32 20.47l-.11.36c.1.19.27.42.43.43.11 0 .64-.11 1.51-2.06l6.78-17.93.82.25-4.71 19.46a2.27 2.27 0 0 0 .44 1.21s.27-.08.77-1.06l6.89-18.55.82.24-4.42 20.85c.14.23.36.51.53.49s.51-.32.87-1.21l6.3-19.1.83.22-4.57 22.21a31 31 0 0 1 -2.93 5.75c-2.4 3.62-5.08 5.47-7.78 5.34-1.36 4.56-9.57 31.92-10.27 33.5l-4.64 13.81-.05.06c-2.85 3.51-5 5.24-6.53 5.24zm-1.19-7.85c-.39 2.37-.52 6.31.8 6.91.63.28 2.28.05 6.21-4.73l4.61-13.73c.43-.84 6.42-20.63 10.34-33.73l.1-.34h.36c5.91.65 9.92-9.84 10.15-10.46l3.05-14.87-4 12.1c-.47 1.18-1 1.75-1.64 1.77-.83 0-1.32-1-1.37-1.1l-.07-.13 3.27-15.41-4.87 13.12c-.37.73-1 1.67-1.71 1.54s-1.09-1.59-1.15-2v-.09-.08l3.12-12.8-4.32 11.41c-.78 1.78-1.51 2.6-2.3 2.6-.85 0-1.23-1-1.27-1.11l-.05-.14.2-.65c.1-.34 2.41-9.24 4-15.19l-5.32 12.2c-4 8.77-2.88 12.3-2.87 12.34v.06c1.1 5.6 3.29 6.16 3.31 6.17l.49.11-.18.47z"/><path d="m124.53 164.7-.44-.74a11 11 0 0 1 3.59-1.34l.15.84a10.36 10.36 0 0 0 -3.3 1.24z" fill="#231f20"/><path d="m125.16 161.87-.44-.74a11 11 0 0 1 3.58-1.35l.16.85a10 10 0 0 0 -3.3 1.24z" fill="#231f20"/><path d="m128.6 166-.44-.74a11.21 11.21 0 0 1 3.58-1.34l.16.85a10 10 0 0 0 -3.3 1.23z" fill="#231f20"/><path d="m129.23 157.58-.44-.74a11 11 0 0 1 3.58-1.34l.16.84a10.19 10.19 0 0 0 -3.3 1.24z" fill="#231f20"/><path d="m131 161.22-.44-.74a11 11 0 0 1 3.58-1.34l.16.84a10.19 10.19 0 0 0 -3.3 1.24z" fill="#231f20"/><path d="m121.72 161.22-.44-.74a11 11 0 0 1 3.58-1.34l.16.84a10.28 10.28 0 0 0 -3.3 1.24z" fill="#231f20"/><path d="m118.14 164.05-.44-.73a10.91 10.91 0 0 1 3.58-1.35l.16.85a10.17 10.17 0 0 0 -3.3 1.23z" fill="#231f20"/><path d="m173.56 90.45c-1.64-.94-1.09-2.55-.68-3.73a7.39 7.39 0 0 0 .33-1.15c.2-1.43-.52-2.16-1.43-3.09-.19-.19-.39-.4-.58-.61a4.85 4.85 0 0 1 -1.14-3.81c0-.37 0-.75 0-1.15v-.07c-.09-1.78-.29-3.41-1.66-3.69l.17-.84c2.14.44 2.27 3 2.35 4.49v.06 1.21a4 4 0 0 0 .91 3.22c.19.21.38.4.57.59.94 1 1.92 2 1.66 3.81a7.62 7.62 0 0 1 -.37 1.31c-.45 1.31-.68 2.14.29 2.7z" fill="#fff"/><path d="m137.58 58.21a3.42 3.42 0 0 1 .09-3.8 2.29 2.29 0 0 1 2.53-1l-.23.83a1.45 1.45 0 0 0 -1.59.68 2.57 2.57 0 0 0 -.1 2.81z" fill="#fff"/><path d="m143.82 67.41a2.57 2.57 0 0 1 -.87-.15l.29-.81a1.89 1.89 0 0 0 1.78-.33 1.93 1.93 0 0 0 .8-1.67l.86-.07a2.78 2.78 0 0 1 -1.13 2.42 2.85 2.85 0 0 1 -1.73.61z" fill="#fff"/><path d="m128 69.43a2.21 2.21 0 0 1 -1.63-.75 3 3 0 0 1 -.76-2.3 3.14 3.14 0 0 1 2.94-2.53l.13.85c-1 .14-2.1.69-2.22 1.77a2.14 2.14 0 0 0 .54 1.63 1.32 1.32 0 0 0 1 .47z" fill="#fff"/><path d="m147.38 74.85a4.43 4.43 0 0 1 -1.41-.28l.27-.82c1.21.4 1.81.3 2.22-.38l.74.44a2 2 0 0 1 -1.82 1.04z" fill="#fff"/><path d="m138.21 81.07a4.76 4.76 0 0 1 -2.54-.77 2.16 2.16 0 0 1 -1-2l.85.09a1.56 1.56 0 0 0 1.07 1.46 3 3 0 0 0 2.26.28s0 0 0 .06h.86a.78.78 0 0 1 -.49.69 2.09 2.09 0 0 1 -1.01.19z" fill="#fff"/><g fill="#231f20"><path d="m84 57.31a6.32 6.32 0 0 1 -2.61-.83c-1.42-.75-3-2-3.24-3l.83-.22c.17.63 1.4 1.71 2.81 2.45a4 4 0 0 0 2.51.69l.29.81a1.62 1.62 0 0 1 -.59.1z"/><path d="m85.5 61.94-.36-.78c1.2-.55 2.11-4.3 2-5.9h.86c.11 1.63-.79 5.9-2.5 6.68z"/><path d="m86.69 69.44c-2.18 0-5.84-2.59-6.51-5.2l.82-.24c.49 1.91 3.84 4.76 5.85 4.55l.08.86z"/><path d="m98.94 53.83a9.23 9.23 0 0 1 -2.72-6.92h.86a8.33 8.33 0 0 0 2.44 6.26z"/><path d="m97.78 61.53-.26-.82c1.31-.41 3.11-3.51 3.59-5l.82.26c-.43 1.33-2.29 4.97-4.15 5.56z"/><path d="m96.38 68.33c-1.69-1.33-2.38-3.18-2.31-5.94h.86c-.09 2.49.51 4.06 2 5.24z"/><path d="m111.09 54.54-.79-.32a14 14 0 0 1 1.42-2.47 11.75 11.75 0 0 0 1.58-2.94l.82.25a12.33 12.33 0 0 1 -1.69 3.17 13.66 13.66 0 0 0 -1.34 2.31z"/><path d="m108.36 61.25c-1.85-2.14-2.31-6-1.81-8.53l.84.17c-.47 2.37 0 5.94 1.62 7.8z"/><path d="m108.79 66.92-.48-.71c1.43-1 2.23-3.12 3-5.21a25.77 25.77 0 0 1 1.15-2.8l.77.39a26.52 26.52 0 0 0 -1.12 2.71c-.81 2.21-1.65 4.5-3.32 5.62z"/><path d="m107.22 70.29a8 8 0 0 1 -1.58-4.19 14 14 0 0 0 -.51-2.26l.81-.28a15.17 15.17 0 0 1 .55 2.4 7.19 7.19 0 0 0 1.37 3.76z"/><path d="m88.32 72-.83-.21a36.18 36.18 0 0 0 .84-8.64h.86a37 37 0 0 1 -.87 8.85z"/></g><path d="m57.21 150.18-.54-.66a2.19 2.19 0 0 0 .62-1.65 4.65 4.65 0 0 0 -1.29-3.28c-1.77-1.54-3.59-1.84-5.7-2.2l.15-.85c2.14.36 4.16.7 6.12 2.4a5.43 5.43 0 0 1 1.61 3.94 2.86 2.86 0 0 1 -.97 2.3z" fill="#fff"/><path d="m160.18 129.79-.63-.59c.16-.17.32-.36.48-.55a6.75 6.75 0 0 1 1-1.07l.54.68a6.07 6.07 0 0 0 -.88.93c-.17.2-.33.41-.51.6z" fill="#fff"/><path d="m180.13 137.5-.68-.52c1.43-1.89 3.07-4.53 3.36-6.26l.85.14c-.4 2.37-2.8 5.68-3.53 6.64z" fill="#fff"/><path d="m165.62 119.48-.61-.61a21.42 21.42 0 0 0 2.8-3.51l.74.46a23.85 23.85 0 0 1 -2.93 3.66z" fill="#fff"/><path d="m183.93 121.3-.82-.24a9.35 9.35 0 0 1 1.4-2.46 6.43 6.43 0 0 0 1.16-2.07l.85.13a6.68 6.68 0 0 1 -1.3 2.43 8.79 8.79 0 0 0 -1.29 2.21z" fill="#fff"/><path d="m182.92 107-.81-.31a18.89 18.89 0 0 1 3.17-4.35l.07-.08.64.57-.07.08a18.67 18.67 0 0 0 -3 4.09z" fill="#fff"/><path d="m163.46 106.71a.54.54 0 0 1 -.2 0c-.13-.06-.33-.23-.23-.64l.83.2a.41.41 0 0 0 -.23-.34.39.39 0 0 0 -.44 0 2.94 2.94 0 0 0 .22-.31c.1-.14.21-.29.29-.38.28-.33.55-.67.82-1l.43-.53a17.87 17.87 0 0 0 1.43-2l.74.44a18 18 0 0 1 -1.51 2.06l-.41.52c-.28.35-.56.7-.85 1a3.58 3.58 0 0 0 -.23.31c-.23.41-.41.67-.66.67z" fill="#fff"/><path d="m171.88 112.83a6.25 6.25 0 0 1 -1.94-1.8c-.18-.22-.35-.43-.5-.59s-.57-.55-.89-.84a8.91 8.91 0 0 1 -1.44-1.51l.71-.48a8.21 8.21 0 0 0 1.3 1.35c.33.29.66.59.95.9s.34.38.53.62a6.15 6.15 0 0 0 1.62 1.56z" fill="#fff"/><path d="m156.05 138.18a36.77 36.77 0 0 1 .44-6.11l.85.12a36.68 36.68 0 0 0 -.43 5.93z" fill="#fff"/><path d="m99.43 144.19a32.61 32.61 0 0 0 -3.67-1.75c-1.2-.52-2.44-1.06-3.44-1.58-3.8-2-6.2-5.3-8.23-8.57-2.41-3.88-4.71-8.14-5.22-13-.06-.63-.14-1.25-.22-1.88a28.28 28.28 0 0 1 -.35-5.22 20.39 20.39 0 0 1 .44-2.85 14.62 14.62 0 0 0 .42-3.63h.86a15.29 15.29 0 0 1 -.44 3.84 19.36 19.36 0 0 0 -.42 2.73 27.66 27.66 0 0 0 .34 5.06c.08.64.16 1.27.23 1.9.49 4.68 2.73 8.84 5.09 12.63 2 3.17 4.28 6.36 7.9 8.26 1 .5 2.2 1 3.39 1.55a32.49 32.49 0 0 1 3.78 1.82z" fill="#231f20"/><path d="m200.54 120.89a9.34 9.34 0 0 1 -1.51-8.74l.8.29a8.59 8.59 0 0 0 1.35 7.88z" fill="#231f20"/></svg>